<?xml version="1.0" standalone="no"?>
<!DOCTYPE svg PUBLIC "-//W3C//DTD SVG 1.1//EN" "http://www.w3.org/Graphics/SVG/1.1/DTD/svg11.dtd" >
<svg xmlns="http://www.w3.org/2000/svg">
<metadata></metadata>
<defs>
<font id="etelka_narrow_medium_proIt" horiz-adv-x="964" >
<font-face units-per-em="2048" ascent="1638" descent="-410" />
<missing-glyph horiz-adv-x="436" />
<glyph unicode="&#xfb01;" horiz-adv-x="972" d="M66 0l174 821h-140l47 221h140l12 62q18 90 51 157t75 109t98.5 67.5t115 35.5t131.5 10q169 0 297 -64l-90 -198q-95 45 -225 45q-108 0 -168.5 -36.5t-83.5 -139.5l-11 -48h510l-221 -1042h-203l175 821h-308l-174 -821h-202z" />
<glyph unicode="&#xfb02;" horiz-adv-x="980" d="M66 0l174 821h-140l47 221h140l12 62q23 112 66 189t104 117t128.5 56.5t154.5 16.5q169 0 327 -64l-239 -1126q-32 -151 10 -246q-17 -8 -88 -42t-111 -52q-62 120 -16 330l205 960q-71 23 -138 23q-83 0 -131.5 -37t-70.5 -139l-11 -48h222l-47 -221h-222l-174 -821 h-202z" />
<glyph horiz-adv-x="0" />
<glyph horiz-adv-x="682" />
<glyph unicode=" "  horiz-adv-x="436" />
<glyph unicode="&#x09;" horiz-adv-x="436" />
<glyph unicode="&#xa0;" horiz-adv-x="436" />
<glyph unicode="!" horiz-adv-x="542" d="M80.5 68q0.5 31 11.5 82q19 90 51.5 116.5t106.5 26.5q32 0 51 -3t34 -11.5t20 -24.5t4 -41t-9 -63q-21 -98 -55.5 -129t-110.5 -31q-37 0 -58.5 6t-33.5 23.5t-11.5 48.5zM211 457l156 970h249l-258 -970h-147z" />
<glyph unicode="&#x22;" horiz-adv-x="606" d="M209 936l86 491h184l-135 -491h-135zM485 936l90 491h179l-136 -491h-133z" />
<glyph unicode="#" horiz-adv-x="1167" d="M35 362l55 203h207l86 326h-211l55 205h211l88 331h191l-90 -331h225l90 331h188l-88 -331h226l-56 -205h-225l-86 -326h229l-55 -203h-225l-96 -362h-189l94 362h-227l-94 -362h-188l94 362h-209zM485 565h228l86 326h-226z" />
<glyph unicode="$" horiz-adv-x="1019" d="M47 63l96 228q84 -41 263 -49l77 368q-163 24 -228.5 108.5t-29.5 252.5q42 196 147 298.5t277 127.5l64 293h143l-59 -283q180 -3 299 -55l-99 -226q-33 20 -105 33t-147 15l-73 -351q164 -30 227 -124.5t25 -268.5q-42 -197 -145 -294.5t-279 -119.5l-64 -297h-143 l63 291q-195 3 -309 53zM432 999q-14 -70 7 -103t93 -48l68 317q-140 -28 -168 -166zM549 250q70 14 111.5 53t58.5 113q14 73 -5.5 111.5t-92.5 56.5z" />
<glyph unicode="%" horiz-adv-x="1570" d="M156 778q3 91 32 228q38 180 90.5 279.5t123.5 138t182 38.5q66 0 109.5 -13t73.5 -43.5t40.5 -83t5 -130t-28.5 -186.5q-57 -269 -146 -371.5t-251 -102.5q-82 0 -132 22.5t-76 77.5t-23 146zM254 0l1003 1427h193l-1006 -1427h-190zM343.5 770.5q12.5 -55.5 82.5 -55.5 q69 0 104.5 56.5t73.5 232.5q26 121 27.5 180t-17.5 78.5t-67 19.5t-76.5 -19.5t-53.5 -79t-50 -179.5q-36 -178 -23.5 -233.5zM898 215q3 91 32 229q29 135 63.5 223t83 139.5t107 72t141.5 20.5q66 0 109.5 -13t74 -43.5t41 -83t5 -130t-28.5 -185.5 q-39 -183 -92.5 -286.5t-125.5 -145t-182 -41.5q-82 0 -131 22t-74.5 76.5t-22.5 145.5zM1082.5 207q12.5 -55 82.5 -55q47 0 75.5 23t52.5 84t50 183q26 121 27.5 179.5t-17.5 78t-67 19.5t-76.5 -19t-53.5 -78.5t-50 -179.5q-36 -180 -23.5 -235z" />
<glyph unicode="&#x26;" horiz-adv-x="1304" d="M78 373q77 351 385 368q-49 5 -83.5 18.5t-54.5 37t-30.5 51t-10.5 67t5 77t16 89.5q21 97 54 165t88 118t138 74t197 24q219 0 290 -83.5t30 -274.5q-32 -153 -109 -239.5t-225 -100.5q55 -6 108 -66.5t111 -191.5q93 135 131 305h219q-29 -131 -97 -259t-165 -237 q24 -59 111 -315h-246q-22 84 -49 154q-124 -96 -229.5 -139.5t-237.5 -43.5q-236 0 -314.5 88t-31.5 314zM315 412q-27 -124 6 -171.5t150 -47.5q102 0 178.5 31.5t169.5 111.5q-58 155 -115.5 231t-128.5 76q-110 0 -172 -54t-88 -177zM516 1055q-23 -109 6 -155t121 -46 q94 0 151 46.5t80 152.5q21 104 -11 144t-130 40t-146 -39t-71 -143z" />
<glyph unicode="'" horiz-adv-x="331" d="M209 936l86 491h184l-135 -491h-135z" />
<glyph unicode="(" horiz-adv-x="497" d="M137 510q50 236 117 422t144.5 310t157 203t167.5 124l55 -191q-61 -32 -114.5 -89.5t-108.5 -156t-106.5 -255.5t-96.5 -367q-44 -208 -59 -365t-1.5 -256t42 -157t74.5 -90l-134 -191q-318 202 -137 1059z" />
<glyph unicode=")" horiz-adv-x="497" d="M-227 -358q60 32 113 89.5t107.5 156t105.5 255.5t96 367q45 208 60 365t2 256t-41.5 157t-74.5 90l135 191q317 -201 136 -1059q-40 -190 -92 -348.5t-108.5 -272.5t-121.5 -203t-128.5 -144.5t-133.5 -90.5z" />
<glyph unicode="*" horiz-adv-x="808" d="M174 981l45 205h211l-57 231l166 103l57 -230l154 230l124 -103l-157 -231h213l-45 -205h-213l57 -231l-164 -101l-57 225l-154 -225l-123 103l154 229h-211z" />
<glyph unicode="+" horiz-adv-x="952" d="M127 621l51 241h299l80 377h197l-80 -377h301l-51 -241h-301l-80 -377h-197l80 377h-299z" />
<glyph unicode="," horiz-adv-x="466" d="M-133 -326l239 537h242l-301 -537h-180z" />
<glyph unicode="-" horiz-adv-x="497" d="M61 455l52 241h403l-51 -241h-404z" />
<glyph unicode="." horiz-adv-x="466" d="M41.5 68q0.5 31 11.5 82q20 90 51.5 116.5t106.5 26.5q32 0 51 -3t34 -11.5t20 -24.5t4 -41t-9 -63q-21 -98 -55.5 -129t-110.5 -31q-38 0 -59.5 6t-33 23.5t-11 48.5z" />
<glyph unicode="/" horiz-adv-x="765" d="M-57 0l886 1427h220l-887 -1427h-219z" />
<glyph unicode="0" horiz-adv-x="1026" d="M106.5 367q5.5 148 51.5 366q46 215 102 357.5t129.5 224t156.5 114.5t195 33q88 0 149.5 -20.5t104.5 -70t59 -132.5t7.5 -208.5t-45.5 -297.5q-37 -175 -82 -304.5t-97 -217t-116.5 -141t-135.5 -76.5t-159 -23q-111 0 -180.5 37t-107 124t-32 235zM324 405.5 q-4 -108.5 30.5 -149.5t122.5 -41q53 0 90 13t69.5 45t59.5 92.5t52 148t53 219.5q23 110 35.5 186.5t13.5 132.5t-6.5 88.5t-30 51.5t-50.5 25t-73 6t-75.5 -6t-60.5 -25.5t-51 -51.5t-43.5 -88t-42 -132t-42.5 -187q-47 -219 -51 -327.5z" />
<glyph unicode="1" horiz-adv-x="1026" d="M322 1223l583 264l-315 -1487h-211l242 1139l-285 -138z" />
<glyph unicode="2" horiz-adv-x="1028" d="M-4 0l45 217q187 148 292.5 233t199.5 168t134.5 125t75.5 94.5t46 88t24 94.5q24 115 -13.5 157t-156.5 42q-75 0 -165 -16.5t-146 -39.5l4 234q179 65 377 65q74 0 129 -8t100 -27.5t72.5 -51t41.5 -78t12 -110t-19 -145.5q-16 -77 -35 -133t-55 -117t-82 -113 t-125 -122.5t-174.5 -144.5t-239.5 -179h536l-49 -233h-829z" />
<glyph unicode="3" horiz-adv-x="1026" d="M4 23l90 233q50 -19 131 -30t152 -11q111 0 172.5 20.5t91.5 63t47 123.5q26 120 -10 166.5t-148 46.5h-161l47 229h157q106 0 158.5 40t73.5 143q21 100 -20.5 137t-188.5 37q-69 0 -156 -12.5t-139 -32.5l6 233q204 53 381 53q164 0 250 -37t109.5 -118t-5.5 -209 q-32 -156 -101 -241t-214 -101q103 -6 153.5 -54t52.5 -128t-20 -189q-49 -229 -173 -321.5t-371 -92.5q-87 0 -189 15t-176 37z" />
<glyph unicode="4" horiz-adv-x="1019" d="M25 367l16 84q157 236 353.5 514t342.5 462h289l-178 -837h153l-47 -223h-153l-78 -367h-207l78 367h-569zM334 590h307l129 604q-100 -123 -227 -300.5t-209 -303.5z" />
<glyph unicode="5" horiz-adv-x="1024" d="M27 23l92 233q45 -19 122.5 -30t149.5 -11q107 0 164.5 19t87 62t47.5 130q22 88 12.5 138.5t-56 70.5t-152.5 20q-164 0 -285 -28l170 800h706l-51 -233h-502l-67 -317q86 8 137 8q238 0 308 -100.5t18 -344.5q-29 -137 -71.5 -226t-109 -144t-153.5 -77t-213 -22 q-83 0 -185.5 15t-168.5 37z" />
<glyph unicode="6" horiz-adv-x="1024" d="M105 360.5q8 143.5 55 364.5q37 176 82 301t100 210.5t128.5 134.5t159.5 70t201 21q169 0 306 -55l-99 -238q-40 22 -110.5 35t-147.5 13q-57 0 -99 -8t-83 -30.5t-72 -61.5t-58 -102.5t-48 -152.5q112 23 219 23q238 0 310 -101t20 -344q-29 -137 -70.5 -226t-106 -144 t-148 -77t-204.5 -22q-125 0 -198.5 35.5t-109 123t-27.5 231zM340 333q6 -47 27.5 -73t50.5 -35.5t74 -9.5q84 0 132 21.5t73 64.5t42 125q28 128 -2 178.5t-153 50.5q-103 0 -217 -20q-21 -106 -27 -180.5t0 -121.5z" />
<glyph unicode="7" horiz-adv-x="1026" d="M166 0q170 336 368.5 677t335.5 517h-589l51 233h876l-18 -81q-162 -227 -400 -637.5t-380 -708.5h-244z" />
<glyph unicode="8" horiz-adv-x="1026" d="M82 385q15 68 33 120t46 99.5t64 78.5t87.5 50t115.5 23q-96 11 -142 57t-46 118t18 167q21 98 53.5 163t88 112t139 68t202.5 21q157 0 237.5 -39t98 -119.5t-9.5 -205.5q-16 -77 -36.5 -130.5t-55.5 -101t-90 -75t-131 -35.5q104 -6 154.5 -54t52 -128t-20.5 -189 q-47 -228 -163.5 -321t-350.5 -93t-312.5 93t-31.5 321zM313 412q-26 -124 7 -171.5t151 -47.5t172 47.5t80 171.5q26 126 -8.5 178.5t-147.5 52.5q-114 0 -170.5 -52.5t-83.5 -178.5zM469 1055q-23 -108 10.5 -154.5t132.5 -46.5t152 46.5t76 154.5q23 104 -10 143t-136 39 q-105 0 -153.5 -38.5t-71.5 -143.5z" />
<glyph unicode="9" horiz-adv-x="1026" d="M187 777q-2 82 22 202q58 270 176.5 376.5t355.5 106.5q106 0 174.5 -15t113.5 -47.5t60.5 -91.5t11 -139.5t-29.5 -199.5t-71 -233t-101 -209t-129 -191.5t-144.5 -173.5t-158.5 -162h-268q340 326 487 559q-68 -10 -145 -10q-123 0 -197.5 22.5t-114.5 73t-42 132.5z M438 991q-28 -133 4.5 -173t169.5 -40q98 0 181 15q30 71 45 147q13 63 18.5 107t1 76t-15 50.5t-33.5 29.5t-50 14.5t-69 3.5q-84 0 -134 -25.5t-74.5 -72t-43.5 -132.5z" />
<glyph unicode=":" horiz-adv-x="466" d="M41.5 68q0.5 31 11.5 82q20 90 51.5 116.5t106.5 26.5q32 0 51 -3t34 -11.5t20 -24.5t4 -41t-9 -63q-21 -98 -55.5 -129t-110.5 -31q-38 0 -59.5 6t-33 23.5t-11 48.5zM214 781.5q-20 29.5 1 127.5q20 92 51.5 119t106.5 27q77 0 98 -27t2 -119q-21 -98 -54 -127.5 t-110 -29.5q-75 0 -95 29.5z" />
<glyph unicode=";" horiz-adv-x="466" d="M-133 -326l239 537h242l-301 -537h-180zM214.5 782q-20.5 30 0.5 127q19 91 51.5 118.5t106.5 27.5q78 0 99 -27t1 -119q-21 -98 -53.5 -127.5t-110.5 -29.5q-74 0 -94.5 30z" />
<glyph unicode="&#x3c;" horiz-adv-x="952" d="M199 676l26 125l719 581l72 -180l-537 -461l340 -465l-145 -184z" />
<glyph unicode="=" horiz-adv-x="954" d="M70 344l51 242h797l-52 -242h-796zM186 891l52 242h796l-51 -242h-797z" />
<glyph unicode="&#x3e;" horiz-adv-x="954" d="M115 274l536 461l-340 467l146 182l475 -583l-27 -125l-721 -582z" />
<glyph unicode="?" horiz-adv-x="806" d="M206 22q-20 30 1 128q20 90 51.5 116.5t106.5 26.5q32 0 51 -3t34 -11.5t20 -24.5t4 -41t-9 -63q-21 -98 -54.5 -128t-109.5 -30q-75 0 -95 30zM254 1174l6 237q59 21 149.5 36t157.5 15q226 0 303.5 -101.5t32.5 -311.5q-35 -164 -132.5 -306t-268.5 -303h-213 q165 171 249.5 305t118.5 293q20 90 -14.5 134.5t-144.5 44.5q-150 0 -244 -43z" />
<glyph unicode="@" horiz-adv-x="1538" d="M81 234q2 130 40 311q38 177 92.5 307t121.5 214t155.5 135t183 71t215.5 20q68 0 116.5 -6t91 -21.5t68 -43t42 -70t18.5 -103t-7.5 -140.5t-31.5 -185q-29 -139 -60 -230.5t-67.5 -152t-89 -91.5t-111.5 -42.5t-149 -11.5q-78 0 -129.5 10t-87.5 32.5t-50 63.5 t-12.5 98.5t19.5 141.5q23 108 53 175t77 103.5t102.5 49t143.5 12.5q126 0 201 -21q26 129 -10.5 175t-165.5 46q-87 0 -147 -7.5t-115.5 -29t-93.5 -58t-72.5 -97t-60.5 -142.5t-50 -198q-18 -88 -27.5 -155.5t-9 -124t10 -97t31.5 -72t53.5 -51.5t79 -32.5t103.5 -17.5 t132 -5q151 0 248.5 26.5t172 99t121.5 189t87 307.5q57 255 47 383h184q3 -145 -49 -391q-51 -239 -123 -398t-178 -254.5t-238 -135t-315 -39.5q-149 0 -251 22t-175 73.5t-104.5 139.5t-29.5 218zM647 549q-20 -96 5.5 -128t119.5 -32q88 0 129.5 41t67.5 160l20 96 q-57 14 -151 14q-95 0 -132.5 -27.5t-58.5 -123.5z" />
<glyph unicode="A" horiz-adv-x="1118" d="M-96 0q148 319 346 713t371 714h337q14 -348 44 -746t65 -681h-240q-19 165 -34 356h-500q-123 -264 -164 -356h-225zM401 588h379q-22 330 -28 610h-45q-183 -351 -306 -610z" />
<glyph unicode="B" horiz-adv-x="1165" d="M61 0l304 1427h614q83 0 134 -23t71 -70q20 -46 21 -104q0 -61 -19 -145q-16 -77 -35.5 -128.5t-53.5 -96.5t-87.5 -70.5t-130.5 -33.5q63 -4 105.5 -23t65 -49t30.5 -76q4 -28 4 -58q0 -20 -2 -40q-5 -51 -19 -119q-82 -391 -377 -391h-625zM326 227h360q110 0 152 201 q12 59 12 101q0 110 -84 110h-352zM461 858h350q96 0 133 172q12 51 12 87q0 24 -6 40q-14 41 -67 41h-351z" />
<glyph unicode="C" horiz-adv-x="970" d="M116 425q6 128 42 302q47 217 109 361t149 226t189.5 115t244.5 33q78 0 166 -15t151 -38l-100 -238q-38 20 -104.5 33t-126.5 13q-68 0 -114 -6t-92 -24.5t-77.5 -51.5t-62 -88t-54.5 -133.5t-47 -188.5q-29 -132 -35 -221q-2 -33 -2 -62q0 -48 7 -84q11 -57 48 -87 t86.5 -41t129.5 -11q60 0 132.5 12.5t118.5 32.5l-2 -241q-161 -52 -337 -52q-112 0 -190.5 23t-133.5 75.5t-78 140.5q-19 71 -19 167q1 23 2 48z" />
<glyph unicode="D" horiz-adv-x="1204" d="M61 0l304 1427h436q113 0 191.5 -20.5t135 -69t80.5 -129.5q21 -69 20 -168v-34q-4 -121 -40 -287q-35 -165 -82.5 -287t-106.5 -205t-136 -133.5t-165 -72t-200 -21.5h-437zM328 233h196q80 0 135 12t101.5 42t80 86t61.5 138.5t54 205.5q28 128 34 211q3 35 2 65 q0 41 -5 73q-9 54 -45 81.5t-83.5 37t-129.5 9.5h-199z" />
<glyph unicode="E" horiz-adv-x="1015" d="M61 0l304 1427h829l-51 -233h-613l-69 -330h436l-49 -231h-436l-84 -400h612l-49 -233h-830z" />
<glyph unicode="F" horiz-adv-x="956" d="M61 0l304 1427h813l-52 -233h-596l-84 -403h437l-49 -232h-437l-118 -559h-218z" />
<glyph unicode="G" horiz-adv-x="1146" d="M116 425q5 128 42 302q31 145 70.5 257t90 193t108 136.5t129.5 88t150 46.5t175 14q78 0 175.5 -15t157.5 -38l-96 -235q-37 19 -122 31t-150 12q-71 0 -118.5 -6t-94.5 -24.5t-79 -51.5t-63 -88t-55 -133.5t-47 -188.5q-24 -110 -33 -189q-6 -48 -6 -87q0 -27 2 -50 q7 -57 24.5 -92t54 -55.5t81 -27.5t111.5 -7q73 0 151 21l78 368h-248l47 228h471l-170 -801q-75 -27 -195.5 -44.5t-221.5 -17.5q-112 0 -190.5 23t-133.5 75.5t-78 140.5q-19 70 -19 167q0 23 2 48z" />
<glyph unicode="H" horiz-adv-x="1204" d="M61 0l304 1427h217l-117 -544h487l117 544h213l-303 -1427h-213l133 633h-487l-133 -633h-218z" />
<glyph unicode="I" horiz-adv-x="503" d="M61 0l304 1427h217l-303 -1427h-218z" />
<glyph unicode="J" horiz-adv-x="755" d="M-68 27l95 241q78 -43 186 -43q69 0 119 45t74 158l212 999h218l-220 -1034q-89 -422 -436 -422q-136 0 -248 56z" />
<glyph unicode="K" horiz-adv-x="1083" d="M61 0l304 1427h217l-303 -1427h-218zM438 754q72 54 234.5 235.5t355.5 437.5h262q-198 -253 -352.5 -428t-216.5 -227q44 -46 130.5 -250.5t172.5 -521.5h-266q-89 327 -179 526t-141 228z" />
<glyph unicode="L" horiz-adv-x="903" d="M61 0l304 1427h217l-254 -1191h538l-49 -236h-756z" />
<glyph unicode="M" horiz-adv-x="1499" d="M61 0l304 1427h294q70 -396 127 -913q245 475 510 913h281l-303 -1427h-211l225 1063q-198 -344 -516 -932h-170q-74 721 -106 932l-226 -1063h-209z" />
<glyph unicode="N" horiz-adv-x="1267" d="M61 0l304 1427h282q143 -487 262 -1030l219 1030h215l-303 -1427h-264q-130 577 -276 1075l-228 -1075h-211z" />
<glyph unicode="O" horiz-adv-x="1259" d="M116 422q6 129 42 305q46 215 109.5 359t152 226.5t192.5 116t246 33.5q113 0 191.5 -21t135.5 -71t81 -134q20 -70 20 -171q0 -19 -2 -39q-4 -126 -41 -299q-46 -219 -110.5 -366.5t-152.5 -233t-192.5 -121t-244.5 -35.5q-113 0 -192.5 22t-136 74t-80.5 139 q-20 71 -20 169q1 23 2 47zM345 400q2 -58 16.5 -92.5t47 -56t76 -29t109.5 -7.5t112 7.5t87.5 29t70 56t56 93t49 135t45.5 187.5t34 187q8 59 9 107q0 15 -1 27q-3 58 -17 90t-47.5 52t-75.5 26.5t-109 6.5q-81 0 -132.5 -10.5t-96.5 -39t-76 -86t-58 -142.5t-55 -218 q-24 -111 -35 -187q-9 -62 -9 -113v-23z" />
<glyph unicode="P" horiz-adv-x="1101" d="M61 0l304 1427h593q241 0 241 -279q0 -90 -25 -210q-20 -95 -56.5 -177.5t-87.5 -148t-121 -103.5t-149 -38h-383l-98 -471h-218zM426 696h317q68 0 117.5 62t75.5 182q16 74 16 127q0 131 -98 131h-322z" />
<glyph unicode="Q" horiz-adv-x="1282" d="M128 424q5 128 42 303q46 215 109 359t151.5 226.5t192 116t245.5 33.5q113 0 191.5 -21t136 -71t81.5 -134q20 -71 20 -171q0 -19 -1 -39q-4 -126 -41 -299q-70 -332 -182.5 -494.5t-284.5 -201.5q110 -40 250 -424h-252q-54 172 -117.5 264t-119.5 100 q-112 0 -190.5 22.5t-134 75t-78.5 139.5q-20 70 -20 168q0 23 2 48zM357 400q2 -58 16 -92.5t46.5 -56t75.5 -29t109 -7.5t112.5 7.5t88 29t70.5 56t56.5 93t49 135t45.5 187.5q23 111 34 187q8 59 8 107q0 14 -1 27q-3 57 -17 89.5t-47.5 52.5t-76 26.5t-109.5 6.5 t-112.5 -6.5t-87 -26.5t-69.5 -52.5t-55 -90t-48 -133.5t-44 -187q-24 -111 -35 -187q-9 -65 -9 -117v-19z" />
<glyph unicode="R" horiz-adv-x="1157" d="M61 0l304 1427h593q250 0 250 -258q0 -69 -18 -157q-18 -81 -47.5 -147t-75 -121t-112.5 -87t-150 -36q54 -26 110.5 -166t141.5 -455h-269q-71 289 -129 417t-114 128h-152l-114 -545h-218zM440 768h322q64 0 110.5 53t67.5 156q12 59 12 102q0 39 -10 65q-21 54 -82 54 h-328z" />
<glyph unicode="S" horiz-adv-x="1019" d="M20 35l97 233q51 -22 132 -36.5t163 -14.5q141 0 211 41t94 148q6 28 6 53q-1 21 -5 39q-10 40 -63 67t-157 39q-96 12 -157.5 37.5t-99.5 71.5q-38 45 -43 115q-1 15 -1 32q0 59 14 137q53 246 196 355.5t388 109.5q92 0 183.5 -17.5t154.5 -45.5l-99 -234 q-45 22 -126 37t-165 15q-137 0 -205.5 -42t-91.5 -145q-6 -27 -6 -49.5t6 -40.5q13 -36 62 -58t149 -34q195 -26 265 -126q43 -63 44 -165q0 -61 -16 -137q-53 -245 -193 -347t-395 -102q-94 0 -186.5 17.5t-155.5 46.5z" />
<glyph unicode="T" horiz-adv-x="997" d="M176 1194l51 233h987l-51 -233h-385l-252 -1194h-217l252 1194h-385z" />
<glyph unicode="U" horiz-adv-x="1216" d="M137 432l213 995h217l-202 -954q-13 -58 -13 -101q0 -64 28 -97q46 -56 191 -56t217 54t103 200l203 954h215l-211 -995q-24 -111 -63 -192t-88.5 -132.5t-117.5 -82t-141 -42.5t-168 -12q-78 0 -137.5 8t-111.5 28t-85 54q-32 35 -51 85q-19 49 -19 118q0 74 21 168z " />
<glyph unicode="V" horiz-adv-x="1062" d="M190 1427h240q28 -247 51 -572.5t29 -580.5q274 512 561 1153h227q-148 -320 -347 -714t-373 -713h-277q-35 881 -111 1427z" />
<glyph unicode="W" horiz-adv-x="1595" d="M217 1427h236q17 -339 18 -693q0 -197 -6 -398q301 655 463 1091h200q1 -225 1 -409q0 -479 -9 -682q251 539 469 1091h223q-307 -752 -632 -1427h-277q29 476 29 979q-130 -345 -416 -979h-274q2 186 2 354q0 693 -27 1073z" />
<glyph unicode="X" horiz-adv-x="1103" d="M-88 0q200 235 588 721q-152 407 -279 706h277q61 -148 186 -471q239 302 363 471h266q-217 -286 -545 -700q158 -426 260 -727h-268q-24 69 -83 235.5t-91 258.5q-319 -387 -408 -494h-266z" />
<glyph unicode="Y" horiz-adv-x="1046" d="M160 1427h282q103 -248 201 -544q251 311 418 544h262q-311 -416 -635 -811l-129 -616h-215l129 614q-175 500 -313 813z" />
<glyph unicode="Z" horiz-adv-x="1019" d="M-53 0l12 66q420 524 866 1128h-589l51 233h925l-14 -61q-184 -261 -441 -598.5t-425 -534.5h614l-49 -233h-950z" />
<glyph unicode="[" horiz-adv-x="559" d="M-49 -532l442 2078h443l-48 -221h-231l-348 -1638h231l-47 -219h-442z" />
<glyph unicode="\" horiz-adv-x="765" d="M174 1427h219l281 -1427h-219z" />
<glyph unicode="]" horiz-adv-x="559" d="M-225 -532l47 219h229l348 1638h-231l47 221h442l-442 -2078h-440z" />
<glyph unicode="^" horiz-adv-x="870" d="M68 606l489 821h197l141 -821h-219l-82 545l-311 -545h-215z" />
<glyph unicode="_" horiz-adv-x="770" d="M-106 -340l49 242h675l-51 -242h-673z" />
<glyph unicode="`" horiz-adv-x="786" d="M373 1427h217l141 -264h-180z" />
<glyph unicode="a" horiz-adv-x="962" d="M78 256q0 111 33 260q44 212 113.5 335t165.5 172.5t239 49.5q92 0 190.5 -21.5t157.5 -56.5l-146 -676q-12 -66 -12 -92q0 -77 45 -139l-180 -125q-31 14 -54 52.5t-28 78.5q-45 -54 -113 -86.5t-143 -32.5q-135 0 -201.5 63.5t-66.5 217.5zM295 334q0 -77 33.5 -108 t109.5 -31q70 0 125.5 33.5t67.5 90.5l108 510q-65 35 -153 35q-77 0 -120.5 -24.5t-77.5 -98t-66 -221.5q-27 -138 -27 -186z" />
<glyph unicode="b" horiz-adv-x="962" d="M39 47l305 1432h203l-101 -475q104 69 232 69q71 0 120.5 -16t84.5 -54q35 -39 49 -101q10 -44 9 -104q1 -24 -1 -51q-6 -93 -33 -219q-45 -212 -114.5 -335t-165 -172.5t-238.5 -49.5q-92 0 -190.5 21.5t-159.5 54.5zM279 213q59 -33 153 -33q78 0 121.5 24t78.5 98 t66 222q24 118 24 189q0 45 -10 71q-26 66 -132 66q-70 0 -124 -27t-63 -71z" />
<glyph unicode="c" horiz-adv-x="772" d="M85 304q1 96 28 222q33 156 84 264.5t120 169.5t147.5 87t178.5 26q61 0 131.5 -14t112.5 -35l-94 -217q-81 45 -183 45q-60 0 -99 -11t-76 -45t-63.5 -100.5t-49.5 -173.5q-22 -102 -24 -168v-8q0 -59 20 -92q22 -35 57 -48t94 -13q102 0 205 49v-217 q-52 -24 -127.5 -39t-136.5 -15q-79 0 -137.5 16.5t-102.5 56t-65 102.5q-20 60 -20 150v8z" />
<glyph unicode="d" d="M81 300q4 94 32 222q32 155 79.5 263.5t110 170.5t132.5 89.5t157 27.5q116 0 186 -59l99 465h204l-305 -1432q-74 -33 -181.5 -54.5t-197.5 -21.5q-86 0 -145 16.5t-100.5 54.5t-57.5 102q-13 51 -14 121q0 17 1 35zM296 353q-1 -14 -2 -27q0 -46 13 -76q16 -38 47 -50 t88 -12q87 0 168 31l115 539q2 9 2 17q0 33 -33 55q-41 28 -112 28q-107 0 -163 -70t-97 -262q-22 -108 -26 -173z" />
<glyph unicode="e" horiz-adv-x="903" d="M86 304q1 96 27 222q32 154 81 261.5t114 169.5t140 89t170 27q83 0 137 -16t92 -56q37 -40 49 -110q6 -36 7 -81q0 -44 -6 -96q-11 -108 -47 -259h-539q-13 -67 -14 -114v-9q1 -41 9 -68q10 -30 33 -47.5t54 -24t78 -6.5q45 0 118.5 12.5t123.5 30.5l-11 -200 q-66 -26 -151.5 -42t-149.5 -16q-75 0 -131.5 16.5t-99.5 56.5q-44 40 -64 102q-20 60 -20 149v9zM354 649h351q9 56 11 94q0 7 1 14q1 29 -5 50q-6 26 -23.5 40t-41.5 19.5t-61 5.5q-96 0 -145.5 -47.5t-86.5 -175.5z" />
<glyph unicode="f" horiz-adv-x="616" d="M66 0l174 821h-140l47 221h140l14 70q18 88 48 154.5t65.5 107t81 65.5t89.5 34.5t97 9.5q123 0 221 -45l-88 -201q-67 29 -145 29q-65 0 -106 -37t-62 -131l-13 -56h271l-47 -221h-271l-174 -821h-202z" />
<glyph unicode="g" d="M-47 -356l84 204q118 -51 239 -51q123 0 195.5 54t101.5 192q-107 -68 -227 -68q-90 0 -147 25.5t-90 86.5q-32 59 -32 161v6q1 107 34 264q34 159 80.5 266.5t111.5 171t143.5 90.5t184.5 27q92 0 190.5 -21.5t157.5 -56.5l-195 -915q-25 -120 -65.5 -208.5 t-89.5 -143.5t-114.5 -88t-132.5 -45.5t-151 -12.5q-70 0 -150.5 18t-127.5 44zM306 260q25 -65 134 -65q70 0 123.5 26t63.5 72l114 536q-68 35 -155 35q-77 0 -120 -24t-78 -98t-66 -222q-25 -121 -25 -192q0 -43 9 -68z" />
<glyph unicode="h" horiz-adv-x="956" d="M31 0l313 1479h203l-103 -478q130 72 246 72q62 0 104 -12t74 -42.5t44 -83.5q9 -39 9 -93q1 -22 -1 -44q-4 -84 -29 -198l-127 -600h-203l123 580q18 73 18 126q0 40 -10 70q-24 68 -119 68q-67 0 -119 -24t-61 -68l-160 -752h-202z" />
<glyph unicode="i" horiz-adv-x="428" d="M31 0l221 1042h203l-222 -1042h-202zM302 1237q-9 13 -9 41q0 29 10 74q17 79 45 102t98 23t89 -23q10 -12 10 -40q0 -25 -8 -62q-20 -88 -49 -115t-97 -27q-70 0 -89 27z" />
<glyph unicode="j" horiz-adv-x="430" d="M-410 -369l84 197q74 -41 172 -41q139 0 181 184l227 1071h203l-228 -1069q-85 -389 -405 -389q-138 0 -234 47zM302 1237q-9 13 -9 41q0 29 10 74q17 79 46 102t100 23q69 0 88 -23q10 -12 10 -40q0 -25 -8 -62q-20 -88 -50 -115t-98 -27q-70 0 -89 27z" />
<glyph unicode="k" horiz-adv-x="901" d="M31 0l313 1479h203l-314 -1479h-202zM350 551q94 77 428 491h240q-150 -187 -262.5 -311.5t-157.5 -161.5q29 -27 89.5 -177t133.5 -392h-237q-177 516 -234 551z" />
<glyph unicode="l" horiz-adv-x="438" d="M90 283l254 1196h203l-252 -1186q-14 -59 -14 -113q0 -71 24 -133l-199 -96q-35 73 -35 173q0 72 19 159z" />
<glyph unicode="m" horiz-adv-x="1443" d="M31 0l209 983q90 39 199 64.5t204 25.5q142 0 199 -69q165 69 311 69q90 0 145 -24q56 -24 84 -81q27 -53 26 -139v-12q-2 -94 -32 -235l-123 -582h-202l116 555q24 102 24 164v13q-3 64 -32 88t-98 24q-85 0 -168 -29v-17q0 -88 -27 -216l-123 -582h-202l116 555 q24 102 24 164v13q-3 64 -32 88t-98 24q-66 0 -143 -25l-175 -819h-202z" />
<glyph unicode="n" horiz-adv-x="954" d="M31 0l209 983q89 38 203 64t210 26q72 0 122 -15t84.5 -49.5t48.5 -91.5q11 -43 11 -101q1 -19 -1 -39q-4 -83 -29 -195l-123 -582h-205l117 555q24 100 24 162v15q-4 64 -35.5 88t-105.5 24q-73 0 -153 -25l-175 -819h-202z" />
<glyph unicode="o" d="M82 304q4 94 31 222q33 158 80 265t112 168.5t142 87.5t180 26q83 0 140.5 -16t98.5 -54q42 -39 60 -101q15 -52 14 -125v-31q-4 -94 -31 -220q-34 -159 -80.5 -267t-111.5 -171.5t-142.5 -90t-181.5 -26.5q-82 0 -140 16.5t-99 55.5t-58 103q-14 53 -14 127q-1 15 0 31z M294 276q4 -40 22.5 -61.5t46.5 -30t73 -8.5q76 0 120 26.5t77.5 100t64.5 219.5q19 92 26 152q5 40 5 70q1 16 -1 29q-4 40 -23.5 60t-47 27.5t-73.5 7.5t-76.5 -7.5t-59 -28t-49 -60t-39.5 -99.5t-38 -151q-19 -88 -25 -147q-4 -37 -4 -67q0 -17 1 -32z" />
<glyph unicode="p" d="M-53 -393l295 1388q74 35 181.5 56.5t199.5 21.5q85 0 144.5 -16.5t100.5 -54.5t58 -102q13 -52 13 -122q0 -17 -1 -35q-4 -93 -31 -221q-33 -156 -80.5 -264.5t-109.5 -170.5t-132 -89t-157 -27q-64 0 -106 16t-82 44l-90 -424h-203zM293 287q-2 -8 -2 -15q0 -35 35 -58 q41 -28 110 -28q108 0 163.5 69t96.5 261q19 87 24 146q4 32 4 58q0 21 -2 38q-5 39 -24.5 59.5t-48 28.5t-74.5 8q-94 0 -167 -31z" />
<glyph unicode="q" d="M78 298q6 94 33 220q34 159 80.5 266.5t111.5 171t143.5 90.5t184.5 27q91 0 189 -21.5t159 -56.5l-297 -1388h-203l92 434q-106 -70 -229 -70q-72 0 -122 16t-85 54.5t-49 100.5q-9 45 -9 105q0 24 1 51zM294 359q-1 -13 -1 -24q0 -46 13 -75q15 -37 46 -51t86 -14 q70 0 123.5 26t63.5 72l114 536q-65 35 -153 35q-58 0 -94 -12t-69 -49t-56.5 -104t-47.5 -179q-21 -99 -25 -161z" />
<glyph unicode="r" horiz-adv-x="620" d="M31 0l221 1042h203l-17 -77q81 108 236 108q40 0 84 -6l-51 -242q-51 15 -103 15q-81 0 -144 -31.5t-73 -85.5l-154 -723h-202z" />
<glyph unicode="s" horiz-adv-x="804" d="M2 27l86 200q40 -21 108 -35t130 -14q90 0 132 25t58 102q3 16 3 30q-1 35 -23 55q-32 28 -134 40q-143 14 -196 78q-33 40 -33 116q0 45 12 103q21 99 61 167.5t97 107t123 55t149 16.5q145 0 269 -57l-88 -199q-107 49 -232 49q-83 0 -121.5 -22.5t-54.5 -98.5 q-3 -15 -3 -28q-1 -32 21 -49q30 -23 130 -35q151 -21 204 -91q33 -43 33 -119q0 -46 -12 -104q-21 -99 -61 -168t-97.5 -107.5t-123.5 -55.5t-150 -17q-70 0 -152.5 15.5t-134.5 40.5z" />
<glyph unicode="t" horiz-adv-x="679" d="M109 821l47 221h139l37 177l225 104l-59 -281h276l-47 -221h-276l-97 -448q-12 -52 -12 -89q0 -32 9 -51q19 -43 91 -43q70 0 148 29l-6 -201q-110 -47 -238 -47q-59 0 -99 9.5t-70 34.5q-31 25 -43 68q-10 36 -10 88v21q2 66 23 158l101 471h-139z" />
<glyph unicode="u" horiz-adv-x="954" d="M123 461l125 581h203l-119 -555q-24 -98 -24 -160q0 -9 1 -17q4 -64 35 -87.5t105 -23.5q78 0 155 26l174 817h203l-209 -983q-88 -38 -203.5 -64t-210.5 -26q-91 0 -148 24q-58 24 -88 81q-30 56 -30 148q0 96 31 239z" />
<glyph unicode="v" horiz-adv-x="837" d="M139 1042h211q36 -363 39 -786q238 466 375 786h207q-232 -510 -522 -1042h-250q-10 593 -60 1042z" />
<glyph unicode="w" horiz-adv-x="1359" d="M139 1042h215q24 -307 24 -642q0 -69 -1 -140q72 148 179.5 390t168.5 392h197q10 -150 10 -384v-27q0 -216 -8 -371q229 455 360 782h207q-233 -536 -506 -1042h-252q14 295 14 532q0 87 -2 166q-131 -329 -307 -698h-252q-7 598 -47 1042z" />
<glyph unicode="x" horiz-adv-x="854" d="M-72 0q175 197 434 520q-121 330 -210 522h241q61 -141 125 -319q111 143 240 319h225q-118 -160 -397 -514q90 -244 178 -528h-229q-30 106 -107 330q-149 -186 -274 -330h-226z" />
<glyph unicode="y" horiz-adv-x="837" d="M-6 -393q95 141 207 342q-3 599 -62 1093h213q37 -339 37 -790q242 465 375 790h207q-231 -514 -547 -1085q-76 -141 -205 -350h-225z" />
<glyph unicode="z" horiz-adv-x="813" d="M-53 0l10 51q150 177 326 404.5t274 365.5h-407l47 221h718l-12 -51q-126 -179 -304 -409.5t-290 -360.5h418l-45 -221h-735z" />
<glyph unicode="{" horiz-adv-x="552" d="M53 403l45 211q181 0 269 412q92 431 385 545l55 -191q-64 -26 -106.5 -66t-83 -130.5t-72.5 -239.5q-24 -114 -56.5 -200t-66 -132.5t-60.5 -69.5t-53 -32q22 -9 39 -33t31 -71t10 -133.5t-29 -200.5q-24 -113 -30 -190.5t7 -125.5t36 -74.5t63 -46.5l-137 -188 q-244 113 -152 547q88 412 -92 412z" />
<glyph unicode="|" horiz-adv-x="608" d="M2 -524l440 2070h215l-440 -2070h-215z" />
<glyph unicode="}" horiz-adv-x="555" d="M-201 -360q63 26 105 66t82.5 131t72.5 239q25 114 57.5 199.5t66 132t60.5 70t52 32.5q-17 7 -31 22t-27 48t-18 79t1 121t26 168q24 112 30 189t-7 125t-36.5 74.5t-64.5 45.5q23 32 68 95t69 94q246 -112 154 -545q-25 -119 -29 -202t12.5 -127.5t43 -63.5t65.5 -19 l-10 -53l-35 -155q-178 0 -266 -412q-92 -431 -385 -545q-42 146 -56 191z" />
<glyph unicode="~" horiz-adv-x="954" d="M137 741q67 97 131 148t138 51q47 0 96.5 -26.5t84 -58.5t75 -58.5t71.5 -26.5q38 0 70.5 31t70.5 110l105 -129q-54 -104 -133.5 -169.5t-167.5 -65.5q-42 0 -89 27.5t-81.5 60.5t-76 60.5t-73.5 27.5t-63.5 -27.5t-69.5 -95.5z" />
<glyph unicode="&#xa1;" horiz-adv-x="542" d="M-12 -365l258 971h147l-153 -971h-252zM254 913q21 98 54.5 129t109.5 31q37 0 58.5 -6t33.5 -23.5t11.5 -48.5t-11.5 -82q-19 -90 -51.5 -116.5t-106.5 -26.5q-77 0 -97.5 26.5t-0.5 116.5z" />
<glyph unicode="&#xa2;" horiz-adv-x="749" d="M139 544.5q2 98.5 29 239.5q56 265 163.5 389.5t266.5 147.5l45 217h162l-45 -213q100 -11 166 -43l-88 -201q-49 30 -123 33l-144 -672q76 7 138 37l4 -196q-76 -38 -185 -50l-53 -247h-162l54 247q-73 13 -121.5 47.5t-78.5 100t-28 164zM344.5 561.5 q13.5 -68.5 71.5 -90.5l131 616q-67 -21 -110.5 -90t-76.5 -219q-29 -148 -15.5 -216.5z" />
<glyph unicode="&#xa3;" horiz-adv-x="999" d="M74 0l127 600h-97l46 215h96l35 162q53 245 188 364t371 119q94 0 185 -17t151 -46l-97 -232q-46 21 -126.5 35t-164.5 14q-133 0 -197 -51.5t-89 -169.5l-39 -178h321l-45 -215h-321l-78 -367h555l-49 -233h-772z" />
<glyph unicode="&#xa4;" horiz-adv-x="1103" d="M37 154l176 211q-27 128 23 362q49 224 122 344l-82 209l220 147l73 -190q71 35 176 35q107 0 162 -31l142 186l155 -145l-153 -199q27 -125 -21 -356q-51 -237 -133 -362l76 -211l-215 -154l-74 201q-76 -31 -172 -31q-105 0 -162 35l-174 -205zM411 575.5 q-5 -58.5 0.5 -96t26 -57.5t48.5 -27.5t73 -7.5q58 0 95 12t70.5 47.5t57 101t45.5 173.5q17 76 24.5 129.5t4.5 91t-12 59.5t-31 34t-47.5 16t-65.5 4q-47 0 -76.5 -6t-58.5 -24.5t-50 -56t-41 -97t-40 -150.5q-18 -87 -23 -145.5z" />
<glyph unicode="&#xa5;" horiz-adv-x="1046" d="M96 221l41 189h291l35 159h-291l39 189h209q-141 395 -260 669h280q113 -273 203 -544q222 274 418 544h262q-265 -352 -520 -669h196l-38 -189h-281l-35 -159h281l-41 -189h-281l-45 -221h-217l45 221h-291z" />
<glyph unicode="&#xa6;" horiz-adv-x="608" d="M2 -524l160 751h215l-160 -751h-215zM283 795l159 751h215l-159 -751h-215z" />
<glyph unicode="&#xa7;" horiz-adv-x="1019" d="M-33 -354l92 221q40 -22 117.5 -35.5t159.5 -13.5q132 0 199.5 41.5t87.5 136.5q16 79 -24 115t-181 53q-192 24 -270 116t-39 273q29 138 124 250q-38 74 -10 215q94 444 578 444q188 0 317 -61l-92 -221q-41 21 -118.5 35t-157.5 14q-132 0 -200.5 -42t-88.5 -138 q-16 -78 25 -113.5t182 -52.5q192 -26 270 -117.5t41 -273.5q-28 -128 -129 -244q42 -78 12 -221q-94 -443 -575 -443q-189 0 -320 62zM328 567q-16 -81 31 -118.5t206 -55.5q77 -5 137 -33q40 47 54 117q12 56 -2.5 88t-70 53.5t-165.5 32.5q-89 10 -137 33 q-36 -46 -53 -117z" />
<glyph unicode="&#xa8;" horiz-adv-x="755" d="M285.5 1177.5q-13.5 22.5 3.5 104.5q15 71 38 92t81 21t73.5 -21t1.5 -92q-18 -79 -43.5 -103t-83.5 -24q-57 0 -70.5 22.5zM627.5 1200.5q-5.5 28.5 9.5 81.5q14 71 38.5 92t82.5 21t73 -21t0 -92q-18 -80 -42.5 -103.5t-81.5 -23.5q-40 0 -57 8.5t-22.5 37z" />
<glyph unicode="&#xa9;" horiz-adv-x="1372" d="M130 421.5q3 129.5 40 305.5q46 215 112.5 359t161 226.5t206 116t263.5 33.5q121 0 206 -20.5t148.5 -71t91.5 -134t26 -210t-39 -299.5q-46 -219 -114 -366.5t-163 -233t-208 -121t-265 -35.5q-120 0 -205.5 22t-147.5 74.5t-89 138.5t-24 215.5zM312 366.5 q8 -63.5 29 -103t64 -63t97 -32t133 -8.5q96 0 162 13.5t124.5 48t99.5 99t76 162t66 242.5q25 120 34.5 205.5t1 147.5t-29.5 99.5t-65 59.5t-97.5 29.5t-134.5 7.5q-80 0 -136.5 -7.5t-110 -29.5t-90.5 -59.5t-71.5 -99.5t-61.5 -147.5t-52 -205.5q-26 -121 -36 -208 t-2 -150.5zM425.5 539q2.5 77 25.5 184q28 133 66.5 219.5t93.5 135t119.5 67t156.5 18.5q122 0 205 -39l-78 -184q-61 33 -158 33q-66 0 -103 -17t-66 -71.5t-52 -163.5q-16 -79 -18 -128t13.5 -77.5t43 -38.5t76.5 -10q96 0 172 37v-182q-107 -46 -224 -46q-73 0 -123 12 t-86 42t-51 81t-12.5 128z" />
<glyph unicode="&#xaa;" horiz-adv-x="712" d="M213 930q13 61 34 105t45 70t58 41t67 20t77 5q75 0 139 -20q22 96 -0.5 127t-112.5 31q-95 0 -182 -33l6 147q137 39 240 39q135 0 183.5 -61.5t14.5 -218.5l-94 -441q-59 -26 -138 -41.5t-144 -15.5q-140 0 -181.5 51t-11.5 195zM367 938q-14 -67 2.5 -92t79.5 -25 q55 0 118 25l39 182q-41 14 -110 14q-57 0 -86.5 -20t-42.5 -84z" />
<glyph unicode="&#xab;" horiz-adv-x="1095" d="M98 639l564 571l86 -149l-379 -418l198 -426l-147 -154zM545 639l563 571l86 -149l-379 -418l199 -426l-148 -154z" />
<glyph unicode="&#xac;" horiz-adv-x="849" d="M100 637l50 240h749l-184 -877h-215l135 637h-535z" />
<glyph unicode="&#xad;" horiz-adv-x="497" d="M61 455l52 241h403l-51 -241h-404z" />
<glyph unicode="&#xae;" horiz-adv-x="937" d="M170.5 751q3.5 86 28.5 203q31 148 75 246.5t106.5 155.5t137 80.5t176.5 23.5q83 0 140.5 -14.5t98.5 -49t58.5 -92.5t15 -144.5t-27.5 -205.5q-31 -146 -75 -244.5t-106.5 -157t-138.5 -83.5t-180 -25q-82 0 -139.5 15.5t-98 51.5t-57.5 95t-13.5 145zM312 805.5 q-4 -60.5 4.5 -101.5t35 -64t64.5 -32.5t96 -9.5q101 0 160.5 29t101 105.5t72.5 221.5q25 116 27.5 185.5t-22 108t-67 51t-120.5 12.5q-75 0 -121.5 -12.5t-87.5 -51t-68.5 -108t-52.5 -185.5q-18 -88 -22 -148.5zM352 684l117 545h266q59 0 78.5 -53.5t-0.5 -126.5 q-19 -90 -54.5 -127t-90.5 -37q62 -43 57 -201h-139q3 57 -9 106.5t-30 49.5h-33l-33 -156h-129zM543 979h90q34 0 47 61q11 58 -23 58h-90z" />
<glyph unicode="&#xaf;" horiz-adv-x="849" d="M369 1180l39 184h454l-39 -184h-454z" />
<glyph unicode="&#xb0;" horiz-adv-x="710" d="M156 778q3 91 32 228q38 180 90.5 279.5t123.5 138t182 38.5q66 0 109.5 -13t73.5 -43.5t40.5 -83t5 -130t-28.5 -186.5q-57 -269 -146 -371.5t-251 -102.5q-82 0 -132 22.5t-76 77.5t-23 146zM343.5 770.5q12.5 -55.5 82.5 -55.5q69 0 104.5 56.5t73.5 232.5 q26 121 27.5 180t-17.5 78.5t-67 19.5t-76.5 -19.5t-53.5 -79t-50 -179.5q-36 -178 -23.5 -233.5z" />
<glyph unicode="&#xb1;" horiz-adv-x="952" d="M4 39l51 242h797l-51 -242h-797zM160 778l51 242h301l80 377h194l-79 -377h301l-52 -242h-301l-80 -377h-194l80 377h-301z" />
<glyph unicode="&#xb2;" horiz-adv-x="702" d="M96 561q36 135 83 222t103.5 137.5t143.5 91.5q81 36 123 71t53 88t-14.5 74t-100.5 21q-45 0 -104.5 -10.5t-93.5 -24.5l12 190q103 39 240 39q155 0 214 -62.5t27 -209.5q-47 -214 -207 -279q-130 -52 -165 -75q-53 -35 -72 -91h352l-39 -182h-555z" />
<glyph unicode="&#xb3;" horiz-adv-x="694" d="M109 571l63 174q72 -28 176 -28q87 0 121.5 22t48.5 84q13 65 -8.5 86t-93.5 21h-86l37 170h82q67 0 94 20t39 76q11 52 -11 69t-104 17q-106 0 -182 -29l10 174q125 33 235 33q155 0 213 -52t33 -173q-22 -101 -66.5 -152.5t-134.5 -60.5q94 -6 120 -62t3 -167 q-30 -138 -118.5 -197t-245.5 -59q-121 0 -225 34z" />
<glyph unicode="&#xb4;" horiz-adv-x="788" d="M317 1163l256 264h218l-295 -264h-179z" />
<glyph unicode="&#xb6;" horiz-adv-x="1103" d="M144.5 795q3.5 68 19.5 143q103 489 420 489h596l-303 -1427h-191l98 471h-141l-98 -471h-193l101 471h-76q-64 0 -111.5 25t-74.5 68.5t-38.5 103t-8 127.5z" />
<glyph unicode="&#xb7;" horiz-adv-x="485" d="M141.5 533q0.5 33 12.5 88q21 96 55.5 125.5t112.5 29.5q85 0 107 -29t1 -126q-23 -106 -58.5 -139t-119.5 -33q-40 0 -62.5 6.5t-35.5 25.5t-12.5 52z" />
<glyph unicode="&#xb8;" horiz-adv-x="1050" d="M252 -383l59 111q36 -25 111 -25q39 0 55.5 11t22.5 42q9 38 -21 49t-121 5l101 190h80l-19 -86q97 0 131.5 -35.5t14.5 -124.5q-20 -96 -78 -133t-182 -37q-104 0 -154 33z" />
<glyph unicode="&#xb9;" horiz-adv-x="618" d="M254 1292l412 193l-195 -916h-170l133 627l-174 -84z" />
<glyph unicode="&#xba;" horiz-adv-x="753" d="M233 1065q45 218 135 307.5t234 89.5q73 0 120 -19.5t76.5 -65.5t29.5 -122t-21 -190q-46 -218 -137 -309.5t-238 -91.5q-144 0 -194.5 91.5t-4.5 309.5zM378.5 871q15.5 -46 88.5 -46q75 0 112.5 47.5t67.5 190.5q16 77 19.5 123t-7.5 71.5t-32 34t-60 8.5 q-51 0 -79.5 -17t-50.5 -67.5t-44 -152.5q-30 -146 -14.5 -192z" />
<glyph unicode="&#xbb;" horiz-adv-x="1095" d="M8 215l379 418l-199 428l146 151l325 -573l-565 -573zM455 215l379 418l-199 428l147 151l324 -573l-565 -573z" />
<glyph unicode="&#xbc;" horiz-adv-x="1409" d="M96 0l1008 1427h201l-1008 -1427h-201zM227 1292l414 193l-195 -916h-172l134 627l-172 -84zM659 201l19 88q198 290 446 596h224l-105 -498h94l-41 -186h-94l-41 -201h-168l41 201h-375zM895 387h180l70 330q-145 -167 -250 -330z" />
<glyph unicode="&#xbd;" horiz-adv-x="1409" d="M90 0l1008 1427h200l-1007 -1427h-201zM221 1292l414 193l-195 -916h-172l133 627l-172 -84zM725 0q53 198 126 294t202 157q82 36 124.5 71t53.5 88t-15 74t-102 21q-44 0 -104 -10.5t-92 -24.5l12 190q103 39 239 39q155 0 214 -62.5t28 -209.5q-47 -213 -209 -279 q-130 -52 -165 -75q-53 -35 -72 -91h352l-37 -182h-555z" />
<glyph unicode="&#xbe;" horiz-adv-x="1409" d="M78 571l63 174q72 -28 176 -28q87 0 121.5 22t48.5 84q13 65 -8.5 86t-93.5 21h-86l37 170h82q67 0 94 20t39 76q11 52 -11 69t-104 17q-106 0 -182 -29l10 174q125 33 236 33q155 0 212.5 -52t32.5 -173q-22 -101 -66 -152.5t-134 -60.5q94 -6 120 -62t3 -167 q-30 -138 -118.5 -197t-246.5 -59q-121 0 -225 34zM199 0l1009 1427h201l-1010 -1427h-200zM684 201l18 88q211 309 447 596h221l-104 -498h96l-41 -186h-96l-41 -201h-168l41 201h-373zM918 387h180l69 330q-136 -161 -249 -330z" />
<glyph unicode="&#xbf;" horiz-adv-x="808" d="M-35 16q24 112 81.5 218t133 195t189.5 196h213q-166 -172 -251.5 -305.5t-119.5 -292.5q-20 -90 15.5 -134.5t146.5 -44.5q146 0 243 43l-6 -237q-59 -21 -150 -36t-159 -15q-224 0 -302 101.5t-34 311.5zM408 915q21 99 53.5 128.5t109.5 29.5q74 0 94 -30t-1 -128 q-19 -90 -50.5 -116.5t-105.5 -26.5q-78 0 -99 26t-1 117z" />
<glyph unicode="&#xc0;" horiz-adv-x="1118" d="M-96 0q148 319 346 713t371 714h337q14 -348 44 -746t65 -681h-240q-19 165 -34 356h-500q-123 -264 -164 -356h-225zM401 588h379q-22 330 -28 610h-45q-183 -351 -306 -610zM567 1794h226l163 -264h-186z" />
<glyph unicode="&#xc1;" horiz-adv-x="1116" d="M-96 0q148 319 346 713t371 714h337q14 -348 44 -746t65 -681h-240q-19 165 -34 356h-500q-123 -264 -164 -356h-225zM401 588h379q-22 330 -28 610h-45q-183 -351 -306 -610zM649 1530l269 264h223l-316 -264h-176z" />
<glyph unicode="&#xc2;" horiz-adv-x="1118" d="M-96 0q148 319 346 713t371 714h337q14 -348 44 -746t65 -681h-240q-19 165 -34 356h-500q-123 -264 -164 -356h-225zM401 588h379q-22 330 -28 610h-45q-183 -351 -306 -610zM502 1530l256 264h200l150 -264h-190l-84 160l-150 -160h-182z" />
<glyph unicode="&#xc3;" horiz-adv-x="1118" d="M-96 0q148 319 346 713t371 714h337q14 -348 44 -746t65 -681h-240q-19 165 -34 356h-500q-123 -264 -164 -356h-225zM401 588h379q-22 330 -28 610h-45q-183 -351 -306 -610zM514 1628q106 162 209 162q38 0 71.5 -16.5t53 -37t45.5 -37t51 -16.5q29 0 54.5 25.5 t58.5 91.5l80 -102q-44 -84 -106.5 -137.5t-131.5 -53.5q-33 0 -63.5 17.5t-50.5 38t-46.5 38t-52.5 17.5t-50 -23t-54 -79z" />
<glyph unicode="&#xc4;" horiz-adv-x="1116" d="M-96 0q148 319 346 713t371 714h337q14 -348 44 -746t65 -681h-240q-19 165 -34 356h-500q-123 -264 -164 -356h-225zM401 588h379q-22 330 -28 610h-45q-183 -351 -306 -610zM552.5 1553q-14.5 23 0.5 102q14 71 39.5 92.5t83.5 21.5q57 0 72 -21t0 -93 q-17 -78 -41.5 -101.5t-81.5 -23.5q-58 0 -72.5 23zM899.5 1553q-14.5 23 1.5 102q15 71 39.5 92.5t83.5 21.5q57 0 72 -21t0 -93q-17 -78 -41.5 -101.5t-81.5 -23.5q-59 0 -73.5 23z" />
<glyph unicode="&#xc5;" horiz-adv-x="1118" d="M-96 0q148 319 346 713t371 714h337q14 -348 44 -746t65 -681h-240q-19 165 -34 356h-500q-123 -264 -164 -356h-225zM401 588h379q-22 330 -28 610h-45q-183 -351 -306 -610zM631 1622q23 109 78.5 155t160.5 46q100 0 137.5 -46.5t14.5 -154.5t-80 -154.5t-158 -46.5 t-138.5 46.5t-14.5 154.5zM745 1620q-10 -47 2.5 -67.5t59.5 -20.5q48 0 69.5 20.5t32.5 67.5q10 49 -2 68.5t-61 19.5t-70 -20.5t-31 -67.5z" />
<glyph unicode="&#xc6;" horiz-adv-x="1589" d="M-317 0q561 763 1103 1427h979l-51 -233h-612l-70 -330h363l-49 -229h-363l-84 -402h612l-49 -233h-827l74 356h-510q-98 -132 -258 -356h-258zM371 588h389l129 610h-47q-259 -329 -471 -610z" />
<glyph unicode="&#xc7;" horiz-adv-x="970" d="M115.5 425q5.5 128 42.5 302q47 217 109 361t149 226t189.5 115t244.5 33q78 0 166 -15t151 -38l-100 -238q-38 20 -104.5 33t-126.5 13q-68 0 -114 -6t-92 -24.5t-77.5 -51.5t-62 -88t-54.5 -133.5t-47 -188.5q-28 -132 -34.5 -221t4.5 -146t48 -87t86.5 -41t129.5 -11 q60 0 132.5 12.5t118.5 32.5l-2 -241q-161 -52 -337 -52q-112 0 -190.5 23t-133.5 75.5t-78 140t-17.5 215.5zM262 -383l60 111q39 -25 112 -25q39 0 55.5 11t22.5 42q9 38 -21 49t-122 5l100 190h80l-19 -86q99 0 133.5 -35.5t14.5 -124.5q-20 -96 -78.5 -133t-183.5 -37 q-101 0 -154 33z" />
<glyph unicode="&#xc8;" horiz-adv-x="1015" d="M61 0l304 1427h829l-51 -233h-613l-69 -330h436l-49 -231h-436l-84 -400h612l-49 -233h-830zM627 1794h225l164 -264h-187z" />
<glyph unicode="&#xc9;" horiz-adv-x="1015" d="M61 0l304 1427h829l-51 -233h-613l-69 -330h436l-49 -231h-436l-84 -400h612l-49 -233h-830zM653 1530l269 264h225l-316 -264h-178z" />
<glyph unicode="&#xca;" horiz-adv-x="1015" d="M61 0l304 1427h829l-51 -233h-613l-69 -330h436l-49 -231h-436l-84 -400h612l-49 -233h-830zM512 1530l256 264h201l149 -264h-190l-84 160l-150 -160h-182z" />
<glyph unicode="&#xcb;" horiz-adv-x="1015" d="M61 0l304 1427h829l-51 -233h-613l-69 -330h436l-49 -231h-436l-84 -400h612l-49 -233h-830zM564.5 1553q-14.5 23 0.5 102q14 71 39.5 92.5t83.5 21.5q57 0 72 -21t0 -93q-17 -78 -41.5 -101.5t-81.5 -23.5q-58 0 -72.5 23zM911.5 1553q-14.5 23 1.5 102 q15 71 39.5 92.5t83.5 21.5q57 0 72 -21t0 -93q-17 -78 -41.5 -101.5t-81.5 -23.5q-59 0 -73.5 23z" />
<glyph unicode="&#xcc;" horiz-adv-x="503" d="M61 0l304 1427h217l-303 -1427h-218zM250 1794h223l164 -264h-186z" />
<glyph unicode="&#xcd;" horiz-adv-x="503" d="M61 0l304 1427h217l-303 -1427h-218zM356 1530l269 264h223l-316 -264h-176z" />
<glyph unicode="&#xce;" horiz-adv-x="503" d="M61 0l304 1427h217l-303 -1427h-218zM193 1530l256 264h200l150 -264h-191l-84 160l-149 -160h-182z" />
<glyph unicode="&#xcf;" horiz-adv-x="503" d="M61 0l304 1427h217l-303 -1427h-218zM249.5 1553q-14.5 23 0.5 102q14 71 39.5 92.5t83.5 21.5q57 0 71.5 -21t-0.5 -93q-17 -78 -41 -101.5t-81 -23.5q-58 0 -72.5 23zM597.5 1553q-14.5 23 0.5 102q14 71 39.5 92.5t83.5 21.5t73.5 -21.5t0.5 -92.5q-17 -77 -42.5 -101 t-82.5 -24q-58 0 -72.5 23z" />
<glyph unicode="&#xd0;" horiz-adv-x="1204" d="M61 0l136 637h-86l41 188h84l129 602h436q113 0 191.5 -20.5t135 -69t80.5 -129.5t20 -202t-40 -287q-35 -165 -82.5 -287t-106.5 -205t-136 -133.5t-165 -72t-200 -21.5h-437zM328 233h196q80 0 135 12t101.5 42t80 86t61.5 138.5t54 205.5q17 80 26 141t10.5 110.5 t-3 83.5t-19.5 59.5t-35 41t-52.5 24.5t-67.5 12t-86 3h-199l-77 -367h260l-39 -188h-260z" />
<glyph unicode="&#xd1;" horiz-adv-x="1267" d="M61 0l304 1427h282q143 -487 262 -1030l219 1030h215l-303 -1427h-264q-130 577 -276 1075l-228 -1075h-211zM600 1628q106 162 209 162q38 0 71.5 -16.5t53 -37t45.5 -37t51 -16.5q29 0 54.5 25.5t58.5 91.5l78 -102q-42 -84 -105 -137.5t-133 -53.5q-32 0 -62.5 17.5 t-50 38t-46 38t-52.5 17.5t-50 -23t-54 -79z" />
<glyph unicode="&#xd2;" horiz-adv-x="1259" d="M115.5 422q5.5 129 42.5 305q46 215 109.5 359t152 226.5t192.5 116t246 33.5q113 0 191.5 -21t135.5 -71t80.5 -134t19 -210t-41.5 -299q-46 -219 -110.5 -366.5t-152.5 -233t-192.5 -121t-244.5 -35.5q-113 0 -192.5 22t-136 74t-80.5 139t-18.5 216zM345.5 400.5 q2.5 -58.5 16.5 -93t46.5 -56t76 -29t109.5 -7.5t112 7.5t87.5 29t70 56t56 93t49 135t45.5 187.5t34.5 187t7.5 133.5t-17 90t-47.5 52.5t-75.5 26.5t-109 6.5q-81 0 -132.5 -10.5t-96.5 -39t-76 -86t-58 -142.5t-55 -218q-24 -111 -35 -187.5t-8.5 -135zM645 1794h225 l164 -264h-186z" />
<glyph unicode="&#xd3;" horiz-adv-x="1259" d="M115.5 422q5.5 129 42.5 305q46 215 109.5 359t152 226.5t192.5 116t246 33.5q113 0 191.5 -21t135.5 -71t80.5 -134t19 -210t-41.5 -299q-46 -219 -110.5 -366.5t-152.5 -233t-192.5 -121t-244.5 -35.5q-113 0 -192.5 22t-136 74t-80.5 139t-18.5 216zM345.5 400.5 q2.5 -58.5 16.5 -93t46.5 -56t76 -29t109.5 -7.5t112 7.5t87.5 29t70 56t56 93t49 135t45.5 187.5t34.5 187t7.5 133.5t-17 90t-47.5 52.5t-75.5 26.5t-109 6.5q-81 0 -132.5 -10.5t-96.5 -39t-76 -86t-58 -142.5t-55 -218q-24 -111 -35 -187.5t-8.5 -135zM653 1530l269 264 h225l-316 -264h-178z" />
<glyph unicode="&#xd4;" horiz-adv-x="1259" d="M115.5 422q5.5 129 42.5 305q46 215 109.5 359t152 226.5t192.5 116t246 33.5q113 0 191.5 -21t135.5 -71t80.5 -134t19 -210t-41.5 -299q-46 -219 -110.5 -366.5t-152.5 -233t-192.5 -121t-244.5 -35.5q-113 0 -192.5 22t-136 74t-80.5 139t-18.5 216zM345.5 400.5 q2.5 -58.5 16.5 -93t46.5 -56t76 -29t109.5 -7.5t112 7.5t87.5 29t70 56t56 93t49 135t45.5 187.5t34.5 187t7.5 133.5t-17 90t-47.5 52.5t-75.5 26.5t-109 6.5q-81 0 -132.5 -10.5t-96.5 -39t-76 -86t-58 -142.5t-55 -218q-24 -111 -35 -187.5t-8.5 -135zM567 1530l256 264 h201l150 -264h-191l-84 160l-147 -160h-185z" />
<glyph unicode="&#xd5;" horiz-adv-x="1259" d="M115.5 422q5.5 129 42.5 305q46 215 109.5 359t152 226.5t192.5 116t246 33.5q113 0 191.5 -21t135.5 -71t80.5 -134t19 -210t-41.5 -299q-46 -219 -110.5 -366.5t-152.5 -233t-192.5 -121t-244.5 -35.5q-113 0 -192.5 22t-136 74t-80.5 139t-18.5 216zM345.5 400.5 q2.5 -58.5 16.5 -93t46.5 -56t76 -29t109.5 -7.5t112 7.5t87.5 29t70 56t56 93t49 135t45.5 187.5t34.5 187t7.5 133.5t-17 90t-47.5 52.5t-75.5 26.5t-109 6.5q-81 0 -132.5 -10.5t-96.5 -39t-76 -86t-58 -142.5t-55 -218q-24 -111 -35 -187.5t-8.5 -135zM586 1628 q54 79 104.5 120.5t106.5 41.5q31 0 57.5 -11t46 -27t37 -31.5t37.5 -26.5t41 -11q29 0 54 25.5t58 91.5l80 -102q-42 -84 -105 -137.5t-132 -53.5q-32 0 -62.5 17.5t-50.5 38t-46.5 38t-51.5 17.5q-26 0 -50.5 -23t-54.5 -79z" />
<glyph unicode="&#xd6;" horiz-adv-x="1259" d="M115.5 422q5.5 129 42.5 305q46 215 109.5 359t152 226.5t192.5 116t246 33.5q113 0 191.5 -21t135.5 -71t80.5 -134t19 -210t-41.5 -299q-46 -219 -110.5 -366.5t-152.5 -233t-192.5 -121t-244.5 -35.5q-113 0 -192.5 22t-136 74t-80.5 139t-18.5 216zM345.5 400.5 q2.5 -58.5 16.5 -93t46.5 -56t76 -29t109.5 -7.5t112 7.5t87.5 29t70 56t56 93t49 135t45.5 187.5t34.5 187t7.5 133.5t-17 90t-47.5 52.5t-75.5 26.5t-109 6.5q-81 0 -132.5 -10.5t-96.5 -39t-76 -86t-58 -142.5t-55 -218q-24 -111 -35 -187.5t-8.5 -135zM622.5 1553 q-14.5 23 0.5 102q14 71 39 92.5t83 21.5q57 0 72 -21t0 -93q-17 -78 -41.5 -101.5t-81.5 -23.5t-71.5 23zM971 1553q-14 23 2 102q15 71 39.5 92.5t83.5 21.5q57 0 71.5 -21t-0.5 -93q-17 -78 -41.5 -101.5t-81.5 -23.5q-59 0 -73 23z" />
<glyph unicode="&#xd7;" horiz-adv-x="954" d="M145 477l269 266l-158 265l174 172l156 -267l270 269l102 -174l-270 -267l158 -266l-176 -170l-156 266l-268 -266z" />
<glyph unicode="&#xd8;" horiz-adv-x="1261" d="M-53 0l186 207q-45 171 27 520q46 215 109.5 359t152 226.5t192.5 116t246 33.5q228 0 324 -96l53 61h221l-188 -206q45 -164 -25 -494q-37 -176 -86.5 -305t-110 -216t-138.5 -139t-166.5 -74t-200.5 -22q-222 0 -320 92l-57 -63h-219zM354 446l645 719q-49 54 -192 54 q-93 0 -151.5 -15.5t-108 -62t-82.5 -129.5t-62 -221q-46 -203 -49 -345zM410 268q45 -53 184 -53q75 0 127 11t96.5 38t76.5 78t59 126t51 187q42 207 45 322z" />
<glyph unicode="&#xd9;" horiz-adv-x="1216" d="M116.5 268q0.5 72 20.5 164l213 995h217l-202 -954q-31 -142 14.5 -198t191.5 -56q145 0 217 54t103 200l203 954h215l-211 -995q-24 -111 -63 -192t-88.5 -132.5t-117.5 -82t-141 -42.5t-168 -12q-78 0 -137.5 8t-111.5 28t-84.5 54t-51.5 84.5t-18.5 122.5zM651 1794 h223l164 -264h-186z" />
<glyph unicode="&#xda;" horiz-adv-x="1216" d="M116.5 268q0.5 72 20.5 164l213 995h217l-202 -954q-31 -142 14.5 -198t191.5 -56q145 0 217 54t103 200l203 954h215l-211 -995q-24 -111 -63 -192t-88.5 -132.5t-117.5 -82t-141 -42.5t-168 -12q-78 0 -137.5 8t-111.5 28t-84.5 54t-51.5 84.5t-18.5 122.5zM676 1530 l268 264h223l-315 -264h-176z" />
<glyph unicode="&#xdb;" horiz-adv-x="1216" d="M116.5 268q0.5 72 20.5 164l213 995h217l-202 -954q-31 -142 14.5 -198t191.5 -56q145 0 217 54t103 200l203 954h215l-211 -995q-24 -111 -63 -192t-88.5 -132.5t-117.5 -82t-141 -42.5t-168 -12q-78 0 -137.5 8t-111.5 28t-84.5 54t-51.5 84.5t-18.5 122.5zM545 1530 l256 264h200l150 -264h-190l-84 160l-150 -160h-182z" />
<glyph unicode="&#xdc;" horiz-adv-x="1216" d="M116.5 268q0.5 72 20.5 164l213 995h217l-202 -954q-31 -142 14.5 -198t191.5 -56q145 0 217 54t103 200l203 954h215l-211 -995q-24 -111 -63 -192t-88.5 -132.5t-117.5 -82t-141 -42.5t-168 -12q-78 0 -137.5 8t-111.5 28t-84.5 54t-51.5 84.5t-18.5 122.5zM599.5 1553 q-14.5 23 0.5 102q14 71 39.5 92.5t83.5 21.5q57 0 72 -21t0 -93q-17 -78 -41.5 -101.5t-81.5 -23.5q-58 0 -72.5 23zM948.5 1553q-14.5 23 1.5 102q15 71 39.5 92.5t83.5 21.5q57 0 72 -21t0 -93q-17 -78 -41.5 -101.5t-81.5 -23.5q-59 0 -73.5 23z" />
<glyph unicode="&#xdd;" horiz-adv-x="1046" d="M160 1427h282q103 -248 201 -544q251 311 418 544h262q-311 -416 -635 -811l-129 -616h-215l129 614q-175 500 -313 813zM612 1530l269 264h225l-315 -264h-179z" />
<glyph unicode="&#xde;" horiz-adv-x="1101" d="M61 0l304 1427h217l-45 -210h376q319 0 215 -490q-28 -129 -81 -231t-140 -169t-192 -67h-383l-53 -260h-218zM381 485h317q68 0 117.5 62t75.5 182q54 256 -82 256h-322z" />
<glyph unicode="&#xdf;" horiz-adv-x="1071" d="M31 0l229 1079q80 383 498 383q226 0 310.5 -86t43.5 -278q-16 -76 -37 -130.5t-56 -101.5t-89.5 -74.5t-130.5 -35.5q103 -6 154 -54t53.5 -128t-19.5 -189q-49 -229 -174 -321.5t-373 -92.5q-56 0 -112 6l69 222q61 -9 97 -9q132 0 189.5 49.5t82.5 172.5 q27 129 -9 180t-151 51h-61l45 211h57q110 0 162.5 48t75.5 153q22 101 -16 140.5t-158 39.5q-105 0 -170 -50t-84 -141l-221 -1044h-205z" />
<glyph unicode="&#xe0;" horiz-adv-x="962" d="M78 256q0 111 33 260q44 212 113.5 335t165.5 172.5t239 49.5q92 0 190.5 -21.5t157.5 -56.5l-146 -676q-12 -66 -12 -92q0 -77 45 -139l-180 -125q-31 14 -54 52.5t-28 78.5q-45 -54 -113 -86.5t-143 -32.5q-135 0 -201.5 63.5t-66.5 217.5zM295 334q0 -77 33.5 -108 t109.5 -31q70 0 125.5 33.5t67.5 90.5l108 510q-65 35 -153 35q-77 0 -120.5 -24.5t-77.5 -98t-66 -221.5q-27 -138 -27 -186zM410 1427h215l143 -264h-180z" />
<glyph unicode="&#xe1;" horiz-adv-x="962" d="M78 256q0 111 33 260q44 212 113.5 335t165.5 172.5t239 49.5q92 0 190.5 -21.5t157.5 -56.5l-146 -676q-12 -66 -12 -92q0 -77 45 -139l-180 -125q-31 14 -54 52.5t-28 78.5q-45 -54 -113 -86.5t-143 -32.5q-135 0 -201.5 63.5t-66.5 217.5zM295 334q0 -77 33.5 -108 t109.5 -31q70 0 125.5 33.5t67.5 90.5l108 510q-65 35 -153 35q-77 0 -120.5 -24.5t-77.5 -98t-66 -221.5q-27 -138 -27 -186zM506 1163l256 264h217l-295 -264h-178z" />
<glyph unicode="&#xe2;" horiz-adv-x="962" d="M78 256q0 111 33 260q44 212 113.5 335t165.5 172.5t239 49.5q92 0 190.5 -21.5t157.5 -56.5l-146 -676q-12 -66 -12 -92q0 -77 45 -139l-180 -125q-31 14 -54 52.5t-28 78.5q-45 -54 -113 -86.5t-143 -32.5q-135 0 -201.5 63.5t-66.5 217.5zM295 334q0 -77 33.5 -108 t109.5 -31q70 0 125.5 33.5t67.5 90.5l108 510q-65 35 -153 35q-77 0 -120.5 -24.5t-77.5 -98t-66 -221.5q-27 -138 -27 -186zM354 1163l258 264h201l148 -264h-191l-84 156l-145 -156h-187z" />
<glyph unicode="&#xe3;" horiz-adv-x="962" d="M78 256q0 111 33 260q44 212 113.5 335t165.5 172.5t239 49.5q92 0 190.5 -21.5t157.5 -56.5l-146 -676q-12 -66 -12 -92q0 -77 45 -139l-180 -125q-31 14 -54 52.5t-28 78.5q-45 -54 -113 -86.5t-143 -32.5q-135 0 -201.5 63.5t-66.5 217.5zM295 334q0 -77 33.5 -108 t109.5 -31q70 0 125.5 33.5t67.5 90.5l108 510q-65 35 -153 35q-77 0 -120.5 -24.5t-77.5 -98t-66 -221.5q-27 -138 -27 -186zM332 1262q55 82 106 123.5t109 41.5q37 0 68 -17t49 -37t42 -37t50 -17q29 0 53 25t59 94l80 -103q-43 -88 -102.5 -139t-130.5 -51 q-33 0 -62.5 17t-48 37t-44.5 37t-52 17q-54 0 -107 -104z" />
<glyph unicode="&#xe4;" horiz-adv-x="962" d="M78 256q0 111 33 260q44 212 113.5 335t165.5 172.5t239 49.5q92 0 190.5 -21.5t157.5 -56.5l-146 -676q-12 -66 -12 -92q0 -77 45 -139l-180 -125q-31 14 -54 52.5t-28 78.5q-45 -54 -113 -86.5t-143 -32.5q-135 0 -201.5 63.5t-66.5 217.5zM295 334q0 -77 33.5 -108 t109.5 -31q70 0 125.5 33.5t67.5 90.5l108 510q-65 35 -153 35q-77 0 -120.5 -24.5t-77.5 -98t-66 -221.5q-27 -138 -27 -186zM387.5 1200.5q-5.5 28.5 9.5 81.5q14 71 38.5 92t82.5 21t73.5 -21t0.5 -92q-18 -80 -43 -103.5t-82 -23.5q-40 0 -57 8.5t-22.5 37z M744.5 1177.5q-13.5 22.5 3.5 104.5q15 72 38 92.5t82 20.5q57 0 72.5 -21t1.5 -92q-18 -79 -43.5 -103t-81.5 -24q-59 0 -72.5 22.5z" />
<glyph unicode="&#xe5;" horiz-adv-x="962" d="M78 256q0 111 33 260q44 212 113.5 335t165.5 172.5t239 49.5q92 0 190.5 -21.5t157.5 -56.5l-146 -676q-12 -66 -12 -92q0 -77 45 -139l-180 -125q-31 14 -54 52.5t-28 78.5q-45 -54 -113 -86.5t-143 -32.5q-135 0 -201.5 63.5t-66.5 217.5zM295 334q0 -77 33.5 -108 t109.5 -31q70 0 125.5 33.5t67.5 90.5l108 510q-65 35 -153 35q-77 0 -120.5 -24.5t-77.5 -98t-66 -221.5q-27 -138 -27 -186zM461 1317q23 109 78.5 155t160.5 46q100 0 137.5 -46.5t14.5 -154.5q-23 -110 -80 -155.5t-158 -45.5t-138.5 45.5t-14.5 155.5zM573 1313 q-10 -47 3.5 -67.5t60.5 -20.5q48 0 69 21t31 67q10 49 -2 68.5t-59 19.5q-49 0 -71.5 -20t-31.5 -68z" />
<glyph unicode="&#xe6;" horiz-adv-x="1421" d="M66 319q18 86 47 148.5t63.5 100t82.5 59t95.5 28.5t110.5 7q91 0 201 -29q31 137 0.5 180t-162.5 43q-147 0 -262 -47l8 209q174 55 344 55q108 0 167.5 -28.5t82.5 -96.5q53 66 123.5 95.5t167.5 29.5q69 0 117.5 -10.5t86.5 -37t57 -71.5t23.5 -114t-9 -163.5 t-44.5 -221.5h-539q-13 -67 -14 -114t9 -77t33.5 -47.5t54.5 -24t77 -6.5t118.5 12.5t123.5 30.5l-10 -200q-66 -26 -151.5 -42t-149.5 -16q-160 0 -228 74q-65 -35 -164 -54.5t-182 -19.5q-201 0 -261.5 73t-16.5 275zM281 199q22 -33 120 -33q47 0 108.5 14t96.5 35 q-12 99 19 246q-61 18 -156 18q-47 0 -74 -4.5t-50.5 -20t-37 -45t-24.5 -79.5q-24 -98 -2 -131zM870 649h351q10 69 12 112.5t-15 68t-43 33.5t-71 9q-95 0 -146 -46.5t-88 -176.5z" />
<glyph unicode="&#xe7;" horiz-adv-x="772" d="M85 304.5q1 95.5 28 221.5q33 156 84 264.5t120 169.5t147.5 87t178.5 26q61 0 131.5 -14t112.5 -35l-94 -217q-81 45 -183 45q-60 0 -99 -11t-76 -45t-63.5 -100.5t-49.5 -173.5q-22 -102 -23.5 -167.5t20 -100.5t56.5 -48t94 -13q102 0 205 49v-217q-52 -24 -127.5 -39 t-136.5 -15q-79 0 -137.5 16.5t-102.5 56t-65 102.5t-20 158.5zM137 -383l60 111q39 -25 112 -25q39 0 55.5 11t22.5 42q9 38 -21 49t-122 5l100 190h80l-18 -86q99 0 133 -35.5t14 -124.5q-20 -96 -78.5 -133t-183.5 -37q-101 0 -154 33z" />
<glyph unicode="&#xe8;" horiz-adv-x="903" d="M86 304q1 96 27 222q32 154 81 261.5t114 169.5t140 89t170 27q83 0 137 -16t92 -56t49.5 -110t0.5 -177.5t-47 -258.5h-539q-13 -67 -14 -114t8.5 -77t33 -47.5t54.5 -24t78 -6.5q45 0 118.5 12.5t123.5 30.5l-11 -200q-66 -26 -151.5 -42t-149.5 -16q-75 0 -131.5 16.5 t-100 56t-64 102t-19.5 158.5zM354 649h351q10 56 11.5 94t-5 64t-23.5 40t-41 19.5t-61 5.5q-96 0 -145.5 -47.5t-86.5 -175.5zM444 1427h218l141 -264h-180z" />
<glyph unicode="&#xe9;" horiz-adv-x="903" d="M86 304q1 96 27 222q32 154 81 261.5t114 169.5t140 89t170 27q83 0 137 -16t92 -56t49.5 -110t0.5 -177.5t-47 -258.5h-539q-13 -67 -14 -114t8.5 -77t33 -47.5t54.5 -24t78 -6.5q45 0 118.5 12.5t123.5 30.5l-11 -200q-66 -26 -151.5 -42t-149.5 -16q-75 0 -131.5 16.5 t-100 56t-64 102t-19.5 158.5zM354 649h351q10 56 11.5 94t-5 64t-23.5 40t-41 19.5t-61 5.5q-96 0 -145.5 -47.5t-86.5 -175.5zM494 1163l256 264h217l-295 -264h-178z" />
<glyph unicode="&#xea;" horiz-adv-x="903" d="M86 304q1 96 27 222q32 154 81 261.5t114 169.5t140 89t170 27q83 0 137 -16t92 -56t49.5 -110t0.5 -177.5t-47 -258.5h-539q-13 -67 -14 -114t8.5 -77t33 -47.5t54.5 -24t78 -6.5q45 0 118.5 12.5t123.5 30.5l-11 -200q-66 -26 -151.5 -42t-149.5 -16q-75 0 -131.5 16.5 t-100 56t-64 102t-19.5 158.5zM346 1163l258 264h199l149 -264h-190l-84 156l-146 -156h-186zM354 649h351q10 56 11.5 94t-5 64t-23.5 40t-41 19.5t-61 5.5q-96 0 -145.5 -47.5t-86.5 -175.5z" />
<glyph unicode="&#xeb;" horiz-adv-x="903" d="M86 304q1 96 27 222q32 154 81 261.5t114 169.5t140 89t170 27q83 0 137 -16t92 -56t49.5 -110t0.5 -177.5t-47 -258.5h-539q-13 -67 -14 -114t8.5 -77t33 -47.5t54.5 -24t78 -6.5q45 0 118.5 12.5t123.5 30.5l-11 -200q-66 -26 -151.5 -42t-149.5 -16q-75 0 -131.5 16.5 t-100 56t-64 102t-19.5 158.5zM354 649h351q10 56 11.5 94t-5 64t-23.5 40t-41 19.5t-61 5.5q-96 0 -145.5 -47.5t-86.5 -175.5zM395.5 1177.5q-13.5 22.5 3.5 104.5q15 71 38 92t81 21t74 -21t2 -92q-18 -79 -43.5 -103t-83.5 -24t-71.5 22.5zM745 1177.5q-14 22.5 3 104.5 q15 71 38.5 92t81.5 21t73.5 -21t0.5 -92q-18 -80 -43 -103.5t-82 -23.5q-58 0 -72 22.5z" />
<glyph unicode="&#xec;" horiz-adv-x="428" d="M31 0l221 1042h203l-222 -1042h-202zM156 1427h215l143 -264h-180z" />
<glyph unicode="&#xed;" horiz-adv-x="428" d="M31 0l221 1042h203l-222 -1042h-202zM236 1163l256 264h217l-295 -264h-178z" />
<glyph unicode="&#xee;" horiz-adv-x="430" d="M31 0l221 1042h203l-222 -1042h-202zM78 1163l256 264h201l149 -264h-192l-84 156l-146 -156h-184z" />
<glyph unicode="&#xef;" horiz-adv-x="428" d="M31 0l221 1042h203l-222 -1042h-202zM123.5 1200.5q-5.5 28.5 9.5 81.5q14 71 38.5 92t82.5 21t74 -21t2 -92q-18 -79 -43.5 -103t-83.5 -24q-40 0 -57 8.5t-22.5 37zM480 1177.5q-14 22.5 3 104.5q15 71 38.5 92t82.5 21q57 0 72.5 -21t1.5 -92q-18 -79 -43.5 -103 t-81.5 -24q-59 0 -73 22.5z" />
<glyph unicode="&#xf0;" horiz-adv-x="1026" d="M96 446q51 241 162.5 336t349.5 95q74 0 142 -11q-20 104 -68 209l-137 -92l-53 133l135 90q-26 50 -125 221h268q53 -85 57 -92l117 78l49 -133l-104 -72q157 -359 74 -749q-32 -149 -70.5 -240.5t-102 -150t-150 -81t-218.5 -22.5q-237 0 -310.5 106.5t-15.5 374.5z M319 434q-28 -126 2.5 -176.5t153.5 -50.5q64 0 101 8.5t70 38t54 84t41 149.5q19 98 17 148q-71 14 -174 14q-94 0 -143 -18t-76 -62t-46 -135z" />
<glyph unicode="&#xf1;" horiz-adv-x="954" d="M31 0l209 983q89 38 203 64t210 26q72 0 122 -15t84.5 -49.5t48.5 -91.5t9.5 -140t-28.5 -195l-123 -582h-205l117 555q27 113 23.5 177.5t-35 88t-105.5 23.5q-73 0 -153 -25l-175 -819h-202zM360 1262q55 82 106 123.5t109 41.5q37 0 68 -17t48.5 -37t41.5 -37t49 -17 q31 0 55.5 25t59.5 94l78 -103q-42 -87 -101.5 -138.5t-130.5 -51.5q-33 0 -62.5 17t-47.5 37t-44 37t-52 17q-53 0 -109 -104z" />
<glyph unicode="&#xf2;" d="M82.5 304q3.5 94 30.5 222q33 158 80 265t112 168.5t142 87.5t180 26q83 0 140.5 -16t99 -54t59 -100.5t14 -156t-30.5 -220.5q-34 -159 -80.5 -267t-111.5 -171.5t-142.5 -90t-181.5 -26.5q-82 0 -140 16.5t-99 55.5t-58 103t-13.5 158zM294.5 276q3.5 -40 22 -61.5 t46.5 -30t73 -8.5q76 0 120 26.5t77.5 100t64.5 219.5q19 92 26 151.5t3.5 99.5t-23 60t-47 27.5t-73.5 7.5t-76.5 -7.5t-59 -28t-49 -60t-39.5 -99.5t-38 -151q-19 -88 -25 -147t-2.5 -99zM457 1427h215l143 -264h-180z" />
<glyph unicode="&#xf3;" d="M82.5 304q3.5 94 30.5 222q33 158 80 265t112 168.5t142 87.5t180 26q83 0 140.5 -16t99 -54t59 -100.5t14 -156t-30.5 -220.5q-34 -159 -80.5 -267t-111.5 -171.5t-142.5 -90t-181.5 -26.5q-82 0 -140 16.5t-99 55.5t-58 103t-13.5 158zM294.5 276q3.5 -40 22 -61.5 t46.5 -30t73 -8.5q76 0 120 26.5t77.5 100t64.5 219.5q19 92 26 151.5t3.5 99.5t-23 60t-47 27.5t-73.5 7.5t-76.5 -7.5t-59 -28t-49 -60t-39.5 -99.5t-38 -151q-19 -88 -25 -147t-2.5 -99zM489 1163l254 264h220l-295 -264h-179z" />
<glyph unicode="&#xf4;" d="M82.5 304q3.5 94 30.5 222q33 158 80 265t112 168.5t142 87.5t180 26q83 0 140.5 -16t99 -54t59 -100.5t14 -156t-30.5 -220.5q-34 -159 -80.5 -267t-111.5 -171.5t-142.5 -90t-181.5 -26.5q-82 0 -140 16.5t-99 55.5t-58 103t-13.5 158zM294.5 276q3.5 -40 22 -61.5 t46.5 -30t73 -8.5q76 0 120 26.5t77.5 100t64.5 219.5q19 92 26 151.5t3.5 99.5t-23 60t-47 27.5t-73.5 7.5t-76.5 -7.5t-59 -28t-49 -60t-39.5 -99.5t-38 -151q-19 -88 -25 -147t-2.5 -99zM340 1163l256 264h201l149 -264h-192l-82 156l-148 -156h-184z" />
<glyph unicode="&#xf5;" d="M82.5 304q3.5 94 30.5 222q33 158 80 265t112 168.5t142 87.5t180 26q83 0 140.5 -16t99 -54t59 -100.5t14 -156t-30.5 -220.5q-34 -159 -80.5 -267t-111.5 -171.5t-142.5 -90t-181.5 -26.5q-82 0 -140 16.5t-99 55.5t-58 103t-13.5 158zM294.5 276q3.5 -40 22 -61.5 t46.5 -30t73 -8.5q76 0 120 26.5t77.5 100t64.5 219.5q19 92 26 151.5t3.5 99.5t-23 60t-47 27.5t-73.5 7.5t-76.5 -7.5t-59 -28t-49 -60t-39.5 -99.5t-38 -151q-19 -88 -25 -147t-2.5 -99zM365 1262q55 82 106 123.5t109 41.5q37 0 68 -17t48 -37t41 -37t49 -17 q31 0 55.5 25t59.5 94l78 -103q-42 -87 -101 -138.5t-130 -51.5q-33 0 -62.5 17t-48 37t-44.5 37t-52 17q-53 0 -109 -104z" />
<glyph unicode="&#xf6;" d="M82.5 304q3.5 94 30.5 222q33 158 80 265t112 168.5t142 87.5t180 26q83 0 140.5 -16t99 -54t59 -100.5t14 -156t-30.5 -220.5q-34 -159 -80.5 -267t-111.5 -171.5t-142.5 -90t-181.5 -26.5q-82 0 -140 16.5t-99 55.5t-58 103t-13.5 158zM294.5 276q3.5 -40 22 -61.5 t46.5 -30t73 -8.5q76 0 120 26.5t77.5 100t64.5 219.5q19 92 26 151.5t3.5 99.5t-23 60t-47 27.5t-73.5 7.5t-76.5 -7.5t-59 -28t-49 -60t-39.5 -99.5t-38 -151q-19 -88 -25 -147t-2.5 -99zM395.5 1177.5q-13.5 22.5 3.5 104.5q15 71 38 92t81 21t74 -21t2 -92 q-18 -79 -43.5 -103t-83.5 -24t-71.5 22.5zM745 1177.5q-14 22.5 3 104.5q15 71 38.5 92t81.5 21t73.5 -21t0.5 -92q-18 -80 -43 -103.5t-82 -23.5q-58 0 -72 22.5z" />
<glyph unicode="&#xf7;" horiz-adv-x="952" d="M127 621l51 241h797l-51 -241h-797zM329 185.5q-20 29.5 1 127.5q20 91 51.5 118.5t105.5 27.5q78 0 99.5 -27.5t1.5 -118.5q-21 -98 -53.5 -127.5t-110.5 -29.5q-75 0 -95 29.5zM502 1096.5q1 30.5 12 81.5q20 90 51.5 116.5t106.5 26.5q78 0 99 -26t1 -117 q-21 -98 -54.5 -128t-111.5 -30q-38 0 -59 5.5t-33.5 23t-11.5 48z" />
<glyph unicode="&#xf8;" d="M-55 0l145 162q-28 129 23 364q33 158 80 265t112 168.5t142 87.5t180 26q158 0 229 -63l33 32h190l-149 -161q27 -126 -21 -355q-34 -159 -80.5 -267t-111.5 -171.5t-142.5 -90t-181.5 -26.5q-150 0 -229 64l-31 -35h-188zM307 395l391 439q-32 32 -116 32 q-73 0 -114.5 -21t-74 -84t-59.5 -190q-25 -124 -27 -176zM324 209q29 -31 112 -31q110 0 163 69t91 247q17 78 23 149z" />
<glyph unicode="&#xf9;" horiz-adv-x="954" d="M92.5 225.5q0.5 94.5 30.5 235.5l125 581h203l-119 -555q-27 -113 -23 -177t35 -87.5t105 -23.5q78 0 155 26l174 817h203l-209 -983q-88 -38 -203.5 -64t-210.5 -26q-91 0 -148 24t-87.5 81t-30 151.5zM444 1427h215l144 -264h-180z" />
<glyph unicode="&#xfa;" horiz-adv-x="954" d="M92.5 225.5q0.5 94.5 30.5 235.5l125 581h203l-119 -555q-27 -113 -23 -177t35 -87.5t105 -23.5q78 0 155 26l174 817h203l-209 -983q-88 -38 -203.5 -64t-210.5 -26q-91 0 -148 24t-87.5 81t-30 151.5zM492 1163l256 264h217l-295 -264h-178z" />
<glyph unicode="&#xfb;" horiz-adv-x="954" d="M92.5 225.5q0.5 94.5 30.5 235.5l125 581h203l-119 -555q-27 -113 -23 -177t35 -87.5t105 -23.5q78 0 155 26l174 817h203l-209 -983q-88 -38 -203.5 -64t-210.5 -26q-91 0 -148 24t-87.5 81t-30 151.5zM348 1163l256 264h201l149 -264h-192l-84 156l-146 -156h-184z" />
<glyph unicode="&#xfc;" horiz-adv-x="954" d="M92.5 225.5q0.5 94.5 30.5 235.5l125 581h203l-119 -555q-27 -113 -23 -177t35 -87.5t105 -23.5q78 0 155 26l174 817h203l-209 -983q-88 -38 -203.5 -64t-210.5 -26q-91 0 -148 24t-87.5 81t-30 151.5zM389.5 1200.5q-5.5 28.5 9.5 81.5q14 71 38.5 92t82.5 21t73.5 -21 t0.5 -92q-18 -80 -43 -103.5t-82 -23.5q-40 0 -57 8.5t-22.5 37zM746.5 1177.5q-13.5 22.5 3.5 104.5q15 72 38 92.5t82 20.5q57 0 72.5 -21t1.5 -92q-18 -79 -43.5 -103t-81.5 -24q-59 0 -72.5 22.5z" />
<glyph unicode="&#xfd;" horiz-adv-x="837" d="M-6 -393q95 141 207 342q-3 599 -62 1093h213q37 -339 37 -790q242 465 375 790h207q-231 -514 -547 -1085q-76 -141 -205 -350h-225zM459 1163l254 264h219l-295 -264h-178z" />
<glyph unicode="&#xfe;" d="M-53 -393l391 1845h203l-84 -399q95 20 166 20q85 0 144.5 -16.5t100.5 -54.5t57.5 -102t12.5 -157t-31 -221q-33 -156 -80.5 -264.5t-109.5 -170.5t-132 -89t-157 -27q-64 0 -106 16t-82 44l-90 -424h-203zM293 287q-9 -45 32.5 -73t110.5 -28q108 0 163.5 69t96.5 261 q19 87 24.5 145.5t1 97t-24 59t-48 28.5t-74.5 8q-94 0 -167 -31z" />
<glyph unicode="&#xff;" horiz-adv-x="837" d="M-6 -393q95 141 207 342q-3 599 -62 1093h213q37 -339 37 -790q242 465 375 790h207q-231 -514 -547 -1085q-76 -141 -205 -350h-225zM340.5 1177.5q-13.5 22.5 3.5 104.5q15 71 38 92t81 21t74 -21t2 -92q-18 -79 -43.5 -103t-83.5 -24t-71.5 22.5zM682.5 1200.5 q-5.5 28.5 9.5 81.5q14 71 38.5 92t82.5 21t73.5 -21t0.5 -92q-18 -80 -43 -103.5t-82 -23.5q-40 0 -57 8.5t-22.5 37z" />
<glyph unicode="&#x100;" horiz-adv-x="1116" d="M-96 0q148 319 346 713t371 714h337q14 -348 44 -746t65 -681h-240q-19 165 -34 356h-500q-123 -264 -164 -356h-225zM401 588h379q-22 330 -28 610h-45q-183 -351 -306 -610zM578 1542l38 189h455l-39 -189h-454z" />
<glyph unicode="&#x101;" horiz-adv-x="962" d="M78 256q0 111 33 260q44 212 113.5 335t165.5 172.5t239 49.5q92 0 190.5 -21.5t157.5 -56.5l-146 -676q-12 -66 -12 -92q0 -77 45 -139l-180 -125q-31 14 -54 52.5t-28 78.5q-45 -54 -113 -86.5t-143 -32.5q-135 0 -201.5 63.5t-66.5 217.5zM295 334q0 -77 33.5 -108 t109.5 -31q70 0 125.5 33.5t67.5 90.5l108 510q-65 35 -153 35q-77 0 -120.5 -24.5t-77.5 -98t-66 -221.5q-27 -138 -27 -186zM393 1180l39 184h457l-39 -184h-457z" />
<glyph unicode="&#x102;" horiz-adv-x="1118" d="M-96 0q148 319 346 713t371 714h337q14 -348 44 -746t65 -681h-240q-19 165 -34 356h-500q-123 -264 -164 -356h-225zM401 588h379q-22 330 -28 610h-45q-183 -351 -306 -610zM608 1784h140q-14 -69 5 -94t76 -25q58 0 91 25.5t47 93.5h131q-62 -281 -305 -281 q-247 0 -185 281z" />
<glyph unicode="&#x103;" horiz-adv-x="962" d="M78 256q0 111 33 260q44 212 113.5 335t165.5 172.5t239 49.5q92 0 190.5 -21.5t157.5 -56.5l-146 -676q-12 -66 -12 -92q0 -77 45 -139l-180 -125q-31 14 -54 52.5t-28 78.5q-45 -54 -113 -86.5t-143 -32.5q-135 0 -201.5 63.5t-66.5 217.5zM295 334q0 -77 33.5 -108 t109.5 -31q70 0 125.5 33.5t67.5 90.5l108 510q-65 35 -153 35q-77 0 -120.5 -24.5t-77.5 -98t-66 -221.5q-27 -138 -27 -186zM463 1427h139q-14 -69 5.5 -93.5t76.5 -24.5t90 25t47 93h131q-32 -144 -108.5 -212t-198.5 -68q-244 0 -182 280z" />
<glyph unicode="&#x104;" horiz-adv-x="1118" d="M-96 0q148 319 346 713t371 714h337q14 -348 44 -746t65 -681h-240q-19 165 -34 356h-500q-123 -264 -164 -356h-225zM401 588h379q-22 330 -28 610h-45q-183 -351 -306 -610zM686 -233q20 86 87.5 154.5t180.5 103.5h66q-97 -62 -134.5 -107t-49.5 -106q-10 -45 6 -63.5 t73 -18.5q85 0 150 55l31 -129q-45 -35 -109.5 -53.5t-122.5 -18.5q-121 0 -159.5 44t-18.5 139z" />
<glyph unicode="&#x105;" horiz-adv-x="962" d="M78 256q0 111 33 260q44 212 113.5 335t165.5 172.5t239 49.5q92 0 190.5 -21.5t157.5 -56.5l-146 -676q-12 -66 -12 -92q0 -77 45 -139l-180 -125q-31 14 -54 52.5t-28 78.5q-45 -54 -113 -86.5t-143 -32.5q-135 0 -201.5 63.5t-66.5 217.5zM295 334q0 -77 33.5 -108 t109.5 -31q70 0 125.5 33.5t67.5 90.5l108 510q-65 35 -153 35q-77 0 -120.5 -24.5t-77.5 -98t-66 -221.5q-27 -138 -27 -186zM440 -233q20 86 88 154.5t181 103.5h63q-96 -62 -132.5 -107t-49.5 -106q-9 -45 6.5 -63.5t73.5 -18.5q38 0 78.5 15t68.5 40l31 -129 q-43 -35 -107.5 -53.5t-124.5 -18.5q-120 0 -158 44t-18 139z" />
<glyph unicode="&#x106;" horiz-adv-x="970" d="M115.5 425q5.5 128 42.5 302q47 217 109 361t149 226t189.5 115t244.5 33q78 0 166 -15t151 -38l-100 -238q-38 20 -104.5 33t-126.5 13q-68 0 -114 -6t-92 -24.5t-77.5 -51.5t-62 -88t-54.5 -133.5t-47 -188.5q-28 -132 -34.5 -221t4.5 -146t48 -87t86.5 -41t129.5 -11 q60 0 132.5 12.5t118.5 32.5l-2 -241q-161 -52 -337 -52q-112 0 -190.5 23t-133.5 75.5t-78 140t-17.5 215.5zM643 1530l268 264h224l-316 -264h-176z" />
<glyph unicode="&#x107;" horiz-adv-x="770" d="M85 304.5q1 95.5 28 221.5q33 156 84 264.5t120 169.5t147.5 87t178.5 26q61 0 131.5 -14t112.5 -35l-94 -217q-81 45 -183 45q-60 0 -99 -11t-76 -45t-63.5 -100.5t-49.5 -173.5q-22 -102 -23.5 -167.5t20 -100.5t56.5 -48t94 -13q102 0 205 49v-217q-52 -24 -127.5 -39 t-136.5 -15q-79 0 -137.5 16.5t-102.5 56t-65 102.5t-20 158.5zM473 1163l254 264h219l-295 -264h-178z" />
<glyph unicode="&#x108;" horiz-adv-x="970" d="M115.5 425q5.5 128 42.5 302q47 217 109 361t149 226t189.5 115t244.5 33q78 0 166 -15t151 -38l-100 -238q-38 20 -104.5 33t-126.5 13q-68 0 -114 -6t-92 -24.5t-77.5 -51.5t-62 -88t-54.5 -133.5t-47 -188.5q-28 -132 -34.5 -221t4.5 -146t48 -87t86.5 -41t129.5 -11 q60 0 132.5 12.5t118.5 32.5l-2 -241q-161 -52 -337 -52q-112 0 -190.5 23t-133.5 75.5t-78 140t-17.5 215.5zM553 1530l256 264h201l149 -264h-190l-84 160l-150 -160h-182z" />
<glyph unicode="&#x109;" horiz-adv-x="770" d="M85 304.5q1 95.5 28 221.5q33 156 84 264.5t120 169.5t147.5 87t178.5 26q61 0 131.5 -14t112.5 -35l-94 -217q-81 45 -183 45q-60 0 -99 -11t-76 -45t-63.5 -100.5t-49.5 -173.5q-22 -102 -23.5 -167.5t20 -100.5t56.5 -48t94 -13q102 0 205 49v-217q-52 -24 -127.5 -39 t-136.5 -15q-79 0 -137.5 16.5t-102.5 56t-65 102.5t-20 158.5zM340 1163l256 264h201l149 -264h-192l-82 156l-148 -156h-184z" />
<glyph unicode="&#x10a;" horiz-adv-x="970" d="M115.5 425q5.5 128 42.5 302q47 217 109 361t149 226t189.5 115t244.5 33q78 0 166 -15t151 -38l-100 -238q-38 20 -104.5 33t-126.5 13q-68 0 -114 -6t-92 -24.5t-77.5 -51.5t-62 -88t-54.5 -133.5t-47 -188.5q-28 -132 -34.5 -221t4.5 -146t48 -87t86.5 -41t129.5 -11 q60 0 132.5 12.5t118.5 32.5l-2 -241q-161 -52 -337 -52q-112 0 -190.5 23t-133.5 75.5t-78 140t-17.5 215.5zM785.5 1559q-14.5 23 0.5 102q14 71 39.5 93t83.5 22q57 0 73 -22t1 -93q-17 -77 -42.5 -101t-82.5 -24q-58 0 -72.5 23z" />
<glyph unicode="&#x10b;" horiz-adv-x="772" d="M85 304.5q1 95.5 28 221.5q33 156 84 264.5t120 169.5t147.5 87t178.5 26q61 0 131.5 -14t112.5 -35l-94 -217q-81 45 -183 45q-60 0 -99 -11t-76 -45t-63.5 -100.5t-49.5 -173.5q-22 -102 -23.5 -167.5t20 -100.5t56.5 -48t94 -13q102 0 205 49v-217q-52 -24 -127.5 -39 t-136.5 -15q-79 0 -137.5 16.5t-102.5 56t-65 102.5t-20 158.5zM565.5 1200.5q-5.5 28.5 9.5 81.5q14 71 38.5 92t82.5 21t73.5 -21t0.5 -92q-18 -80 -43 -103.5t-82 -23.5q-40 0 -57 8.5t-22.5 37z" />
<glyph unicode="&#x10c;" horiz-adv-x="968" d="M115.5 425q5.5 128 42.5 302q47 217 109 361t149 226t189.5 115t244.5 33q78 0 166 -15t151 -38l-100 -238q-38 20 -104.5 33t-126.5 13q-68 0 -114 -6t-92 -24.5t-77.5 -51.5t-62 -88t-54.5 -133.5t-47 -188.5q-28 -132 -34.5 -221t4.5 -146t48 -87t86.5 -41t129.5 -11 q60 0 132.5 12.5t118.5 32.5l-2 -241q-161 -52 -337 -52q-112 0 -190.5 23t-133.5 75.5t-78 140t-17.5 215.5zM588 1794h188l86 -160l150 160h182l-256 -264h-201z" />
<glyph unicode="&#x10d;" horiz-adv-x="770" d="M85 304.5q1 95.5 28 221.5q33 156 84 264.5t120 169.5t147.5 87t178.5 26q61 0 131.5 -14t112.5 -35l-94 -217q-81 45 -183 45q-60 0 -99 -11t-76 -45t-63.5 -100.5t-49.5 -173.5q-22 -102 -23.5 -167.5t20 -100.5t56.5 -48t94 -13q102 0 205 49v-217q-52 -24 -127.5 -39 t-136.5 -15q-79 0 -137.5 16.5t-102.5 56t-65 102.5t-20 158.5zM395 1427h193q1 -3 82 -155q24 25 72.5 76.5t74.5 78.5h184q-172 -176 -256 -264h-200z" />
<glyph unicode="&#x10e;" horiz-adv-x="1204" d="M61 0l304 1427h436q113 0 191.5 -20.5t135 -69t80.5 -129.5t20 -202t-40 -287q-35 -165 -82.5 -287t-106.5 -205t-136 -133.5t-165 -72t-200 -21.5h-437zM328 233h196q80 0 135 12t101.5 42t80 86t61.5 138.5t54 205.5q27 128 33.5 211t-2.5 137.5t-45 82t-83.5 37 t-129.5 9.5h-199zM553 1794h188l86 -160l150 160h182l-256 -264h-201z" />
<glyph unicode="&#x10f;" horiz-adv-x="962" d="M81 300.5q4 93.5 32 221.5q32 155 79.5 263.5t110 170.5t132.5 89.5t157 27.5q116 0 186 -59l99 465h204l-305 -1432q-74 -33 -181.5 -54.5t-197.5 -21.5q-86 0 -145 16.5t-100.5 54.5t-58 101.5t-12.5 157zM295.5 353q-4.5 -65 11.5 -102.5t47 -50t88 -12.5q87 0 168 31 l115 539q10 45 -31 72.5t-112 27.5q-107 0 -163 -70t-97 -262q-22 -108 -26.5 -173zM1055 1085l116 394h181l-176 -394h-121z" />
<glyph unicode="&#x110;" horiz-adv-x="1204" d="M61 0l304 1427h436q113 0 191.5 -20.5t135 -69t80.5 -129.5t20 -202t-40 -287q-35 -165 -82.5 -287t-106.5 -205t-136 -133.5t-165 -72t-200 -21.5h-437zM328 233h196q80 0 135 12t101.5 42t80 86t61.5 138.5t54 205.5q27 128 33.5 211t-2.5 137.5t-45 82t-83.5 37 t-129.5 9.5h-199zM592 1542l39 189h456l-38 -189h-457z" />
<glyph unicode="&#x111;" d="M81 300.5q4 93.5 32 221.5q32 155 79.5 263.5t110 170.5t132.5 89.5t157 27.5q116 0 186 -59l35 168h-145l39 182h145l25 115h204l-24 -115h80l-39 -182h-80l-242 -1135q-74 -33 -181.5 -54.5t-197.5 -21.5q-86 0 -145 16.5t-100.5 54.5t-58 101.5t-12.5 157zM295.5 353 q-4.5 -65 11.5 -102.5t47 -50t88 -12.5q87 0 168 31l115 539q10 45 -31 72.5t-112 27.5q-107 0 -163 -70t-97 -262q-22 -108 -26.5 -173z" />
<glyph unicode="&#x112;" horiz-adv-x="1015" d="M61 0l304 1427h829l-51 -233h-613l-69 -330h436l-49 -231h-436l-84 -400h612l-49 -233h-830zM578 1542l38 189h457l-41 -189h-454z" />
<glyph unicode="&#x113;" horiz-adv-x="903" d="M86 304q1 96 27 222q32 154 81 261.5t114 169.5t140 89t170 27q83 0 137 -16t92 -56t49.5 -110t0.5 -177.5t-47 -258.5h-539q-13 -67 -14 -114t8.5 -77t33 -47.5t54.5 -24t78 -6.5q45 0 118.5 12.5t123.5 30.5l-11 -200q-66 -26 -151.5 -42t-149.5 -16q-75 0 -131.5 16.5 t-100 56t-64 102t-19.5 158.5zM354 649h351q10 56 11.5 94t-5 64t-23.5 40t-41 19.5t-61 5.5q-96 0 -145.5 -47.5t-86.5 -175.5zM424 1180l39 184h455l-39 -184h-455z" />
<glyph unicode="&#x114;" horiz-adv-x="1015" d="M61 0l304 1427h829l-51 -233h-613l-69 -330h436l-49 -231h-436l-84 -400h612l-49 -233h-830zM627 1784h139q-14 -69 5.5 -94t76.5 -25q58 0 90.5 25.5t46.5 93.5h131q-62 -281 -305 -281q-246 0 -184 281z" />
<glyph unicode="&#x115;" horiz-adv-x="903" d="M86 304q1 96 27 222q32 154 81 261.5t114 169.5t140 89t170 27q83 0 137 -16t92 -56t49.5 -110t0.5 -177.5t-47 -258.5h-539q-13 -67 -14 -114t8.5 -77t33 -47.5t54.5 -24t78 -6.5q45 0 118.5 12.5t123.5 30.5l-11 -200q-66 -26 -151.5 -42t-149.5 -16q-75 0 -131.5 16.5 t-100 56t-64 102t-19.5 158.5zM354 649h351q10 56 11.5 94t-5 64t-23.5 40t-41 19.5t-61 5.5q-96 0 -145.5 -47.5t-86.5 -175.5zM453 1427h139q-14 -69 5.5 -93.5t76.5 -24.5t89 25t46 93h131q-59 -280 -305 -280q-244 0 -182 280z" />
<glyph unicode="&#x116;" horiz-adv-x="1015" d="M61 0l304 1427h829l-51 -233h-613l-69 -330h436l-49 -231h-436l-84 -400h612l-49 -233h-830zM765 1559q-14 23 1 102q15 71 39.5 93t81.5 22t73 -22t1 -93q-17 -77 -42.5 -101t-82.5 -24t-71 23z" />
<glyph unicode="&#x117;" horiz-adv-x="903" d="M86 304q1 96 27 222q32 154 81 261.5t114 169.5t140 89t170 27q83 0 137 -16t92 -56t49.5 -110t0.5 -177.5t-47 -258.5h-539q-13 -67 -14 -114t8.5 -77t33 -47.5t54.5 -24t78 -6.5q45 0 118.5 12.5t123.5 30.5l-11 -200q-66 -26 -151.5 -42t-149.5 -16q-75 0 -131.5 16.5 t-100 56t-64 102t-19.5 158.5zM354 649h351q10 56 11.5 94t-5 64t-23.5 40t-41 19.5t-61 5.5q-96 0 -145.5 -47.5t-86.5 -175.5zM567.5 1177.5q-13.5 22.5 3.5 104.5q15 71 38 92t81 21t74 -21t2 -92q-18 -79 -43.5 -103t-83.5 -24t-71.5 22.5z" />
<glyph unicode="&#x118;" horiz-adv-x="1015" d="M61 0l304 1427h829l-51 -233h-613l-69 -330h436l-49 -231h-436l-84 -400h612l-49 -233h-830zM516 -233q20 86 87.5 154.5t180.5 103.5h66q-97 -62 -134.5 -107t-49.5 -106q-10 -45 6 -63.5t73 -18.5q85 0 150 55l31 -129q-45 -35 -109.5 -53.5t-122.5 -18.5 q-121 0 -159.5 44t-18.5 139z" />
<glyph unicode="&#x119;" horiz-adv-x="903" d="M86 304q1 96 27 222q32 154 81 261.5t114 169.5t140 89t170 27q83 0 137 -16t92 -56t49.5 -110t0.5 -177.5t-47 -258.5h-539q-13 -67 -14 -114t8.5 -77t33 -47.5t54.5 -24t78 -6.5q45 0 118.5 12.5t123.5 30.5l-11 -200q-66 -26 -151.5 -42t-149.5 -16q-75 0 -131.5 16.5 t-100 56t-64 102t-19.5 158.5zM326 -233q20 86 87.5 154.5t180.5 103.5h63q-96 -62 -132.5 -107t-49.5 -106q-9 -45 6.5 -63.5t73.5 -18.5q85 0 150 55l30 -129q-45 -35 -109 -53.5t-122 -18.5q-121 0 -159.5 44t-18.5 139zM354 649h351q10 56 11.5 94t-5 64t-23.5 40 t-41 19.5t-61 5.5q-96 0 -145.5 -47.5t-86.5 -175.5z" />
<glyph unicode="&#x11a;" horiz-adv-x="1015" d="M61 0l304 1427h829l-51 -233h-613l-69 -330h436l-49 -231h-436l-84 -400h612l-49 -233h-830zM569 1794h189l84 -160l149 160h185l-258 -264h-199z" />
<glyph unicode="&#x11b;" horiz-adv-x="905" d="M86 304q1 96 27 222q32 154 81 261.5t114 169.5t140 89t170 27q83 0 137 -16t92 -56t49.5 -110t0.5 -177.5t-47 -258.5h-539q-13 -67 -14 -114t8.5 -77t33 -47.5t54.5 -24t78 -6.5q45 0 118.5 12.5t123.5 30.5l-11 -200q-66 -26 -151.5 -42t-149.5 -16q-75 0 -131.5 16.5 t-100 56t-64 102t-19.5 158.5zM354 649h351q10 56 11.5 94t-5 64t-23.5 40t-41 19.5t-61 5.5q-96 0 -145.5 -47.5t-86.5 -175.5zM393 1427h193q2 -3 82 -155q24 25 72.5 76.5t74.5 78.5h184q-43 -44 -128 -132t-128 -132h-200z" />
<glyph unicode="&#x11c;" horiz-adv-x="1146" d="M115.5 425q5.5 128 42.5 302q31 145 70.5 257t90 193t108 136.5t129.5 88t150 46.5t175 14q78 0 175.5 -15t157.5 -38l-96 -235q-37 19 -122 31t-150 12q-71 0 -118.5 -6t-94.5 -24.5t-79 -51.5t-63 -88t-55 -133.5t-47 -188.5q-24 -110 -33.5 -189.5t-3 -136.5t24 -92 t54 -55.5t81 -27.5t111.5 -7q73 0 151 21l78 368h-248l47 228h471l-170 -801q-75 -27 -195.5 -44.5t-221.5 -17.5q-112 0 -190.5 23t-133.5 75.5t-78 140t-17.5 215.5zM567 1530l256 264h201l150 -264h-191l-84 160l-147 -160h-185z" />
<glyph unicode="&#x11d;" d="M-47 -356l84 204q118 -51 239 -51q123 0 195.5 54t101.5 192q-107 -68 -227 -68q-90 0 -147 25.5t-90 86.5t-32 167.5t34 263.5q34 159 80.5 266.5t111.5 171t143.5 90.5t184.5 27q92 0 190.5 -21.5t157.5 -56.5l-195 -915q-25 -120 -65.5 -208.5t-89.5 -143.5 t-114.5 -88t-132.5 -45.5t-151 -12.5q-70 0 -150.5 18t-127.5 44zM306.5 260q24.5 -65 133.5 -65q70 0 123.5 26t63.5 72l114 536q-68 35 -155 35q-77 0 -120 -24t-78 -98t-66 -222q-40 -195 -15.5 -260zM356 1163l258 264h199l150 -264h-191l-84 156l-145 -156h-187z" />
<glyph unicode="&#x11e;" horiz-adv-x="1146" d="M115.5 425q5.5 128 42.5 302q31 145 70.5 257t90 193t108 136.5t129.5 88t150 46.5t175 14q78 0 175.5 -15t157.5 -38l-96 -235q-37 19 -122 31t-150 12q-71 0 -118.5 -6t-94.5 -24.5t-79 -51.5t-63 -88t-55 -133.5t-47 -188.5q-24 -110 -33.5 -189.5t-3 -136.5t24 -92 t54 -55.5t81 -27.5t111.5 -7q73 0 151 21l78 368h-248l47 228h471l-170 -801q-75 -27 -195.5 -44.5t-221.5 -17.5q-112 0 -190.5 23t-133.5 75.5t-78 140t-17.5 215.5zM674 1784h139q-14 -69 5.5 -94t76.5 -25q58 0 90.5 25.5t46.5 93.5h131q-62 -281 -305 -281t-184 281z " />
<glyph unicode="&#x11f;" d="M-47 -356l84 204q118 -51 239 -51q123 0 195.5 54t101.5 192q-107 -68 -227 -68q-90 0 -147 25.5t-90 86.5t-32 167.5t34 263.5q34 159 80.5 266.5t111.5 171t143.5 90.5t184.5 27q92 0 190.5 -21.5t157.5 -56.5l-195 -915q-25 -120 -65.5 -208.5t-89.5 -143.5 t-114.5 -88t-132.5 -45.5t-151 -12.5q-70 0 -150.5 18t-127.5 44zM306.5 260q24.5 -65 133.5 -65q70 0 123.5 26t63.5 72l114 536q-68 35 -155 35q-77 0 -120 -24t-78 -98t-66 -222q-40 -195 -15.5 -260zM469 1427h139q-14 -69 5.5 -93.5t76.5 -24.5q58 0 90.5 25t46.5 93 h131q-62 -280 -305 -280q-246 0 -184 280z" />
<glyph unicode="&#x120;" horiz-adv-x="1146" d="M115.5 425q5.5 128 42.5 302q31 145 70.5 257t90 193t108 136.5t129.5 88t150 46.5t175 14q78 0 175.5 -15t157.5 -38l-96 -235q-37 19 -122 31t-150 12q-71 0 -118.5 -6t-94.5 -24.5t-79 -51.5t-63 -88t-55 -133.5t-47 -188.5q-24 -110 -33.5 -189.5t-3 -136.5t24 -92 t54 -55.5t81 -27.5t111.5 -7q73 0 151 21l78 368h-248l47 228h471l-170 -801q-75 -27 -195.5 -44.5t-221.5 -17.5q-112 0 -190.5 23t-133.5 75.5t-78 140t-17.5 215.5zM812 1559q-14 23 1 102q15 71 39.5 93t81.5 22t73 -22t1 -93q-17 -77 -42.5 -101t-82.5 -24t-71 23z" />
<glyph unicode="&#x121;" d="M-47 -356l84 204q118 -51 239 -51q123 0 195.5 54t101.5 192q-107 -68 -227 -68q-90 0 -147 25.5t-90 86.5t-32 167.5t34 263.5q34 159 80.5 266.5t111.5 171t143.5 90.5t184.5 27q92 0 190.5 -21.5t157.5 -56.5l-195 -915q-25 -120 -65.5 -208.5t-89.5 -143.5 t-114.5 -88t-132.5 -45.5t-151 -12.5q-70 0 -150.5 18t-127.5 44zM306.5 260q24.5 -65 133.5 -65q70 0 123.5 26t63.5 72l114 536q-68 35 -155 35q-77 0 -120 -24t-78 -98t-66 -222q-40 -195 -15.5 -260zM565.5 1200.5q-5.5 28.5 9.5 81.5q14 71 38.5 92t82.5 21t73.5 -21 t0.5 -92q-18 -80 -43 -103.5t-82 -23.5q-40 0 -57 8.5t-22.5 37z" />
<glyph unicode="&#x122;" horiz-adv-x="1146" d="M115.5 425q5.5 128 42.5 302q31 145 70.5 257t90 193t108 136.5t129.5 88t150 46.5t175 14q78 0 175.5 -15t157.5 -38l-96 -235q-37 19 -122 31t-150 12q-71 0 -118.5 -6t-94.5 -24.5t-79 -51.5t-63 -88t-55 -133.5t-47 -188.5q-24 -110 -33.5 -189.5t-3 -136.5t24 -92 t54 -55.5t81 -27.5t111.5 -7q73 0 151 21l78 368h-248l47 228h471l-170 -801q-75 -27 -195.5 -44.5t-221.5 -17.5q-112 0 -190.5 23t-133.5 75.5t-78 140t-17.5 215.5zM297 -383l59 111q39 -25 113 -25q37 0 54.5 11.5t23.5 41.5q9 38 -21.5 49t-122.5 5l101 190h80l-19 -86 q98 0 132 -35.5t14 -124.5q-20 -96 -78 -133t-182 -37q-104 0 -154 33z" />
<glyph unicode="&#x123;" d="M-47 -356l84 204q118 -51 239 -51q123 0 195.5 54t101.5 192q-107 -68 -227 -68q-90 0 -147 25.5t-90 86.5t-32 167.5t34 263.5q34 159 80.5 266.5t111.5 171t143.5 90.5t184.5 27q92 0 190.5 -21.5t157.5 -56.5l-195 -915q-25 -120 -65.5 -208.5t-89.5 -143.5 t-114.5 -88t-132.5 -45.5t-151 -12.5q-70 0 -150.5 18t-127.5 44zM306.5 260q24.5 -65 133.5 -65q70 0 123.5 26t63.5 72l114 536q-68 35 -155 35q-77 0 -120 -24t-78 -98t-66 -222q-40 -195 -15.5 -260zM535 1196l190 342h219l-250 -342h-159z" />
<glyph unicode="&#x124;" horiz-adv-x="1204" d="M61 0l304 1427h217l-117 -544h487l117 544h213l-303 -1427h-213l133 633h-487l-133 -633h-218zM537 1530l256 264h200l150 -264h-191l-84 160l-149 -160h-182z" />
<glyph unicode="&#x125;" horiz-adv-x="956" d="M31 0l313 1479h203l-103 -478q130 72 246 72q62 0 104 -12t74 -42.5t44 -83.5t7.5 -136.5t-28.5 -198.5l-127 -600h-203l123 580q32 129 7.5 196.5t-118.5 67.5q-67 0 -119 -24t-61 -68l-160 -752h-202zM274 1530l256 264h201l150 -264h-191l-84 160l-147 -160h-185z" />
<glyph unicode="&#x126;" horiz-adv-x="1204" d="M61 0l226 1065h-97l46 215h96l33 147h217l-33 -147h487l33 147h213l-33 -147h99l-45 -215h-99l-225 -1065h-213l133 633h-487l-133 -633h-218zM465 883h487l39 182h-487z" />
<glyph unicode="&#x127;" horiz-adv-x="956" d="M31 0l252 1190h-84l37 178h83l25 111h203l-25 -111h170l-37 -178h-170l-41 -189q130 72 246 72q62 0 104 -12t74 -42.5t44 -83.5t7.5 -136.5t-28.5 -198.5l-127 -600h-203l123 580q17 82 18 134.5t-15.5 80.5t-43 38.5t-70.5 10.5q-67 0 -119 -24t-61 -68l-160 -752h-202 z" />
<glyph unicode="&#x128;" horiz-adv-x="503" d="M61 0l304 1427h217l-303 -1427h-218zM211 1628q55 80 104.5 121t106.5 41q31 0 57.5 -11t46 -27t37 -31.5t37.5 -26.5t41 -11q29 0 54.5 25.5t58.5 91.5l80 -102q-42 -84 -105.5 -137.5t-132.5 -53.5q-32 0 -62.5 17.5t-50.5 38t-46.5 38t-51.5 17.5q-26 0 -50 -23 t-54 -79z" />
<glyph unicode="&#x129;" horiz-adv-x="428" d="M31 0l221 1042h203l-222 -1042h-202zM98 1262q58 83 107.5 124t107.5 41q38 0 69.5 -17t49 -37t41.5 -37t49 -17q30 0 55 25.5t58 93.5l80 -103q-42 -87 -101.5 -138.5t-130.5 -51.5q-33 0 -62.5 17t-48 37t-44.5 37t-52 17q-52 0 -108 -104z" />
<glyph unicode="&#x12a;" horiz-adv-x="503" d="M61 0l304 1427h217l-303 -1427h-218zM270 1542l41 189h455l-39 -189h-457z" />
<glyph unicode="&#x12b;" horiz-adv-x="430" d="M31 0l221 1042h203l-222 -1042h-202zM156 1180l39 184h456l-39 -184h-456z" />
<glyph unicode="&#x12c;" horiz-adv-x="503" d="M61 0l304 1427h217l-303 -1427h-218zM307 1784h139q-14 -69 5.5 -94t76.5 -25q58 0 91 25.5t47 93.5h131q-62 -281 -305 -281q-247 0 -185 281z" />
<glyph unicode="&#x12d;" horiz-adv-x="430" d="M31 0l221 1042h203l-222 -1042h-202zM193 1427h139q-14 -69 5.5 -93.5t76.5 -24.5q58 0 90.5 25t46.5 93h131q-62 -280 -305 -280q-246 0 -184 280z" />
<glyph unicode="&#x12e;" horiz-adv-x="503" d="M-96 -233q20 86 87.5 154.5t180.5 103.5h64q-96 -62 -133 -107t-50 -106q-9 -45 6.5 -63.5t73.5 -18.5q86 0 148 55l30 -129q-43 -35 -107 -53.5t-122 -18.5q-121 0 -159.5 44t-18.5 139zM61 0l304 1427h217l-303 -1427h-218z" />
<glyph unicode="&#x12f;" horiz-adv-x="428" d="M-119 -233q20 86 88 154.5t181 103.5h63q-96 -62 -132.5 -107t-49.5 -106q-9 -45 6.5 -63.5t73.5 -18.5q85 0 147 55l31 -129q-43 -35 -107.5 -53.5t-122.5 -18.5q-121 0 -159.5 44t-18.5 139zM31 0l221 1042h203l-222 -1042h-202zM302 1235.5q-17 25.5 1 116.5 q17 79 45 102t98 23t89 -23t2 -102q-20 -88 -49.5 -115t-98.5 -27q-70 0 -87 25.5z" />
<glyph unicode="&#x130;" horiz-adv-x="503" d="M61 0l304 1427h217l-303 -1427h-218zM425 1559q-14 23 1 102q15 71 39.5 93t81.5 22t73 -22t1 -93q-17 -77 -42.5 -101t-82.5 -24t-71 23z" />
<glyph unicode="&#x131;" horiz-adv-x="428" d="M31 0l221 1042h203l-222 -1042h-202z" />
<glyph unicode="&#x132;" horiz-adv-x="1257" d="M61 0l304 1427h217l-303 -1427h-218zM434 27l94 241q75 -43 187 -43q69 0 118.5 45t73.5 158l213 999h217l-221 -1034q-21 -99 -56.5 -174.5t-77.5 -121.5t-94 -75t-101.5 -40t-104.5 -11q-141 0 -248 56z" />
<glyph unicode="&#x133;" horiz-adv-x="860" d="M16 -369l82 197q74 -41 174 -41q142 0 181 184l227 1071h205l-228 -1069q-85 -389 -409 -389q-136 0 -232 47zM33 0l221 1042h203l-221 -1042h-203zM302 1237q-19 27 1 115q17 79 46 102t100 23q69 0 88 -23t2 -102q-20 -88 -50 -115t-98 -27q-70 0 -89 27zM728.5 1237.5 q-19.5 27.5 0.5 114.5q17 79 46.5 102t98.5 23q70 0 90 -23.5t3 -101.5q-20 -88 -50.5 -115t-99.5 -27t-88.5 27.5z" />
<glyph unicode="&#x134;" horiz-adv-x="755" d="M-68 27l95 241q78 -43 186 -43q69 0 119 45t74 158l212 999h218l-220 -1034q-89 -422 -436 -422q-136 0 -248 56zM442 1530l256 264h201l150 -264h-191l-84 160l-149 -160h-183z" />
<glyph unicode="&#x135;" horiz-adv-x="430" d="M-410 -367l82 197q74 -41 176 -41q136 0 177 182l227 1071h203l-228 -1067q-20 -91 -53.5 -161t-72.5 -113t-87.5 -70t-94.5 -37t-97 -10q-132 0 -232 49zM76 1163q84 88 256 264h200l150 -264h-193q-6 11 -36.5 68t-46.5 88q-47 -52 -146 -156h-184z" />
<glyph unicode="&#x136;" horiz-adv-x="1083" d="M61 0l304 1427h217l-303 -1427h-218zM170 -446l190 342h220l-250 -342h-160zM438 754q72 54 234.5 235.5t355.5 437.5h262q-198 -253 -352.5 -428t-216.5 -227q44 -46 130.5 -250.5t172.5 -521.5h-266q-89 327 -179 526t-141 228z" />
<glyph unicode="&#x137;" horiz-adv-x="901" d="M31 0l313 1479h203l-314 -1479h-202zM82 -446l190 342h220l-250 -342h-160zM350 551q94 77 428 491h240q-150 -187 -262.5 -311.5t-157.5 -161.5q29 -27 89.5 -177t133.5 -392h-237q-177 516 -234 551z" />
<glyph unicode="&#x139;" horiz-adv-x="903" d="M61 0l304 1427h217l-254 -1191h538l-49 -236h-756zM403 1530l269 264h225l-317 -264h-177z" />
<glyph unicode="&#x13a;" horiz-adv-x="438" d="M90 283l254 1196h203l-252 -1186q-32 -137 10 -246l-199 -96q-60 127 -16 332zM336 1530l268 264h225l-315 -264h-178z" />
<glyph unicode="&#x13b;" horiz-adv-x="903" d="M61 0l304 1427h217l-254 -1191h538l-49 -236h-756zM133 -446l189 342h221l-252 -342h-158z" />
<glyph unicode="&#x13c;" horiz-adv-x="440" d="M-117 -446l191 342h219l-250 -342h-160zM90 283l254 1196h205l-252 -1186q-32 -137 10 -246l-198 -96q-63 131 -19 332z" />
<glyph unicode="&#x13d;" horiz-adv-x="901" d="M61 0l304 1427h217l-254 -1191h538l-49 -236h-756zM633 1085l117 394h180l-176 -394h-121z" />
<glyph unicode="&#x13e;" horiz-adv-x="440" d="M90 283l254 1196h203l-252 -1186q-32 -137 10 -246l-199 -96q-60 127 -16 332zM535 1085l116 394h180l-178 -394h-118z" />
<glyph unicode="&#x13f;" horiz-adv-x="903" d="M61 0l304 1427h217l-254 -1191h538l-49 -236h-756zM576 731.5q-14 22.5 2 102.5q15 71 38.5 92.5t81.5 21.5t73.5 -21.5t0.5 -92.5q-17 -77 -42.5 -101t-82.5 -24t-71 22.5z" />
<glyph unicode="&#x140;" horiz-adv-x="438" d="M90 283l254 1196h203l-252 -1186q-32 -137 10 -246l-199 -96q-60 127 -16 332zM461.5 704.5q-13.5 22.5 3.5 104.5q15 71 38 92t81 21t73.5 -21t1.5 -92q-18 -79 -43.5 -103t-83.5 -24q-57 0 -70.5 22.5z" />
<glyph unicode="&#x141;" horiz-adv-x="903" d="M8 268l53 252l136 119l168 788h217l-121 -565l315 279l-53 -254l-315 -277l-80 -374h538l-49 -236h-756l82 387z" />
<glyph unicode="&#x142;" horiz-adv-x="440" d="M-2 344l53 252l135 141l158 742h203l-98 -467l145 153l-53 -254l-148 -153l-98 -465q-6 -24 -6 -49q-19 -110 18 -197q-22 -10 -90.5 -43t-107.5 -51q-29 55 -36 116t9 160q12 78 22 119l29 137z" />
<glyph unicode="&#x143;" horiz-adv-x="1267" d="M61 0l304 1427h282q143 -487 262 -1030l219 1030h215l-303 -1427h-264q-130 577 -276 1075l-228 -1075h-211zM729 1530l268 264h226l-316 -264h-178z" />
<glyph unicode="&#x144;" horiz-adv-x="954" d="M31 0l209 983q89 38 203 64t210 26q72 0 122 -15t84.5 -49.5t48.5 -91.5t9.5 -140t-28.5 -195l-123 -582h-205l117 555q27 113 23.5 177.5t-35 88t-105.5 23.5q-73 0 -153 -25l-175 -819h-202zM463 1163l254 264h219l-295 -264h-178z" />
<glyph unicode="&#x145;" horiz-adv-x="1267" d="M61 0l304 1427h282q143 -487 262 -1030l219 1030h215l-303 -1427h-264q-130 577 -276 1075l-228 -1075h-211zM240 -446l188 342h221l-252 -342h-157z" />
<glyph unicode="&#x146;" horiz-adv-x="954" d="M31 0l209 983q89 38 203 64t210 26q72 0 122 -15t84.5 -49.5t48.5 -91.5t9.5 -140t-28.5 -195l-123 -582h-205l117 555q27 113 23.5 177.5t-35 88t-105.5 23.5q-73 0 -153 -25l-175 -819h-202zM82 -446l190 342h220l-250 -342h-160z" />
<glyph unicode="&#x147;" horiz-adv-x="1267" d="M61 0l304 1427h282q143 -487 262 -1030l219 1030h215l-303 -1427h-264q-130 577 -276 1075l-228 -1075h-211zM647 1794h189l86 -160l147 160h184l-256 -264h-200z" />
<glyph unicode="&#x148;" horiz-adv-x="954" d="M31 0l209 983q89 38 203 64t210 26q72 0 122 -15t84.5 -49.5t48.5 -91.5t9.5 -140t-28.5 -195l-123 -582h-205l117 555q27 113 23.5 177.5t-35 88t-105.5 23.5q-73 0 -153 -25l-175 -819h-202zM391 1427h193q1 -3 82 -155q24 25 72.5 76.5t74.5 78.5h184 q-172 -176 -256 -264h-200z" />
<glyph unicode="&#x14c;" horiz-adv-x="1259" d="M115.5 422q5.5 129 42.5 305q46 215 109.5 359t152 226.5t192.5 116t246 33.5q113 0 191.5 -21t135.5 -71t80.5 -134t19 -210t-41.5 -299q-46 -219 -110.5 -366.5t-152.5 -233t-192.5 -121t-244.5 -35.5q-113 0 -192.5 22t-136 74t-80.5 139t-18.5 216zM345.5 400.5 q2.5 -58.5 16.5 -93t46.5 -56t76 -29t109.5 -7.5t112 7.5t87.5 29t70 56t56 93t49 135t45.5 187.5t34.5 187t7.5 133.5t-17 90t-47.5 52.5t-75.5 26.5t-109 6.5q-81 0 -132.5 -10.5t-96.5 -39t-76 -86t-58 -142.5t-55 -218q-24 -111 -35 -187.5t-8.5 -135zM647 1542l39 189 h457l-39 -189h-457z" />
<glyph unicode="&#x14d;" d="M82.5 304q3.5 94 30.5 222q33 158 80 265t112 168.5t142 87.5t180 26q83 0 140.5 -16t99 -54t59 -100.5t14 -156t-30.5 -220.5q-34 -159 -80.5 -267t-111.5 -171.5t-142.5 -90t-181.5 -26.5q-82 0 -140 16.5t-99 55.5t-58 103t-13.5 158zM294.5 276q3.5 -40 22 -61.5 t46.5 -30t73 -8.5q76 0 120 26.5t77.5 100t64.5 219.5q19 92 26 151.5t3.5 99.5t-23 60t-47 27.5t-73.5 7.5t-76.5 -7.5t-59 -28t-49 -60t-39.5 -99.5t-38 -151q-19 -88 -25 -147t-2.5 -99zM420 1180l39 184h456l-38 -184h-457z" />
<glyph unicode="&#x14e;" horiz-adv-x="1259" d="M115.5 422q5.5 129 42.5 305q46 215 109.5 359t152 226.5t192.5 116t246 33.5q113 0 191.5 -21t135.5 -71t80.5 -134t19 -210t-41.5 -299q-46 -219 -110.5 -366.5t-152.5 -233t-192.5 -121t-244.5 -35.5q-113 0 -192.5 22t-136 74t-80.5 139t-18.5 216zM345.5 400.5 q2.5 -58.5 16.5 -93t46.5 -56t76 -29t109.5 -7.5t112 7.5t87.5 29t70 56t56 93t49 135t45.5 187.5t34.5 187t7.5 133.5t-17 90t-47.5 52.5t-75.5 26.5t-109 6.5q-81 0 -132.5 -10.5t-96.5 -39t-76 -86t-58 -142.5t-55 -218q-24 -111 -35 -187.5t-8.5 -135zM682 1784h139 q-14 -69 5.5 -94t76.5 -25q58 0 90.5 25.5t46.5 93.5h131q-62 -281 -305 -281t-184 281z" />
<glyph unicode="&#x14f;" d="M82.5 304q3.5 94 30.5 222q33 158 80 265t112 168.5t142 87.5t180 26q83 0 140.5 -16t99 -54t59 -100.5t14 -156t-30.5 -220.5q-34 -159 -80.5 -267t-111.5 -171.5t-142.5 -90t-181.5 -26.5q-82 0 -140 16.5t-99 55.5t-58 103t-13.5 158zM294.5 276q3.5 -40 22 -61.5 t46.5 -30t73 -8.5q76 0 120 26.5t77.5 100t64.5 219.5q19 92 26 151.5t3.5 99.5t-23 60t-47 27.5t-73.5 7.5t-76.5 -7.5t-59 -28t-49 -60t-39.5 -99.5t-38 -151q-19 -88 -25 -147t-2.5 -99zM457 1427h139q-14 -69 5.5 -93.5t76.5 -24.5q58 0 90.5 25t46.5 93h131 q-62 -280 -305 -280t-184 280z" />
<glyph unicode="&#x150;" horiz-adv-x="1259" d="M115.5 422q5.5 129 42.5 305q46 215 109.5 359t152 226.5t192.5 116t246 33.5q113 0 191.5 -21t135.5 -71t80.5 -134t19 -210t-41.5 -299q-46 -219 -110.5 -366.5t-152.5 -233t-192.5 -121t-244.5 -35.5q-113 0 -192.5 22t-136 74t-80.5 139t-18.5 216zM345.5 400.5 q2.5 -58.5 16.5 -93t46.5 -56t76 -29t109.5 -7.5t112 7.5t87.5 29t70 56t56 93t49 135t45.5 187.5t34.5 187t7.5 133.5t-17 90t-47.5 52.5t-75.5 26.5t-109 6.5q-81 0 -132.5 -10.5t-96.5 -39t-76 -86t-58 -142.5t-55 -218q-24 -111 -35 -187.5t-8.5 -135zM610 1530l205 264 h180l-245 -264h-140zM879 1530l206 264h179l-244 -264h-141z" />
<glyph unicode="&#x151;" horiz-adv-x="962" d="M82.5 304q3.5 94 30.5 222q33 158 80 265t112 168.5t142 87.5t180 26q83 0 140.5 -16t99 -54t59 -100.5t14 -156t-30.5 -220.5q-34 -159 -80.5 -267t-111.5 -171.5t-142.5 -90t-181.5 -26.5q-82 0 -140 16.5t-99 55.5t-58 103t-13.5 158zM294.5 276q3.5 -40 22 -61.5 t46.5 -30t73 -8.5q76 0 120 26.5t77.5 100t64.5 219.5q19 92 26 151.5t3.5 99.5t-23 60t-47 27.5t-73.5 7.5t-76.5 -7.5t-59 -28t-49 -60t-39.5 -99.5t-38 -151q-19 -88 -25 -147t-2.5 -99zM387 1163l207 264h178l-246 -264h-139zM655 1163l207 264h178l-243 -264h-142z" />
<glyph unicode="&#x152;" horiz-adv-x="1798" d="M115.5 422q5.5 129 42.5 305q46 215 109.5 359t152 226.5t192.5 116t246 33.5q146 0 234 -35h884l-51 -233h-659q39 -110 4 -330h338l-49 -229h-338q-64 -277 -166 -402h667l-49 -233h-907q-99 -29 -223 -29q-113 0 -192.5 22t-136 74t-80.5 139t-18.5 216zM345.5 400.5 q2.5 -58.5 16.5 -93t46.5 -56t76 -29t109.5 -7.5t112 7.5t87.5 29t70 56t56 93t49 135t45.5 187.5t34.5 187t7.5 133.5t-17 90t-47.5 52.5t-75.5 26.5t-109 6.5q-81 0 -132.5 -10.5t-96.5 -39t-76 -86t-58 -142.5t-55 -218q-24 -111 -35 -187.5t-8.5 -135z" />
<glyph unicode="&#x153;" horiz-adv-x="1484" d="M82.5 304q3.5 94 30.5 222q33 158 80 265t112 168.5t142 87.5t180 26q108 0 172 -30.5t92 -102.5q113 133 307 133q69 0 117.5 -10.5t87 -37t57 -71.5t23.5 -114t-8.5 -164t-44.5 -221h-539q-13 -67 -13.5 -114t9 -77t33 -47.5t54.5 -24t77 -6.5q47 0 119.5 12.5 t121.5 30.5l-8 -200q-68 -26 -153 -42t-150 -16q-104 0 -169 33t-95 109q-57 -76 -135.5 -109t-188.5 -33q-82 0 -140 16.5t-99 55.5t-58 103t-13.5 158zM294.5 276q3.5 -40 22 -61.5t46.5 -30t73 -8.5q76 0 120 26.5t77.5 100t64.5 219.5q19 92 26 151.5t3.5 99.5t-23 60 t-47 27.5t-73.5 7.5t-76.5 -7.5t-59 -28t-49 -60t-39.5 -99.5t-38 -151q-19 -88 -25 -147t-2.5 -99zM934 649h350q11 69 13 112.5t-14.5 68t-43 33.5t-72.5 9q-95 0 -145.5 -46.5t-87.5 -176.5z" />
<glyph unicode="&#x154;" horiz-adv-x="1157" d="M61 0l304 1427h593q317 0 232 -415q-18 -81 -47.5 -147t-75 -121t-112.5 -87t-150 -36q54 -26 110.5 -166t141.5 -455h-269q-71 289 -129 417t-114 128h-152l-114 -545h-218zM440 768h322q64 0 110.5 53t67.5 156q23 113 2 167t-82 54h-328zM627 1530l268 264h223 l-315 -264h-176z" />
<glyph unicode="&#x155;" horiz-adv-x="620" d="M31 0l221 1042h203l-17 -77q81 108 236 108q40 0 84 -6l-51 -242q-51 15 -103 15q-81 0 -144 -31.5t-73 -85.5l-154 -723h-202zM403 1163l254 264h220l-295 -264h-179z" />
<glyph unicode="&#x156;" horiz-adv-x="1157" d="M61 0l304 1427h593q317 0 232 -415q-18 -81 -47.5 -147t-75 -121t-112.5 -87t-150 -36q54 -26 110.5 -166t141.5 -455h-269q-71 289 -129 417t-114 128h-152l-114 -545h-218zM201 -446l190 342h219l-250 -342h-159zM440 768h322q64 0 110.5 53t67.5 156q23 113 2 167 t-82 54h-328z" />
<glyph unicode="&#x157;" horiz-adv-x="620" d="M-147 -446l190 342h219l-250 -342h-159zM31 0l221 1042h203l-17 -77q78 108 236 108q40 0 84 -6l-51 -242q-54 15 -103 15q-81 0 -144 -31.5t-73 -85.5l-154 -723h-202z" />
<glyph unicode="&#x158;" horiz-adv-x="1157" d="M61 0l304 1427h593q317 0 232 -415q-18 -81 -47.5 -147t-75 -121t-112.5 -87t-150 -36q54 -26 110.5 -166t141.5 -455h-269q-71 289 -129 417t-114 128h-152l-114 -545h-218zM440 768h322q64 0 110.5 53t67.5 156q23 113 2 167t-82 54h-328zM561 1794h189l84 -160 l149 160h184l-258 -264h-198z" />
<glyph unicode="&#x159;" horiz-adv-x="620" d="M31 0l221 1042h203l-17 -77q81 108 236 108q40 0 84 -6l-51 -242q-51 15 -103 15q-81 0 -144 -31.5t-73 -85.5l-154 -723h-202zM295 1427h190q58 -106 82 -155q62 62 148 155h186l-258 -264h-199z" />
<glyph unicode="&#x15a;" horiz-adv-x="1019" d="M20 35l97 233q51 -22 132 -36.5t163 -14.5q141 0 211 41t94 148q11 53 1.5 92.5t-63 66.5t-157.5 39q-96 12 -157.5 37.5t-99.5 71.5t-43 115.5t13 168.5q53 246 196 355.5t388 109.5q92 0 183.5 -17.5t154.5 -45.5l-99 -234q-45 22 -126 37t-165 15q-137 0 -205.5 -42 t-91.5 -145q-13 -54 0 -90t62 -58t149 -34q196 -26 265.5 -126.5t27.5 -301.5q-53 -245 -193 -347t-395 -102q-94 0 -186.5 17.5t-155.5 46.5zM592 1530l268 264h225l-317 -264h-176z" />
<glyph unicode="&#x15b;" horiz-adv-x="802" d="M2 27l86 200q40 -21 108 -35t130 -14q90 0 132 25t58 102q12 58 -19.5 85.5t-134.5 39.5q-143 14 -196 78.5t-21 218.5q21 99 61 167.5t97 107t123 55t149 16.5q145 0 269 -57l-88 -199q-107 49 -232 49q-83 0 -121.5 -22.5t-54.5 -98.5q-12 -54 18.5 -77t129.5 -35 q151 -21 204 -90.5t21 -223.5q-21 -99 -61 -168t-97.5 -107.5t-123.5 -55.5t-150 -17q-70 0 -152.5 15.5t-134.5 40.5zM406 1163l256 264h217l-295 -264h-178z" />
<glyph unicode="&#x15c;" horiz-adv-x="1019" d="M20 35l97 233q51 -22 132 -36.5t163 -14.5q141 0 211 41t94 148q11 53 1.5 92.5t-63 66.5t-157.5 39q-96 12 -157.5 37.5t-99.5 71.5t-43 115.5t13 168.5q53 246 196 355.5t388 109.5q92 0 183.5 -17.5t154.5 -45.5l-99 -234q-45 22 -126 37t-165 15q-137 0 -205.5 -42 t-91.5 -145q-13 -54 0 -90t62 -58t149 -34q196 -26 265.5 -126.5t27.5 -301.5q-53 -245 -193 -347t-395 -102q-94 0 -186.5 17.5t-155.5 46.5zM479 1530l256 264h201l149 -264h-190l-84 160l-149 -160h-183z" />
<glyph unicode="&#x15d;" horiz-adv-x="802" d="M2 27l86 200q40 -21 108 -35t130 -14q90 0 132 25t58 102q12 58 -19.5 85.5t-134.5 39.5q-143 14 -196 78.5t-21 218.5q21 99 61 167.5t97 107t123 55t149 16.5q145 0 269 -57l-88 -199q-107 49 -232 49q-83 0 -121.5 -22.5t-54.5 -98.5q-12 -54 18.5 -77t129.5 -35 q151 -21 204 -90.5t21 -223.5q-21 -99 -61 -168t-97.5 -107.5t-123.5 -55.5t-150 -17q-70 0 -152.5 15.5t-134.5 40.5zM283 1163l258 264h198l150 -264h-191l-84 156l-145 -156h-186z" />
<glyph unicode="&#x15e;" horiz-adv-x="1019" d="M20 35l97 233q51 -22 132 -36.5t163 -14.5q141 0 211 41t94 148q11 53 1.5 92.5t-63 66.5t-157.5 39q-96 12 -157.5 37.5t-99.5 71.5t-43 115.5t13 168.5q53 246 196 355.5t388 109.5q92 0 183.5 -17.5t154.5 -45.5l-99 -234q-45 22 -126 37t-165 15q-137 0 -205.5 -42 t-91.5 -145q-13 -54 0 -90t62 -58t149 -34q196 -26 265.5 -126.5t27.5 -301.5q-53 -245 -193 -347t-395 -102q-94 0 -186.5 17.5t-155.5 46.5zM172 -383l57 111q39 -25 113 -25q39 0 55.5 11t22.5 42q9 38 -21 49t-120 5l98 190h82l-19 -86q97 0 131.5 -35.5t14.5 -124.5 q-20 -96 -78.5 -133t-183.5 -37q-102 0 -152 33z" />
<glyph unicode="&#x15f;" horiz-adv-x="804" d="M2 27l86 200q40 -21 108 -35t130 -14q90 0 132 25t58 102q12 58 -19.5 85.5t-134.5 39.5q-143 14 -196 78.5t-21 218.5q21 99 61 167.5t97 107t123 55t149 16.5q145 0 269 -57l-88 -199q-107 49 -232 49q-83 0 -121.5 -22.5t-54.5 -98.5q-12 -54 18.5 -77t129.5 -35 q151 -21 204 -90.5t21 -223.5q-21 -99 -61 -168t-97.5 -107.5t-123.5 -55.5t-150 -17q-70 0 -152.5 15.5t-134.5 40.5zM57 -383l60 111q39 -25 112 -25q39 0 55.5 11t22.5 42q9 38 -21 49t-122 5l100 190h80l-18 -86q99 0 133 -35.5t14 -124.5q-20 -96 -78.5 -133 t-183.5 -37q-101 0 -154 33z" />
<glyph unicode="&#x160;" horiz-adv-x="1019" d="M20 35l97 233q51 -22 132 -36.5t163 -14.5q141 0 211 41t94 148q11 53 1.5 92.5t-63 66.5t-157.5 39q-96 12 -157.5 37.5t-99.5 71.5t-43 115.5t13 168.5q53 246 196 355.5t388 109.5q92 0 183.5 -17.5t154.5 -45.5l-99 -234q-45 22 -126 37t-165 15q-137 0 -205.5 -42 t-91.5 -145q-13 -54 0 -90t62 -58t149 -34q196 -26 265.5 -126.5t27.5 -301.5q-53 -245 -193 -347t-395 -102q-94 0 -186.5 17.5t-155.5 46.5zM522 1794h189l84 -160l149 160h184l-258 -264h-200z" />
<glyph unicode="&#x161;" horiz-adv-x="802" d="M2 27l86 200q40 -21 108 -35t130 -14q90 0 132 25t58 102q12 58 -19.5 85.5t-134.5 39.5q-143 14 -196 78.5t-21 218.5q21 99 61 167.5t97 107t123 55t149 16.5q145 0 269 -57l-88 -199q-107 49 -232 49q-83 0 -121.5 -22.5t-54.5 -98.5q-12 -54 18.5 -77t129.5 -35 q151 -21 204 -90.5t21 -223.5q-21 -99 -61 -168t-97.5 -107.5t-123.5 -55.5t-150 -17q-70 0 -152.5 15.5t-134.5 40.5zM328 1427h192q12 -23 40 -75t42 -80q125 130 148 155h184q-84 -88 -256 -264h-201z" />
<glyph unicode="&#x162;" horiz-adv-x="997" d="M137 -446l191 342h219l-250 -342h-160zM176 1194l51 233h987l-51 -233h-385l-252 -1194h-217l252 1194h-385z" />
<glyph unicode="&#x163;" horiz-adv-x="681" d="M-20 -446l190 342h219l-250 -342h-159zM109 821l47 221h139l37 177l225 104l-59 -281h278l-47 -221h-276l-97 -448q-22 -97 -3.5 -140t89.5 -43q68 0 150 29l-8 -201q-110 -47 -238 -47q-59 0 -99 9.5t-70 34.5t-42.5 68t-10 109t22.5 158l101 471h-139z" />
<glyph unicode="&#x164;" horiz-adv-x="997" d="M176 1194l51 233h987l-51 -233h-385l-252 -1194h-217l252 1194h-385zM502 1794h188l84 -160l150 160h184l-258 -264h-199z" />
<glyph unicode="&#x165;" horiz-adv-x="679" d="M109 821l47 221h139l37 177l225 104l-59 -281h276l-47 -221h-276l-97 -448q-22 -97 -3 -140t91 -43q70 0 148 29l-6 -201q-110 -47 -238 -47q-59 0 -99 9.5t-70 34.5t-42.5 68t-10 109t22.5 158l101 471h-139zM645 1184l117 393h180l-178 -393h-119z" />
<glyph unicode="&#x166;" horiz-adv-x="995" d="M174 1190l51 237h987l-51 -237h-385l-110 -520h114l-41 -189h-114l-101 -481h-217l101 481h-127l41 189h127l110 520h-385z" />
<glyph unicode="&#x167;" horiz-adv-x="679" d="M74 444l35 168h94l45 211h-139l47 219h139l37 177l225 104l-59 -281h276l-47 -219h-276l-45 -211h157l-35 -168h-159l-15 -71q-22 -97 -2 -140t92 -43q68 0 146 29l-6 -201q-110 -47 -238 -47q-58 0 -98 9.5t-70.5 34.5t-43 68t-10 109t22.5 158l21 94h-94z" />
<glyph unicode="&#x168;" horiz-adv-x="1216" d="M116.5 268q0.5 72 20.5 164l213 995h217l-202 -954q-31 -142 14.5 -198t191.5 -56q145 0 217 54t103 200l203 954h215l-211 -995q-24 -111 -63 -192t-88.5 -132.5t-117.5 -82t-141 -42.5t-168 -12q-78 0 -137.5 8t-111.5 28t-84.5 54t-51.5 84.5t-18.5 122.5zM569 1628 q54 79 104.5 120.5t106.5 41.5q31 0 57.5 -11t46 -27t37 -31.5t37.5 -26.5t41 -11q30 0 56 25.5t57 91.5l80 -102q-42 -84 -105.5 -137.5t-132.5 -53.5q-32 0 -62.5 17.5t-50.5 38t-46.5 38t-51.5 17.5q-26 0 -50 -23t-54 -79z" />
<glyph unicode="&#x169;" horiz-adv-x="954" d="M92.5 225.5q0.5 94.5 30.5 235.5l125 581h203l-119 -555q-27 -113 -23 -177t35 -87.5t105 -23.5q78 0 155 26l174 817h203l-209 -983q-88 -38 -203.5 -64t-210.5 -26q-91 0 -148 24t-87.5 81t-30 151.5zM362 1262q58 82 108 123.5t108 41.5q38 0 69.5 -17t48.5 -37 t41 -37t49 -17q30 0 55 25.5t58 93.5l80 -103q-42 -87 -101 -138.5t-130 -51.5q-33 0 -62.5 17t-48 37t-44.5 37t-52 17q-53 0 -109 -104z" />
<glyph unicode="&#x16a;" horiz-adv-x="1216" d="M116.5 268q0.5 72 20.5 164l213 995h217l-202 -954q-31 -142 14.5 -198t191.5 -56q145 0 217 54t103 200l203 954h215l-211 -995q-24 -111 -63 -192t-88.5 -132.5t-117.5 -82t-141 -42.5t-168 -12q-78 0 -137.5 8t-111.5 28t-84.5 54t-51.5 84.5t-18.5 122.5zM623 1542 l39 189h454l-39 -189h-454z" />
<glyph unicode="&#x16b;" horiz-adv-x="954" d="M92.5 225.5q0.5 94.5 30.5 235.5l125 581h203l-119 -555q-27 -113 -23 -177t35 -87.5t105 -23.5q78 0 155 26l174 817h203l-209 -983q-88 -38 -203.5 -64t-210.5 -26q-91 0 -148 24t-87.5 81t-30 151.5zM412 1180l39 184h456l-39 -184h-456z" />
<glyph unicode="&#x16c;" horiz-adv-x="1216" d="M116.5 268q0.5 72 20.5 164l213 995h217l-202 -954q-31 -142 14.5 -198t191.5 -56q145 0 217 54t103 200l203 954h215l-211 -995q-24 -111 -63 -192t-88.5 -132.5t-117.5 -82t-141 -42.5t-168 -12q-78 0 -137.5 8t-111.5 28t-84.5 54t-51.5 84.5t-18.5 122.5zM662 1784 h139q-14 -69 5.5 -94t76.5 -25q56 0 88.5 25.5t46.5 93.5h131q-59 -281 -305 -281q-244 0 -182 281z" />
<glyph unicode="&#x16d;" horiz-adv-x="954" d="M92.5 225.5q0.5 94.5 30.5 235.5l125 581h203l-119 -555q-27 -113 -23 -177t35 -87.5t105 -23.5q78 0 155 26l174 817h203l-209 -983q-88 -38 -203.5 -64t-210.5 -26q-91 0 -148 24t-87.5 81t-30 151.5zM451 1427h139q-14 -69 5.5 -93.5t76.5 -24.5t89 25t46 93h131 q-59 -280 -305 -280q-244 0 -182 280z" />
<glyph unicode="&#x16e;" horiz-adv-x="1216" d="M116.5 268q0.5 72 20.5 164l213 995h217l-202 -954q-31 -142 14.5 -198t191.5 -56q145 0 217 54t103 200l203 954h215l-211 -995q-24 -111 -63 -192t-88.5 -132.5t-117.5 -82t-141 -42.5t-168 -12q-78 0 -137.5 8t-111.5 28t-84.5 54t-51.5 84.5t-18.5 122.5zM672 1622 q23 109 78.5 155t160.5 46q100 0 137.5 -46.5t14.5 -154.5t-80 -154.5t-158 -46.5t-138.5 46.5t-14.5 154.5zM784 1620q-10 -47 2.5 -67.5t61.5 -20.5q48 0 69.5 20.5t32.5 67.5q9 48 -3 68t-60 20q-49 0 -71.5 -20.5t-31.5 -67.5z" />
<glyph unicode="&#x16f;" horiz-adv-x="954" d="M92.5 225.5q0.5 94.5 30.5 235.5l125 581h203l-119 -555q-27 -113 -23 -177t35 -87.5t105 -23.5q78 0 155 26l174 817h203l-209 -983q-88 -38 -203.5 -64t-210.5 -26q-91 0 -148 24t-87.5 81t-30 151.5zM481 1317q23 109 79 155t161 46q100 0 137 -46.5t14 -154.5 q-23 -110 -79.5 -155.5t-157.5 -45.5t-139 45.5t-15 155.5zM594 1313q-10 -47 3 -67.5t60 -20.5q48 0 69.5 21t31.5 67q10 48 -2.5 68t-61.5 20q-48 0 -69.5 -20t-30.5 -68z" />
<glyph unicode="&#x170;" horiz-adv-x="1216" d="M116.5 268q0.5 72 20.5 164l213 995h217l-202 -954q-31 -142 14.5 -198t191.5 -56q145 0 217 54t103 200l203 954h215l-211 -995q-24 -111 -63 -192t-88.5 -132.5t-117.5 -82t-141 -42.5t-168 -12q-78 0 -137.5 8t-111.5 28t-84.5 54t-51.5 84.5t-18.5 122.5zM588 1530 l205 264h178l-244 -264h-139zM856 1530l205 264h180l-244 -264h-141z" />
<glyph unicode="&#x171;" horiz-adv-x="956" d="M92.5 225.5q0.5 94.5 30.5 235.5l125 581h203l-119 -555q-27 -113 -23 -177t35 -87.5t105 -23.5q78 0 155 26l174 817h203l-209 -983q-88 -38 -203.5 -64t-210.5 -26q-91 0 -148 24t-87.5 81t-30 151.5zM375 1163l205 264h178l-244 -264h-139zM643 1163l205 264h180 l-244 -264h-141z" />
<glyph unicode="&#x172;" horiz-adv-x="1216" d="M116.5 268q0.5 72 20.5 164l213 995h217l-202 -954q-31 -142 14.5 -198t191.5 -56q145 0 217 54t103 200l203 954h215l-211 -995q-24 -111 -63 -192t-88.5 -132.5t-117.5 -82t-141 -42.5t-168 -12q-78 0 -137.5 8t-111.5 28t-84.5 54t-51.5 84.5t-18.5 122.5zM352 -233 q18 85 86.5 154t182.5 104h63q-97 -62 -134.5 -107t-49.5 -106q-9 -45 7 -63.5t75 -18.5q38 0 78.5 15t68.5 40l31 -129q-45 -35 -109.5 -53.5t-122.5 -18.5q-120 0 -158.5 44t-17.5 139z" />
<glyph unicode="&#x173;" horiz-adv-x="954" d="M92.5 225.5q0.5 94.5 30.5 235.5l125 581h203l-119 -555q-27 -113 -23 -177t35 -87.5t105 -23.5q78 0 155 26l174 817h203l-209 -983q-88 -38 -203.5 -64t-210.5 -26q-91 0 -148 24t-87.5 81t-30 151.5zM330 -233q20 86 87.5 154.5t180.5 103.5h64q-96 -62 -133 -107 t-50 -106q-9 -45 6.5 -63.5t73.5 -18.5q38 0 79 15t69 40l30 -129q-45 -35 -108.5 -53.5t-122.5 -18.5q-120 0 -158 44t-18 139z" />
<glyph unicode="&#x174;" horiz-adv-x="1595" d="M217 1427h236q27 -527 12 -1091q301 655 463 1091h200q5 -809 -8 -1091q251 539 469 1091h223q-307 -752 -632 -1427h-277q29 476 29 979q-130 -345 -416 -979h-274q8 955 -25 1427zM745 1530l259 264h198l150 -264h-191l-82 160l-149 -160h-185z" />
<glyph unicode="&#x175;" horiz-adv-x="1359" d="M139 1042h215q29 -371 23 -782q72 148 179.5 390t168.5 392h197q9 -150 9.5 -383.5t-7.5 -398.5q229 455 360 782h207q-233 -536 -506 -1042h-252q19 404 12 698q-131 -329 -307 -698h-252q-7 598 -47 1042zM545 1163l256 264h200l150 -264h-193l-84 156l-145 -156h-184z " />
<glyph unicode="&#x176;" horiz-adv-x="1046" d="M160 1427h282q103 -248 201 -544q251 311 418 544h262q-311 -416 -635 -811l-129 -616h-215l129 614q-175 500 -313 813zM475 1530l258 264h199l149 -264h-190l-82 160l-150 -160h-184z" />
<glyph unicode="&#x177;" horiz-adv-x="837" d="M-6 -393q95 141 207 342q-3 599 -62 1093h213q37 -339 37 -790q242 465 375 790h207q-231 -514 -547 -1085q-76 -141 -205 -350h-225zM283 1163l258 264h198l150 -264h-191l-84 156l-145 -156h-186z" />
<glyph unicode="&#x178;" horiz-adv-x="1046" d="M160 1427h282q103 -248 201 -544q251 311 418 544h262q-311 -416 -635 -811l-129 -616h-215l129 614q-175 500 -313 813zM531.5 1553q-14.5 23 0.5 102q14 71 39.5 92.5t83.5 21.5q57 0 72 -21t0 -93q-17 -78 -41.5 -101.5t-81.5 -23.5q-58 0 -72.5 23zM881 1553 q-14 23 2 102q15 71 39.5 92.5t83.5 21.5q57 0 71.5 -21t-0.5 -93q-17 -78 -41.5 -101.5t-81.5 -23.5q-59 0 -73 23z" />
<glyph unicode="&#x179;" horiz-adv-x="1019" d="M-53 0l12 66q420 524 866 1128h-589l51 233h925l-14 -61q-184 -261 -441 -598.5t-425 -534.5h614l-49 -233h-950zM598 1530l268 264h226l-316 -264h-178z" />
<glyph unicode="&#x17a;" horiz-adv-x="815" d="M-135 0l10 51q150 177 326 404.5t274 365.5h-407l47 221h719l-13 -51q-126 -179 -304 -409.5t-290 -360.5h418l-45 -221h-735zM371 1163l254 264h219l-295 -264h-178z" />
<glyph unicode="&#x17b;" horiz-adv-x="1019" d="M-53 0l12 66q420 524 866 1128h-589l51 233h925l-14 -61q-184 -261 -441 -598.5t-425 -534.5h614l-49 -233h-950zM693 1559q-14 23 1 102q15 71 39.5 93t81.5 22t73 -22t1 -93q-17 -77 -42.5 -101t-82.5 -24t-71 23z" />
<glyph unicode="&#x17c;" horiz-adv-x="813" d="M-135 0l10 51q150 177 326 404.5t274 365.5h-407l47 221h719l-13 -51q-126 -179 -304 -409.5t-290 -360.5h418l-45 -221h-735zM422.5 1177.5q-13.5 22.5 3.5 104.5q15 71 38 92t81 21t74 -21t2 -92q-18 -79 -43.5 -103t-83.5 -24t-71.5 22.5z" />
<glyph unicode="&#x17d;" horiz-adv-x="1019" d="M-53 0l12 66q420 524 866 1128h-589l51 233h925l-14 -61q-184 -261 -441 -598.5t-425 -534.5h614l-49 -233h-950zM530 1794h189l86 -160l149 160h183l-256 -264h-201z" />
<glyph unicode="&#x17e;" horiz-adv-x="813" d="M-135 0l10 51q150 177 326 404.5t274 365.5h-407l47 221h719l-13 -51q-126 -179 -304 -409.5t-290 -360.5h418l-45 -221h-735zM248 1427h192q1 -3 82 -155q125 130 148 155h184q-43 -44 -128 -132t-128 -132h-201z" />
<glyph unicode="&#x192;" horiz-adv-x="616" d="M-336 -367l82 197q71 -41 164 -41q71 0 116.5 40.5t63.5 141.5l152 852h-148l49 219h148l12 70q15 89 44 156t64 107.5t80.5 65t89 33.5t95.5 9q135 0 227 -45l-90 -201q-63 29 -151 29q-65 0 -105.5 -37t-56.5 -131l-6 -56h278l-49 -219h-279l-151 -852 q-18 -90 -50 -159.5t-70.5 -111.5t-86.5 -69t-93.5 -37t-96.5 -10q-132 0 -232 49z" />
<glyph unicode="&#x1f5;" d="M-47 -356l84 204q118 -51 239 -51q123 0 195.5 54t101.5 192q-107 -68 -227 -68q-90 0 -147 25.5t-90 86.5t-32 167.5t34 263.5q34 159 80.5 266.5t111.5 171t143.5 90.5t184.5 27q92 0 190.5 -21.5t157.5 -56.5l-195 -915q-25 -120 -65.5 -208.5t-89.5 -143.5 t-114.5 -88t-132.5 -45.5t-151 -12.5q-70 0 -150.5 18t-127.5 44zM306.5 260q24.5 -65 133.5 -65q70 0 123.5 26t63.5 72l114 536q-68 35 -155 35q-77 0 -120 -24t-78 -98t-66 -222q-40 -195 -15.5 -260zM494 1163l254 264h219l-295 -264h-178z" />
<glyph unicode="&#x218;" horiz-adv-x="1019" d="M20 35l97 233q51 -22 132 -36.5t163 -14.5q141 0 211 41t94 148q11 53 1.5 92.5t-63 66.5t-157.5 39q-96 12 -157.5 37.5t-99.5 71.5t-43 115.5t13 168.5q53 246 196 355.5t388 109.5q92 0 183.5 -17.5t154.5 -45.5l-99 -234q-45 22 -126 37t-165 15q-137 0 -205.5 -42 t-91.5 -145q-13 -54 0 -90t62 -58t149 -34q196 -26 265.5 -126.5t27.5 -301.5q-53 -245 -193 -347t-395 -102q-94 0 -186.5 17.5t-155.5 46.5zM139 -446l191 342h219l-250 -342h-160z" />
<glyph unicode="&#x219;" horiz-adv-x="804" d="M2 27l86 200q40 -21 108 -35t130 -14q90 0 132 25t58 102q12 58 -19.5 85.5t-134.5 39.5q-143 14 -196 78.5t-21 218.5q21 99 61 167.5t97 107t123 55t149 16.5q145 0 269 -57l-88 -199q-107 49 -232 49q-83 0 -121.5 -22.5t-54.5 -98.5q-12 -54 18.5 -77t129.5 -35 q151 -21 204 -90.5t21 -223.5q-21 -99 -61 -168t-97.5 -107.5t-123.5 -55.5t-150 -17q-70 0 -152.5 15.5t-134.5 40.5zM27 -446l188 342h221l-252 -342h-157z" />
<glyph unicode="&#x2c6;" horiz-adv-x="1081" d="M422 1163l256 264h201l149 -264h-192l-82 156l-148 -156h-184z" />
<glyph unicode="&#x2c7;" horiz-adv-x="1073" d="M479 1427h193q1 -3 82 -155q24 25 72.5 76.5t74.5 78.5h184q-172 -176 -256 -264h-200z" />
<glyph unicode="&#x2d8;" horiz-adv-x="858" d="M375 1427h139q-14 -69 5.5 -93.5t76.5 -24.5t89 25t46 93h131q-32 -144 -107.5 -212t-197.5 -68q-244 0 -182 280z" />
<glyph unicode="&#x2d9;" horiz-adv-x="757" d="M395.5 1177.5q-13.5 22.5 3.5 104.5q15 71 38 92t81 21t74 -21t2 -92q-18 -79 -43.5 -103t-83.5 -24t-71.5 22.5z" />
<glyph unicode="&#x2da;" horiz-adv-x="1169" d="M590 1317q23 109 78.5 155t160.5 46q100 0 137.5 -46.5t14.5 -154.5q-23 -110 -80 -155.5t-158 -45.5t-138.5 45.5t-14.5 155.5zM705 1313q-10 -47 2.5 -67.5t60.5 -20.5t69 21t31 67q10 49 -2 68.5t-61 19.5t-70 -20t-30 -68z" />
<glyph unicode="&#x2db;" horiz-adv-x="1048" d="M379 -233q20 86 87.5 154.5t180.5 103.5h64q-96 -62 -133 -107t-50 -106q-9 -45 6.5 -63.5t73.5 -18.5q86 0 148 55l30 -129q-43 -35 -107 -53.5t-122 -18.5q-121 0 -159.5 44t-18.5 139z" />
<glyph unicode="&#x2dc;" horiz-adv-x="1171" d="M418 1262q55 82 106 123.5t109 41.5q37 0 68 -17t49 -37t42 -37t50 -17q29 0 53 25t59 94l80 -103q-43 -88 -102.5 -139t-130.5 -51q-33 0 -62.5 17t-48 37t-44.5 37t-52 17t-51 -23t-56 -81z" />
<glyph unicode="&#x2dd;" horiz-adv-x="901" d="M432 1163l207 264h178l-246 -264h-139zM700 1163l207 264h178l-243 -264h-142z" />
<glyph unicode="&#x3a9;" horiz-adv-x="1306" d="M-57 0l51 242h258q-59 62 -69 215.5t32 351.5q32 149 77.5 260.5t103 186.5t133 121t160.5 65.5t192 19.5t183.5 -19.5t132 -65.5t81 -121t24 -186t-33.5 -261q-43 -199 -118 -352.5t-159 -214.5h260l-51 -242h-524l47 229q63 21 112 68.5t86 124.5t64.5 166.5 t54.5 216.5q22 105 28 174t-3 118t-39.5 74.5t-76.5 36.5t-120 11q-91 0 -149 -16.5t-104.5 -63.5t-76 -125.5t-57.5 -208.5q-27 -126 -37.5 -215.5t-6 -166t33 -124t82.5 -68.5l-49 -231h-522z" />
<glyph unicode="&#x3c0;" horiz-adv-x="1040" d="M49 90q67 41 90 156l119 555h-129l51 241h959l-52 -241h-135l-170 -801h-202l170 801h-289l-119 -551q-52 -249 -201 -332z" />
<glyph unicode="&#x401;" horiz-adv-x="1015" d="M61 0l304 1427h829l-51 -233h-613l-69 -330h436l-49 -231h-436l-84 -400h612l-49 -233h-830zM544.5 1553q-14.5 23 0.5 102q14 71 39.5 92.5t83.5 21.5q57 0 71.5 -21t-0.5 -93q-17 -78 -41.5 -101.5t-81.5 -23.5t-71.5 23zM892.5 1553q-14.5 23 0.5 102q14 71 39.5 92.5 t83.5 21.5t73.5 -21.5t0.5 -92.5q-17 -77 -42.5 -101t-82.5 -24q-58 0 -72.5 23z" />
<glyph unicode="&#x402;" horiz-adv-x="1236" d="M176 1194l51 233h987l-51 -233h-385l-57 -274q124 71 244 71q54 0 92.5 -9t70.5 -32.5t48 -65.5t21 -106.5t-5.5 -156.5t-36.5 -215q-131 -609 -426 -781l-106 174q50 30 85.5 63t78.5 97.5t80.5 173.5t70.5 264q34 159 33.5 237.5t-28.5 103t-95 24.5q-64 0 -116 -23.5 t-62 -62.5l-144 -676h-217l252 1194h-385z" />
<glyph unicode="&#x403;" horiz-adv-x="903" d="M61 0l304 1427h772l-52 -233h-555l-251 -1194h-218zM616 1530l269 264h225l-315 -264h-179z" />
<glyph unicode="&#x404;" horiz-adv-x="1009" d="M116.5 424.5q4.5 128.5 41.5 302.5t86.5 300.5t109 210.5t138 133.5t166 70t200.5 20.5q78 0 170.5 -15t155.5 -38l-101 -238q-37 20 -108 33t-131 13q-71 0 -119.5 -7t-96 -28t-81.5 -60t-65.5 -102.5t-57.5 -155.5h487l-49 -229h-489q-15 -88 -17.5 -153.5t8 -111.5 t30.5 -75.5t56.5 -46.5t78.5 -23t102 -6q61 0 137.5 12.5t122.5 32.5l-2 -241q-71 -23 -169 -37.5t-177 -14.5q-112 0 -191.5 22.5t-135.5 76t-80 140t-19.5 215z" />
<glyph unicode="&#x405;" horiz-adv-x="1019" d="M20 35l97 233q51 -22 132 -36.5t163 -14.5q141 0 211 41t94 148q11 53 1.5 92.5t-63 66.5t-157.5 39q-96 12 -157.5 37.5t-99.5 71.5t-43 115.5t13 168.5q53 246 196 355.5t388 109.5q92 0 183.5 -17.5t154.5 -45.5l-99 -234q-45 22 -126 37t-165 15q-137 0 -205.5 -42 t-91.5 -145q-13 -54 0 -90t62 -58t149 -34q196 -26 265.5 -126.5t27.5 -301.5q-53 -245 -193 -347t-395 -102q-94 0 -186.5 17.5t-155.5 46.5z" />
<glyph unicode="&#x406;" horiz-adv-x="503" d="M61 0l304 1427h217l-303 -1427h-218z" />
<glyph unicode="&#x407;" horiz-adv-x="503" d="M61 0l304 1427h217l-303 -1427h-218zM245.5 1553q-14.5 23 0.5 102q14 71 39.5 92.5t83.5 21.5q57 0 72.5 -21.5t0.5 -92.5q-17 -77 -42.5 -101t-82.5 -24t-71.5 23zM594.5 1553q-14.5 23 1.5 102q15 71 39.5 92.5t83.5 21.5q57 0 72 -21t0 -93q-17 -78 -41.5 -101.5 t-81.5 -23.5q-59 0 -73.5 23z" />
<glyph unicode="&#x408;" horiz-adv-x="755" d="M-68 27l95 241q78 -43 186 -43q69 0 119 45t74 158l212 999h218l-220 -1034q-89 -422 -436 -422q-136 0 -248 56z" />
<glyph unicode="&#x409;" horiz-adv-x="1751" d="M-31 0q380 801 535 1427h735l-109 -512h365q82 0 135 -34.5t74.5 -97.5t21 -143.5t-21.5 -180.5q-97 -459 -393 -459h-592l252 1184h-322q-161 -592 -452 -1184h-228zM983 227h315q122 0 172 232q50 237 -77 237h-310z" />
<glyph unicode="&#x40a;" horiz-adv-x="1761" d="M61 0l304 1427h217l-111 -518h455l110 518h215l-110 -520h364q82 0 135 -34t74.5 -97t21 -143t-21.5 -180q-96 -453 -391 -453h-590l144 682h-455l-143 -682h-218zM995 227h316q64 0 104.5 55t65.5 171q48 229 -80 229h-309z" />
<glyph unicode="&#x40b;" horiz-adv-x="1245" d="M176 1194l51 233h987l-51 -233h-385l-57 -274q124 71 244 71q62 0 104.5 -12t74.5 -42.5t44.5 -83.5t7.5 -136.5t-29 -198.5l-110 -518h-203l104 498q17 82 18.5 134.5t-14.5 80.5t-42.5 38.5t-71.5 10.5q-64 0 -116 -23.5t-62 -62.5l-144 -676h-217l252 1194h-385z" />
<glyph unicode="&#x40c;" horiz-adv-x="1087" d="M61 0l304 1427h217l-148 -688q105 102 269 289t325 399h262q-199 -254 -346.5 -422t-208.5 -219q43 -20 72 -42.5t63 -75.5t57.5 -132.5t47 -214.5t41.5 -321h-258q-15 164 -35.5 278t-46.5 189t-65 119.5t-82.5 64.5t-106.5 27l-143 -678h-218zM694 1530l269 264h225 l-316 -264h-178z" />
<glyph unicode="&#x40e;" horiz-adv-x="958" d="M109 -2q121 148 266 362q-19 230 -70.5 541.5t-107.5 525.5h258q89 -392 118 -772q297 492 433 772h245q-186 -351 -426.5 -745.5t-441.5 -681.5q-182 0 -274 -2zM573 1784h140q-14 -69 6 -94t78 -25q113 0 135 119h131q-62 -281 -303 -281q-246 0 -187 281z" />
<glyph unicode="&#x40f;" horiz-adv-x="1206" d="M63 0l304 1427h217l-252 -1183h487l252 1183h213l-303 -1427h-348l-117 -385h-145l49 385h-357z" />
<glyph unicode="&#x410;" horiz-adv-x="1118" d="M-96 0q148 319 346 713t371 714h337q14 -348 44 -746t65 -681h-240q-19 165 -34 356h-500q-123 -264 -164 -356h-225zM401 588h379q-22 330 -28 610h-45q-183 -351 -306 -610z" />
<glyph unicode="&#x411;" horiz-adv-x="1165" d="M61 0l304 1427h823l-51 -233h-607l-69 -336h397q157 0 206.5 -109.5t4.5 -324.5q-48 -226 -144 -325t-239 -99h-625zM326 227h360q110 0 152 201q45 211 -72 211h-352z" />
<glyph unicode="&#x412;" horiz-adv-x="1165" d="M61 0l304 1427h614q83 0 134 -23t71.5 -70t20 -106.5t-18.5 -142.5q-16 -77 -35.5 -128.5t-53.5 -96.5t-87.5 -70.5t-130.5 -33.5q63 -4 105.5 -23t65 -49t30 -76.5t2.5 -97.5t-19 -119q-82 -391 -377 -391h-625zM326 227h360q110 0 152 201q45 211 -72 211h-352z M461 858h350q96 0 133 172q20 86 6.5 127t-67.5 41h-351z" />
<glyph unicode="&#x413;" horiz-adv-x="890" d="M61 0l304 1427h772l-52 -233h-555l-251 -1194h-218z" />
<glyph unicode="&#x414;" horiz-adv-x="1314" d="M-104 -315l81 559h181q262 530 422 1183h753l-252 -1183h203l-154 -559h-190l68 315h-856l-68 -315h-188zM391 244h475l201 950h-340q-142 -534 -336 -950z" />
<glyph unicode="&#x415;" horiz-adv-x="1015" d="M61 0l304 1427h829l-51 -233h-613l-69 -330h436l-49 -231h-436l-84 -400h612l-49 -233h-830z" />
<glyph unicode="&#x416;" horiz-adv-x="1564" d="M-92 0q91 186 167 321t130.5 214.5t107 132.5t87.5 75.5t83 42.5q-80 116 -247 641h256q59 -206 130.5 -389t127.5 -290l145 679h215l-145 -679q100 106 251 289t300 390h253q-188 -253 -326 -421t-194 -220q39 -20 65 -42.5t56 -75.5t50.5 -132.5t40 -214.5t32.5 -321 h-252q-17 270 -52.5 414t-89 199t-149.5 67l-143 -680h-215l143 680q-76 -10 -134.5 -41t-126.5 -105.5t-143 -202.5t-173 -331h-250z" />
<glyph unicode="&#x417;" horiz-adv-x="1050" d="M4 23l90 235q51 -19 139.5 -31t159.5 -12q164 0 233.5 45t94.5 162q26 119 -13.5 166t-152.5 47h-186l47 229h182q110 0 162 40t74 143q21 99 -25.5 136.5t-202.5 37.5q-69 0 -161.5 -13t-145.5 -32l6 233q208 53 395 53q248 0 331.5 -84t41.5 -280q-16 -76 -37 -130.5 t-56 -101.5t-89.5 -74.5t-130.5 -35.5q103 -6 153.5 -54t52.5 -128t-20 -189q-49 -227 -180 -320.5t-381 -93.5q-89 0 -199 15t-182 37z" />
<glyph unicode="&#x418;" horiz-adv-x="1267" d="M61 0l304 1427h213l-230 -1077q441 622 733 1077h262l-303 -1427h-213l220 1032q-368 -570 -703 -1032h-283z" />
<glyph unicode="&#x419;" horiz-adv-x="1267" d="M61 0l304 1427h213l-230 -1077q441 622 733 1077h262l-303 -1427h-213l220 1032q-368 -570 -703 -1032h-283zM686 1784h139q-14 -69 5.5 -94t76.5 -25q56 0 88.5 25.5t46.5 93.5h132q-59 -281 -306 -281q-244 0 -182 281z" />
<glyph unicode="&#x41a;" horiz-adv-x="1087" d="M61 0l304 1427h217l-148 -688q105 102 269 289t325 399h262q-199 -254 -346.5 -422t-208.5 -219q43 -20 72 -42.5t63 -75.5t57.5 -132.5t47 -214.5t41.5 -321h-258q-15 164 -35.5 278t-46.5 189t-65 119.5t-82.5 64.5t-106.5 27l-143 -678h-218z" />
<glyph unicode="&#x41b;" horiz-adv-x="1191" d="M-31 0q380 801 535 1427h766l-303 -1427h-213l252 1194h-355q-165 -605 -454 -1194h-228z" />
<glyph unicode="&#x41c;" horiz-adv-x="1499" d="M61 0l304 1427h294q70 -396 127 -913q245 475 510 913h281l-303 -1427h-211l225 1063q-198 -344 -516 -932h-170q-74 721 -106 932l-226 -1063h-209z" />
<glyph unicode="&#x41d;" horiz-adv-x="1204" d="M61 0l304 1427h217l-117 -544h487l117 544h213l-303 -1427h-213l133 633h-487l-133 -633h-218z" />
<glyph unicode="&#x41e;" horiz-adv-x="1259" d="M115.5 422q5.5 129 42.5 305q46 215 109.5 359t152 226.5t192.5 116t246 33.5q113 0 191.5 -21t135.5 -71t80.5 -134t19 -210t-41.5 -299q-46 -219 -110.5 -366.5t-152.5 -233t-192.5 -121t-244.5 -35.5q-113 0 -192.5 22t-136 74t-80.5 139t-18.5 216zM345.5 400.5 q2.5 -58.5 16.5 -93t46.5 -56t76 -29t109.5 -7.5t112 7.5t87.5 29t70 56t56 93t49 135t45.5 187.5t34.5 187t7.5 133.5t-17 90t-47.5 52.5t-75.5 26.5t-109 6.5q-81 0 -132.5 -10.5t-96.5 -39t-76 -86t-58 -142.5t-55 -218q-24 -111 -35 -187.5t-8.5 -135z" />
<glyph unicode="&#x41f;" horiz-adv-x="1204" d="M61 0l304 1427h917l-303 -1427h-213l252 1194h-488l-251 -1194h-218z" />
<glyph unicode="&#x420;" horiz-adv-x="1101" d="M61 0l304 1427h593q319 0 216 -489q-20 -95 -56.5 -177.5t-87.5 -148t-121 -103.5t-149 -38h-383l-98 -471h-218zM426 696h317q68 0 117.5 62t75.5 182q55 258 -82 258h-322z" />
<glyph unicode="&#x421;" horiz-adv-x="970" d="M115.5 425q5.5 128 42.5 302q47 217 109 361t149 226t189.5 115t244.5 33q78 0 166 -15t151 -38l-100 -238q-38 20 -104.5 33t-126.5 13q-68 0 -114 -6t-92 -24.5t-77.5 -51.5t-62 -88t-54.5 -133.5t-47 -188.5q-28 -132 -34.5 -221t4.5 -146t48 -87t86.5 -41t129.5 -11 q60 0 132.5 12.5t118.5 32.5l-2 -241q-161 -52 -337 -52q-112 0 -190.5 23t-133.5 75.5t-78 140t-17.5 215.5z" />
<glyph unicode="&#x422;" horiz-adv-x="997" d="M176 1194l51 233h987l-51 -233h-385l-252 -1194h-217l252 1194h-385z" />
<glyph unicode="&#x423;" horiz-adv-x="1005" d="M111 0q135 165 266 362q-16 209 -70 535t-110 530h258q89 -392 118 -772q287 475 435 772h243q-186 -351 -426.5 -745.5t-441.5 -681.5h-272z" />
<glyph unicode="&#x424;" horiz-adv-x="1308" d="M106.5 426q-17.5 115 22.5 291q29 137 70 229t109.5 159.5t167.5 101t241 42.5l39 178h215l-39 -178q187 -11 281.5 -69.5t114.5 -173t-19 -289.5q-24 -110 -55.5 -190t-78.5 -144t-112.5 -105t-153.5 -65t-204 -31l-37 -182h-215l36 182q-183 11 -274 70t-108.5 174z M324 540q5 -68 54 -100t159 -37l133 623q-86 -4 -140 -21t-90.5 -56.5t-56.5 -92t-39 -141.5q-25 -107 -20 -175zM752 403q72 2 122.5 15t85.5 34.5t59.5 61t40 85t30.5 116.5q26 111 19.5 179.5t-57.5 99t-167 34.5z" />
<glyph unicode="&#x425;" horiz-adv-x="1103" d="M-88 0q200 235 588 721q-152 407 -279 706h277q61 -148 186 -471q239 302 363 471h266q-217 -286 -545 -700q158 -426 260 -727h-268q-24 69 -83 235.5t-91 258.5q-319 -387 -408 -494h-266z" />
<glyph unicode="&#x426;" horiz-adv-x="1265" d="M61 0l304 1427h217l-252 -1183h487l252 1183h213l-252 -1183h205l-156 -559h-188l67 315h-897z" />
<glyph unicode="&#x427;" horiz-adv-x="1091" d="M123.5 736q4.5 71 23.5 159l115 532h217l-110 -514q-14 -68 -15.5 -114t8 -76.5t35.5 -47.5t61.5 -23.5t90.5 -6.5q111 0 182 34t84 97l139 651h215l-303 -1427h-217l99 459q-45 -27 -126.5 -46.5t-166.5 -19.5q-55 0 -98.5 6t-84 21t-69 39.5t-49 63.5t-28 90.5 t-3 122.5z" />
<glyph unicode="&#x428;" horiz-adv-x="1593" d="M61 0l304 1427h217l-252 -1183h329l252 1183h215l-252 -1183h332l252 1183h213l-303 -1427h-1307z" />
<glyph unicode="&#x429;" horiz-adv-x="1652" d="M61 0l304 1427h217l-252 -1183h329l252 1183h215l-252 -1183h332l252 1183h213l-252 -1183h205l-154 -559h-190l68 315h-1287z" />
<glyph unicode="&#x42a;" horiz-adv-x="1183" d="M119 0l252 1194h-172l51 233h389l-109 -507h398q82 0 135 -35t74.5 -99t21 -145.5t-21.5 -181.5q-44 -209 -142.5 -334t-251.5 -125h-624zM383 227h346q64 0 105.5 57.5t66.5 174.5q50 235 -76 235h-342z" />
<glyph unicode="&#x42b;" horiz-adv-x="1529" d="M61 0l304 1427h217l-109 -507h397q82 0 135 -35t74.5 -99t21 -145.5t-21.5 -181.5q-97 -459 -393 -459h-625zM326 227h346q64 0 105.5 57.5t66.5 174.5q50 235 -76 235h-342zM1090 0l303 1427h215l-303 -1427h-215z" />
<glyph unicode="&#x42c;" horiz-adv-x="1126" d="M61 0l304 1427h217l-109 -507h397q82 0 135 -35t74.5 -99t21 -145.5t-21.5 -181.5q-97 -459 -393 -459h-625zM326 227h346q64 0 105.5 57.5t66.5 174.5q50 235 -76 235h-342z" />
<glyph unicode="&#x42d;" horiz-adv-x="1009" d="M-35 23l98 241q38 -20 109.5 -32.5t132.5 -12.5q92 0 152.5 15.5t115.5 59.5t94 126.5t72 214.5h-489l49 229h487q9 66 9.5 117t-6 88.5t-23 63.5t-38 42.5t-55.5 25.5t-69.5 12.5t-85.5 3.5q-60 0 -137 -13t-125 -33l4 238q70 23 168.5 38t177.5 15q113 0 192 -20.5 t137 -70t82 -133.5t19.5 -210.5t-41.5 -300.5q-46 -216 -110 -363t-153 -233.5t-194.5 -123t-246.5 -36.5q-79 0 -172.5 14.5t-153.5 37.5z" />
<glyph unicode="&#x42e;" horiz-adv-x="1581" d="M61 0l304 1427h217l-117 -544h252q45 167 102.5 281.5t129.5 179t151 91.5t180 27q112 0 183.5 -33t113.5 -114t39.5 -225t-47.5 -357q-46 -217 -106 -366t-136.5 -235.5t-163.5 -123.5t-198 -37q-82 0 -142.5 20t-104.5 67.5t-65 123t-19.5 188.5t28.5 263h-250 l-133 -633h-218zM857 406q-2 -111 35 -151t124 -40q89 0 142.5 40.5t97 150t90.5 327.5q28 132 38.5 217.5t8.5 141.5t-24 83.5t-53.5 37.5t-86.5 10q-54 0 -89.5 -10t-70 -38t-60 -83.5t-51.5 -141.5t-53 -217q-46 -216 -48 -327z" />
<glyph unicode="&#x42f;" horiz-adv-x="1157" d="M-37 0q125 255 211 388t143.5 177.5t133.5 59.5q-82 4 -135.5 36t-75 84.5t-24.5 121t17 145.5q18 90 50 162t80 130.5t118.5 90.5t157.5 32h596l-303 -1427h-217l114 545h-180q-53 0 -94 -19t-92 -76t-110.5 -165.5t-139.5 -284.5h-250zM467 977q-22 -103 1 -156t87 -53 h322l92 430h-328q-125 0 -174 -221z" />
<glyph unicode="&#x430;" horiz-adv-x="917" d="M66 319q18 87 47 149t63 99.5t82 59t95.5 28.5t111.5 7q91 0 201 -29q15 71 16 112t-17.5 67.5t-55.5 35t-105 8.5q-147 0 -262 -47l8 209q174 55 344 55q96 0 156.5 -19.5t98 -66.5t39.5 -124.5t-20 -194.5l-131 -615q-84 -37 -193.5 -59.5t-199.5 -22.5 q-201 0 -261.5 73t-16.5 275zM281 330q-23 -104 0.5 -134t117.5 -30q85 0 174 35l56 260q-64 18 -162 18q-47 0 -74 -4.5t-50.5 -20t-37 -45t-24.5 -79.5z" />
<glyph unicode="&#x431;" horiz-adv-x="942" d="M94 339q7 111 39 263q27 129 54 230t56 181.5t58 139.5t65 103t71 73t81.5 48t92 28.5t106.5 15.5q203 20 330 80l-48 -225q-94 -48 -319 -72q-63 -7 -106 -26.5t-74.5 -60t-52.5 -87t-46 -125.5q99 123 254 123q67 0 114 -14.5t82.5 -50t50 -94.5t10 -149.5 t-30.5 -213.5q-33 -155 -78 -259t-109 -165t-141 -86t-184 -25q-74 0 -125 16t-89.5 58t-53 112.5t-7.5 181.5zM304.5 246.5q23.5 -66.5 113.5 -66.5q57 0 91 10t65.5 44t54 97.5t45.5 170.5q20 94 23.5 153.5t-11.5 94t-44.5 47t-80.5 12.5q-108 0 -156.5 -62.5 t-85.5 -244.5q-38 -189 -14.5 -255.5z" />
<glyph unicode="&#x432;" horiz-adv-x="950" d="M31 0l221 1042h504q133 0 169 -61.5t9 -187.5q-24 -113 -76 -171.5t-166 -68.5q80 -3 121 -37.5t44.5 -93t-11.5 -137.5q-60 -285 -305 -285h-510zM274 197h250q48 0 75 27t40 91q29 136 -66 136h-245zM369 637h241q43 0 67 25.5t36 80.5q12 59 -1.5 81t-58.5 22h-241z " />
<glyph unicode="&#x433;" horiz-adv-x="694" d="M31 0l221 1042h579l-47 -221h-376l-175 -821h-202z" />
<glyph unicode="&#x434;" horiz-adv-x="1062" d="M-90 -289l61 510h150q194 444 291 821h622l-176 -821h162l-156 -510h-162l62 289h-629l-61 -289h-164zM334 221h321l129 600h-233q-74 -257 -217 -600z" />
<glyph unicode="&#x435;" horiz-adv-x="903" d="M86 304q1 96 27 222q32 154 81 261.5t114 169.5t140 89t170 27q83 0 137 -16t92 -56t49.5 -110t0.5 -177.5t-47 -258.5h-539q-13 -67 -14 -114t8.5 -77t33 -47.5t54.5 -24t78 -6.5q45 0 118.5 12.5t123.5 30.5l-11 -200q-66 -26 -151.5 -42t-149.5 -16q-75 0 -131.5 16.5 t-100 56t-64 102t-19.5 158.5zM354 649h351q10 56 11.5 94t-5 64t-23.5 40t-41 19.5t-61 5.5q-96 0 -145.5 -47.5t-86.5 -175.5z" />
<glyph unicode="&#x436;" horiz-adv-x="1308" d="M-78 0q92 164 163.5 274t123.5 166.5t84 80t72 42.5q-29 38 -85 166t-116 313h233q103 -302 189 -495l106 495h203l-107 -495q137 150 404 495h233q-142 -186 -251.5 -314t-153.5 -165q33 -19 54.5 -42.5t49.5 -80.5t52 -166t47 -274h-232q-19 129 -43.5 221t-53.5 144 t-56.5 78.5t-61.5 39.5l-102 -483h-203l102 483q-40 -13 -79 -39.5t-89.5 -78.5t-112.5 -143.5t-136 -221.5h-234z" />
<glyph unicode="&#x437;" horiz-adv-x="845" d="M-29 10l90 228q102 -50 252 -50q116 0 162.5 30t61.5 108q15 72 -20 100.5t-132 28.5h-127l39 190h127q92 0 132 22t52 83q12 60 -19 83t-134 23q-145 0 -265 -45l5 221q148 41 309 41q149 0 226.5 -26.5t101 -83.5t2.5 -158q-25 -117 -81.5 -180t-170.5 -74 q118 -7 153.5 -77.5t7.5 -197.5q-36 -174 -142.5 -239.5t-330.5 -65.5q-174 0 -299 39z" />
<glyph unicode="&#x438;" horiz-adv-x="970" d="M31 0l221 1042h203l-142 -663q197 231 482 663h202l-221 -1042h-203l136 637q-215 -322 -476 -637h-202z" />
<glyph unicode="&#x439;" horiz-adv-x="970" d="M31 0l221 1042h203l-142 -663q197 231 482 663h202l-221 -1042h-203l136 637q-215 -322 -476 -637h-202zM461 1427h139q-14 -69 5.5 -93.5t78.5 -24.5q113 0 135 118h131q-32 -144 -107.5 -212t-195.5 -68q-245 0 -186 280z" />
<glyph unicode="&#x43a;" horiz-adv-x="901" d="M31 0l221 1042h203l-107 -501q168 180 430 501h240q-325 -404 -418 -477q27 -14 45 -30.5t41.5 -54t43 -95t42 -154.5t45.5 -231h-237q-23 135 -50 227t-59 143.5t-63 76t-72 36.5l-103 -483h-202z" />
<glyph unicode="&#x43b;" horiz-adv-x="935" d="M-29 0q224 493 367 1042h623l-222 -1042h-202l174 821h-226q-126 -441 -301 -821h-213z" />
<glyph unicode="&#x43c;" horiz-adv-x="1232" d="M31 0l221 1042h297q42 -257 84 -620q158 309 344 620h283l-222 -1042h-200l159 760q-190 -324 -376 -699h-154q-35 444 -74 699l-162 -760h-200z" />
<glyph unicode="&#x43d;" horiz-adv-x="960" d="M31 0l221 1042h203l-82 -383h327l82 383h203l-221 -1042h-203l92 442h-327l-93 -442h-202z" />
<glyph unicode="&#x43e;" d="M82.5 304q3.5 94 30.5 222q33 158 80 265t112 168.5t142 87.5t180 26q83 0 140.5 -16t99 -54t59 -100.5t14 -156t-30.5 -220.5q-34 -159 -80.5 -267t-111.5 -171.5t-142.5 -90t-181.5 -26.5q-82 0 -140 16.5t-99 55.5t-58 103t-13.5 158zM293.5 346q-5.5 -66 9.5 -104 t45.5 -51t87.5 -13q76 0 120 26t77.5 99t64.5 219q24 114 29.5 180.5t-10.5 103.5t-46.5 48.5t-88.5 11.5t-93 -11.5t-66.5 -48.5t-54 -103.5t-46.5 -180.5q-23 -110 -28.5 -176z" />
<glyph unicode="&#x43f;" horiz-adv-x="960" d="M31 0l221 1042h733l-221 -1042h-203l174 821h-327l-175 -821h-202z" />
<glyph unicode="&#x440;" d="M-53 -393l295 1388q74 35 181.5 56.5t199.5 21.5q85 0 144.5 -16.5t100.5 -54.5t57.5 -102t12.5 -157t-31 -221q-33 -156 -80.5 -264.5t-109.5 -170.5t-132 -89t-157 -27q-64 0 -106 16t-82 44l-90 -424h-203zM293 287q-9 -45 32.5 -73t110.5 -28q108 0 163.5 69 t96.5 261q19 87 24.5 145.5t1 97t-24 59t-48 28.5t-74.5 8q-94 0 -167 -31z" />
<glyph unicode="&#x441;" horiz-adv-x="772" d="M85 304.5q1 95.5 28 221.5q33 156 84 264.5t120 169.5t147.5 87t178.5 26q61 0 131.5 -14t112.5 -35l-94 -217q-81 45 -183 45q-60 0 -99 -11t-76 -45t-63.5 -100.5t-49.5 -173.5q-22 -102 -23.5 -167.5t20 -100.5t56.5 -48t94 -13q102 0 205 49v-217q-52 -24 -127.5 -39 t-136.5 -15q-79 0 -137.5 16.5t-102.5 56t-65 102.5t-20 158.5z" />
<glyph unicode="&#x442;" horiz-adv-x="794" d="M100 821l47 221h779l-47 -221h-289l-174 -821h-203l174 821h-287z" />
<glyph unicode="&#x443;" horiz-adv-x="837" d="M-6 -393q95 141 207 342q-3 599 -62 1093h213q37 -339 37 -790q242 465 375 790h207q-231 -514 -547 -1085q-76 -141 -205 -350h-225z" />
<glyph unicode="&#x444;" horiz-adv-x="1378" d="M80.5 257.5q1.5 108.5 34.5 264.5q34 160 76.5 266t102.5 169.5t132 89.5t172 26q56 0 131 -20l84 399h203l-84 -399q78 20 139 20q100 0 161 -26t94 -89.5t31 -169.5t-36 -266q-33 -156 -78 -264.5t-102.5 -170.5t-121.5 -89t-145 -27q-99 0 -159 60l-90 -424h-203 l90 424q-87 -60 -184 -60q-82 0 -135 27t-83.5 89t-29 170.5zM287.5 315.5q4.5 -73.5 32.5 -101.5t88 -28q62 0 105 27t52 72l115 542q-58 27 -129 27q-64 0 -102.5 -24.5t-72 -98t-63.5 -215.5q-30 -127 -25.5 -200.5zM768 281q-9 -44 22.5 -69.5t92.5 -25.5q89 0 142 71 t93 259q23 108 28.5 174t-8.5 102.5t-40 49t-74 12.5q-74 0 -141 -27z" />
<glyph unicode="&#x445;" horiz-adv-x="854" d="M-72 0q175 197 434 520q-121 330 -210 522h241q61 -141 125 -319q111 143 240 319h225q-118 -160 -397 -514q90 -244 178 -528h-229q-30 106 -107 330q-149 -186 -274 -330h-226z" />
<glyph unicode="&#x446;" horiz-adv-x="1042" d="M31 0l221 1042h203l-176 -821h327l176 821h203l-174 -821h186l-155 -510h-164l61 289h-708z" />
<glyph unicode="&#x447;" horiz-adv-x="909" d="M116.5 589.5q4.5 83.5 28.5 198.5l54 254h204l-51 -233q-17 -82 -17.5 -134.5t16 -80.5t44 -38.5t72.5 -10.5q66 0 117 24t61 68l86 405h203l-221 -1042h-203l82 387q-49 -29 -117 -50.5t-129 -21.5q-62 0 -104 12t-74 42.5t-44 83.5t-7.5 136.5z" />
<glyph unicode="&#x448;" horiz-adv-x="1404" d="M31 0l221 1042h203l-176 -821h286l174 821h205l-176 -821h283l176 821h203l-222 -1042h-1177z" />
<glyph unicode="&#x449;" horiz-adv-x="1486" d="M31 0l221 1042h203l-176 -821h286l174 821h205l-176 -821h283l176 821h203l-177 -821h189q-80 -255 -156 -510h-164l62 289h-1153z" />
<glyph unicode="&#x44a;" horiz-adv-x="1001" d="M86 0l174 821h-160l47 221h363l-80 -376h293q259 0 188 -330q-37 -180 -116.5 -258t-212.5 -78h-496zM328 188h245q96 0 125 144q15 73 -2 105t-65 32h-244z" />
<glyph unicode="&#x44b;" horiz-adv-x="1269" d="M31 0l221 1042h203l-80 -376h293q259 0 188 -330q-37 -180 -117 -258t-213 -78h-495zM272 188h246q48 0 78 34t47 110q15 73 -2 105t-66 32h-243zM872 0l222 1042h202l-221 -1042h-203z" />
<glyph unicode="&#x44c;" horiz-adv-x="946" d="M31 0l221 1042h203l-80 -376h293q259 0 188 -330q-37 -180 -117 -258t-213 -78h-495zM272 188h246q96 0 125 144q15 73 -2 105t-66 32h-243z" />
<glyph unicode="&#x44d;" horiz-adv-x="788" d="M-39 25l88 202q72 -43 189 -43q102 0 164.5 57.5t103.5 213.5h-334l41 194h330q13 124 -27 166.5t-135 42.5q-125 0 -207 -39v205q50 21 126.5 35t137.5 14q76 0 133 -16t101.5 -54.5t66 -100t21 -156.5t-26.5 -220q-33 -157 -85 -267t-121.5 -172t-147 -89t-174.5 -27 q-62 0 -131.5 15t-112.5 39z" />
<glyph unicode="&#x44e;" horiz-adv-x="1390" d="M31 0l221 1042h203l-82 -383h215q36 118 82 199t105.5 128t127.5 67t156 20q81 0 137.5 -16t97.5 -54t58 -100.5t13.5 -156t-30.5 -220.5q-33 -159 -80 -267t-111.5 -171t-141 -90t-177.5 -27q-74 0 -127.5 14.5t-93.5 47.5t-58 87.5t-22 134.5t15 187h-213l-93 -442 h-202zM733.5 346q-5.5 -67 9 -105t43.5 -51.5t82 -13.5q72 0 115.5 26.5t78 101t64.5 218.5q24 113 29.5 180.5t-10 104.5t-45 49t-84.5 12q-71 0 -112.5 -24t-76 -98.5t-65.5 -223.5q-23 -109 -28.5 -176z" />
<glyph unicode="&#x44f;" horiz-adv-x="970" d="M-41 0q98 180 163 273.5t114.5 130t113.5 47.5q-123 6 -162.5 85t-13.5 201q29 138 109 221.5t221 83.5h493l-221 -1042h-203l78 371h-127q-57 0 -99.5 -27t-97.5 -107t-134 -237h-234zM387 707q-29 -136 74 -136h233l56 267h-238q-49 0 -80 -30t-45 -101z" />
<glyph unicode="&#x451;" horiz-adv-x="903" d="M86 304q1 96 27 222q32 154 81 261.5t114 169.5t140 89t170 27q83 0 137 -16t92 -56t49.5 -110t0.5 -177.5t-47 -258.5h-539q-13 -67 -14 -114t8.5 -77t33 -47.5t54.5 -24t78 -6.5q45 0 118.5 12.5t123.5 30.5l-11 -200q-66 -26 -151.5 -42t-149.5 -16q-75 0 -131.5 16.5 t-100 56t-64 102t-19.5 158.5zM354 649h351q10 56 11.5 94t-5 64t-23.5 40t-41 19.5t-61 5.5q-96 0 -145.5 -47.5t-86.5 -175.5zM381.5 1200.5q-5.5 28.5 9.5 81.5q14 71 38.5 92t82.5 21t74 -21t2 -92q-18 -79 -43.5 -103t-83.5 -24q-40 0 -57 8.5t-22.5 37zM738 1177.5 q-14 22.5 3 104.5q15 71 38.5 92t82.5 21q57 0 72.5 -21t1.5 -92q-18 -79 -43.5 -103t-81.5 -24q-59 0 -73 22.5z" />
<glyph unicode="&#x452;" horiz-adv-x="944" d="M31 0l252 1190h-84l37 178h83l25 111h203l-25 -111h170l-37 -178h-170l-45 -213q50 31 117 51.5t127 20.5q66 0 109.5 -14.5t76 -52.5t42.5 -104.5t0.5 -172t-40.5 -252.5q-38 -180 -92.5 -329t-114 -246t-116 -159t-111.5 -94l-108 174q47 28 87 70t83 114.5t82.5 188.5 t72.5 272q26 121 33 193t-6 111t-39 51t-76 12q-65 0 -117 -23.5t-63 -64.5l-154 -723h-202z" />
<glyph unicode="&#x453;" horiz-adv-x="694" d="M31 0l221 1042h579l-47 -219h-376l-175 -823h-202zM428 1163l254 264h219l-295 -264h-178z" />
<glyph unicode="&#x454;" horiz-adv-x="788" d="M86.5 304q0.5 96 26.5 222q33 156 85.5 264.5t122 169.5t147 87t173.5 26q61 0 131.5 -14t112.5 -35l-88 -205q-68 39 -189 39q-97 0 -156 -42.5t-96 -166.5h328l-41 -194h-332q-11 -82 -9.5 -134.5t25 -83t56 -42t82.5 -11.5q114 0 205 43l2 -202q-53 -24 -127.5 -39 t-134.5 -15q-77 0 -134.5 16.5t-102 56t-66 102t-21 158.5z" />
<glyph unicode="&#x455;" horiz-adv-x="804" d="M2 27l86 200q40 -21 108 -35t130 -14q90 0 132 25t58 102q12 58 -19.5 85.5t-134.5 39.5q-143 14 -196 78.5t-21 218.5q21 99 61 167.5t97 107t123 55t149 16.5q145 0 269 -57l-88 -199q-107 49 -232 49q-83 0 -121.5 -22.5t-54.5 -98.5q-12 -54 18.5 -77t129.5 -35 q151 -21 204 -90.5t21 -223.5q-21 -99 -61 -168t-97.5 -107.5t-123.5 -55.5t-150 -17q-70 0 -152.5 15.5t-134.5 40.5z" />
<glyph unicode="&#x456;" horiz-adv-x="428" d="M31 0l221 1042h203l-222 -1042h-202zM302 1237q-19 27 1 115q17 79 45 102t98 23t89 -23t2 -102q-20 -88 -49 -115t-97 -27q-70 0 -89 27z" />
<glyph unicode="&#x457;" horiz-adv-x="428" d="M31 0l221 1042h203l-222 -1042h-202zM129.5 1177.5q-13.5 22.5 3.5 104.5q15 71 38 92t81 21t74 -21t2 -92q-18 -79 -43.5 -103t-83.5 -24t-71.5 22.5zM471.5 1200.5q-5.5 28.5 9.5 81.5q14 71 38.5 92t82.5 21t73.5 -21t0.5 -92q-18 -80 -43 -103.5t-82 -23.5 q-40 0 -57 8.5t-22.5 37z" />
<glyph unicode="&#x458;" horiz-adv-x="430" d="M-410 -369l84 197q74 -41 172 -41q139 0 181 184l227 1071h203l-228 -1069q-85 -389 -405 -389q-138 0 -234 47zM302 1237q-19 27 1 115q17 79 46 102t100 23q69 0 88 -23t2 -102q-20 -88 -50 -115t-98 -27q-70 0 -89 27z" />
<glyph unicode="&#x459;" horiz-adv-x="1452" d="M-29 0q224 493 367 1042h623l-80 -376h293q259 0 188 -330q-37 -180 -117 -258t-213 -78h-495l174 821h-226q-126 -441 -301 -821h-213zM778 188h246q96 0 125 144q15 73 -2 105t-66 32h-243z" />
<glyph unicode="&#x45a;" horiz-adv-x="1476" d="M31 0l221 1042h203l-80 -376h327l80 376h203l-80 -376h295q127 0 174 -83.5t12 -246.5q-37 -180 -116.5 -258t-210.5 -78h-498l98 469h-327l-99 -469h-202zM805 188h246q94 0 123 146q17 72 -1 103.5t-67 31.5h-242z" />
<glyph unicode="&#x45b;" horiz-adv-x="956" d="M31 0l252 1190h-84l37 178h83l25 111h203l-25 -111h170l-37 -178h-170l-41 -189q130 72 246 72q62 0 104 -12t74 -42.5t44 -83.5t7.5 -136.5t-28.5 -198.5l-127 -600h-203l123 580q17 82 18 134.5t-15.5 80.5t-43 38.5t-70.5 10.5q-67 0 -119 -24t-61 -68l-160 -752h-202 z" />
<glyph unicode="&#x45c;" horiz-adv-x="901" d="M31 0l221 1042h203l-107 -501q168 180 430 501h240q-325 -404 -418 -477q27 -14 45 -30.5t41.5 -54t43 -95t42 -154.5t45.5 -231h-237q-23 135 -50 227t-59 143.5t-63 76t-72 36.5l-103 -483h-202zM514 1163l256 264h217l-295 -264h-178z" />
<glyph unicode="&#x45e;" horiz-adv-x="837" d="M-6 -393q95 141 207 342q-3 599 -62 1093h213q37 -339 37 -790q242 465 375 790h207q-231 -514 -547 -1085q-76 -141 -205 -350h-225zM397 1432h140q-14 -69 5 -94t76 -25t89.5 25.5t46.5 93.5h131q-59 -281 -305 -281q-245 0 -183 281z" />
<glyph unicode="&#x45f;" horiz-adv-x="960" d="M31 0l221 1042h203l-176 -821h327l176 821h203l-221 -1042h-254l-113 -365h-145l45 365h-266z" />
<glyph unicode="&#x490;" horiz-adv-x="890" d="M61 0l304 1427h573l131 365h143l-127 -598h-555l-251 -1194h-218z" />
<glyph unicode="&#x491;" horiz-adv-x="694" d="M31 0l221 1042h403l121 336h127l-119 -557h-376l-175 -821h-202z" />
<glyph unicode="&#x2000;" horiz-adv-x="911" />
<glyph unicode="&#x2001;" horiz-adv-x="1823" />
<glyph unicode="&#x2002;" horiz-adv-x="911" />
<glyph unicode="&#x2003;" horiz-adv-x="1823" />
<glyph unicode="&#x2004;" horiz-adv-x="607" />
<glyph unicode="&#x2005;" horiz-adv-x="455" />
<glyph unicode="&#x2006;" horiz-adv-x="303" />
<glyph unicode="&#x2007;" horiz-adv-x="303" />
<glyph unicode="&#x2008;" horiz-adv-x="227" />
<glyph unicode="&#x2009;" horiz-adv-x="364" />
<glyph unicode="&#x200a;" horiz-adv-x="101" />
<glyph unicode="&#x2010;" horiz-adv-x="497" d="M61 455l52 241h403l-51 -241h-404z" />
<glyph unicode="&#x2011;" horiz-adv-x="497" d="M61 455l52 241h403l-51 -241h-404z" />
<glyph unicode="&#x2012;" horiz-adv-x="497" d="M61 455l52 241h403l-51 -241h-404z" />
<glyph unicode="&#x2013;" horiz-adv-x="946" d="M94 455l51 241h787l-51 -241h-787z" />
<glyph unicode="&#x2014;" horiz-adv-x="1417" d="M94 455l51 241h1258l-51 -241h-1258z" />
<glyph unicode="&#x2018;" horiz-adv-x="417" d="M176 1034l293 537h164l-242 -537h-215z" />
<glyph unicode="&#x2019;" horiz-adv-x="415" d="M172 1024l242 537h213l-291 -537h-164z" />
<glyph unicode="&#x201a;" horiz-adv-x="401" d="M-121 -326l240 537h215l-293 -537h-162z" />
<glyph unicode="&#x201c;" horiz-adv-x="735" d="M176 1034l293 537h164l-242 -537h-215zM494 1034l292 537h164l-241 -537h-215z" />
<glyph unicode="&#x201d;" horiz-adv-x="735" d="M172 1026l242 537h215l-293 -537h-164zM489 1026l244 537h213l-293 -537h-164z" />
<glyph unicode="&#x201e;" horiz-adv-x="737" d="M-115 -336l240 537h215l-293 -537h-162zM201 -336l241 537h215l-292 -537h-164z" />
<glyph unicode="&#x2020;" horiz-adv-x="731" d="M174 981l45 205h232l61 293h168l-62 -293h234l-45 -205h-234l-98 -467h-168l99 467h-232z" />
<glyph unicode="&#x2021;" horiz-adv-x="731" d="M88 578l45 206h232l41 197h-232l45 205h232l61 293h168l-62 -293h234l-45 -205h-234l-41 -197h234l-45 -206h-234l-61 -293h-168l61 293h-231z" />
<glyph unicode="&#x2022;" d="M112 448q4 94 31 222q33 158 80 265t112 168.5t142 87.5t180 26q83 0 141 -16t99.5 -54t59 -100.5t14 -156t-30.5 -220.5q-33 -159 -80.5 -267t-112.5 -171.5t-143 -90t-182 -26.5q-82 0 -140 16.5t-99 55.5t-58 103t-13 158z" />
<glyph unicode="&#x2026;" horiz-adv-x="1869" d="M168.5 68q0.5 31 11.5 82q20 90 51.5 116.5t106.5 26.5q32 0 51 -3t34 -11.5t20 -24.5t4 -41t-9 -63q-21 -98 -55.5 -129t-110.5 -31q-38 0 -59.5 6t-33 23.5t-11 48.5zM742.5 68q0.5 31 11.5 82q19 90 51 116.5t106 26.5q32 0 51 -3t34 -11.5t20.5 -24.5t4.5 -41t-9 -63 q-21 -98 -55.5 -129t-110.5 -31q-37 0 -58.5 6t-33.5 23.5t-11.5 48.5zM1330.5 19.5q-18.5 29.5 0.5 130.5q19 90 51 116.5t105 26.5q78 0 99 -26t1 -117q-21 -99 -55 -129.5t-111 -30.5q-72 0 -90.5 29.5z" />
<glyph unicode="&#x202f;" horiz-adv-x="364" />
<glyph unicode="&#x2030;" horiz-adv-x="2217" d="M156 778q3 91 32 228q38 180 90.5 279.5t123.5 138t182 38.5q66 0 109.5 -13t73.5 -43.5t40.5 -83t5 -130t-28.5 -186.5q-57 -269 -146 -371.5t-251 -102.5q-82 0 -132 22.5t-76 77.5t-23 146zM254 0l1003 1427h193l-1006 -1427h-190zM343.5 770.5q12.5 -55.5 82.5 -55.5 q69 0 104.5 56.5t73.5 232.5q26 121 27.5 180t-17.5 78.5t-67 19.5t-76.5 -19.5t-53.5 -79t-50 -179.5q-36 -178 -23.5 -233.5zM898 215q3 91 32 229q29 135 63.5 223t83 139.5t107 72t141.5 20.5q66 0 109.5 -13t74 -43.5t41 -83t5 -130t-28.5 -185.5 q-39 -183 -92.5 -286.5t-125.5 -145t-182 -41.5q-82 0 -131 22t-74.5 76.5t-22.5 145.5zM1082.5 207q12.5 -55 82.5 -55q47 0 75.5 23t52.5 84t50 183q26 121 27.5 179.5t-17.5 78t-67 19.5t-76.5 -19t-53.5 -78.5t-50 -179.5q-36 -180 -23.5 -235zM1545 215q3 91 32 229 q29 135 63.5 223t83 139.5t107 72t141.5 20.5q66 0 109.5 -13t74 -43.5t41 -83t5 -130t-28.5 -185.5q-39 -183 -92 -286.5t-125 -145t-182 -41.5q-82 0 -131.5 22t-75 76.5t-22.5 145.5zM1729.5 207q12.5 -55 82.5 -55q47 0 76 23t53 84.5t50 182.5t27 179.5t-18 78 t-67 19.5t-76.5 -19t-53.5 -78.5t-50 -179.5q-36 -180 -23.5 -235z" />
<glyph unicode="&#x2039;" horiz-adv-x="649" d="M98 639l564 571l86 -149l-379 -418l198 -426l-147 -154z" />
<glyph unicode="&#x203a;" horiz-adv-x="649" d="M8 215l379 418l-199 428l146 151l325 -573l-565 -573z" />
<glyph unicode="&#x2044;" horiz-adv-x="972" d="M-45 0l1020 1427h192l-1022 -1427h-190z" />
<glyph unicode="&#x205f;" horiz-adv-x="455" />
<glyph unicode="&#x20a3;" horiz-adv-x="935" d="M47 240l39 180h66l215 1007h813l-52 -233h-596l-86 -403h365l-49 -230h-365l-28 -141h147l-39 -180h-147l-51 -240h-216l50 240h-66z" />
<glyph unicode="&#x20ac;" horiz-adv-x="970" d="M115.5 425q5.5 128 42.5 302q47 217 109 361t149 226t189.5 115t244.5 33q78 0 166 -15t151 -38l-100 -238q-38 20 -104.5 33t-126.5 13q-74 0 -124 -8.5t-97 -32t-81.5 -69t-64.5 -116.5h391l-37 -174h-413q-15 -57 -21 -92q-15 -63 -18 -92h413l-36 -174h-392 q-2 -74 13 -122t51 -73.5t83 -35t120 -9.5q60 0 132.5 12.5t118.5 32.5l-2 -241q-161 -52 -337 -52q-112 0 -190.5 23t-133.5 75.5t-78 140t-17.5 215.5z" />
<glyph unicode="&#x2122;" horiz-adv-x="1351" d="M199 1268l34 159h519l-35 -159h-187l-122 -576h-146l123 576h-186zM655 692l158 735h193l43 -497l249 497h185l-158 -735h-139l108 512l-243 -483h-113l-37 483l-108 -512h-138z" />
<glyph unicode="&#x2202;" horiz-adv-x="1024" d="M96 446q51 241 162.5 336t349.5 95q52 0 142 -11q-44 232 -248 561h268q52 -84 90.5 -161.5t71 -173.5t47.5 -191t12 -209t-28 -233q-32 -149 -70.5 -240.5t-102 -150t-150 -81t-218.5 -22.5q-237 0 -310.5 106.5t-15.5 374.5zM319 434q-28 -126 2.5 -176.5t153.5 -50.5 q64 0 101 8.5t70 38t54 84t41 149.5q19 98 17 148q-71 14 -174 14q-94 0 -143 -18t-76 -62t-46 -135z" />
<glyph unicode="&#x220f;" horiz-adv-x="1204" d="M61 0l304 1427h917l-303 -1427h-213l250 1184h-488l-249 -1184h-218z" />
<glyph unicode="&#x2211;" horiz-adv-x="1019" d="M-76 0q160 200 537 709q-110 348 -209 718h944l-51 -233h-586q49 -159 154 -487q-215 -286 -375 -476h608l-49 -231h-973z" />
<glyph unicode="&#x221a;" horiz-adv-x="946" d="M86 793l53 249h271q39 -363 39 -786q110 216 294.5 601.5t262.5 569.5h206q-117 -259 -342.5 -719t-359.5 -708h-252q-11 470 -37 793h-135z" />
<glyph unicode="&#x221e;" horiz-adv-x="1265" d="M86.5 502.5q0.5 86.5 28.5 216.5q28 129 64 215t85.5 136t109 70.5t140.5 20.5q64 0 106.5 -10.5t76.5 -37.5t45.5 -81t0.5 -135q23 82 56.5 136t78.5 81t92 37t111 10q82 0 132.5 -20t79 -70t28 -136t-28.5 -216t-64 -216.5t-85.5 -137t-109 -71t-140.5 -20.5 q-41 0 -73 4.5t-62 15.5t-48.5 30t-32.5 48.5t-14.5 71t5.5 97.5q-25 -82 -59.5 -136t-79.5 -82t-92 -38.5t-111 -10.5q-81 0 -132 20.5t-79.5 71t-28 137zM300.5 559.5q24.5 -45.5 111.5 -45.5q91 0 139 48t72 157q23 108 -5.5 155.5t-119.5 47.5q-87 0 -129.5 -44.5 t-67.5 -158.5t-0.5 -159.5zM784 719q-23 -108 6 -155.5t119 -47.5q87 0 130.5 45t66.5 158q25 113 0.5 158t-111.5 45q-90 0 -139 -47.5t-72 -155.5z" />
<glyph unicode="&#x222b;" horiz-adv-x="552" d="M-401 -367l84 197q74 -41 174 -41q63 0 110 44.5t68 137.5l241 1141q42 195 142.5 283t238.5 88q132 0 230 -45l-88 -201q-26 12 -71.5 20.5t-82.5 8.5q-66 0 -107 -34.5t-63 -133.5l-237 -1127q-20 -90 -53.5 -159.5t-73 -111.5t-88.5 -69t-95.5 -37t-97.5 -10 q-137 0 -231 49z" />
<glyph unicode="&#x2248;" horiz-adv-x="954" d="M82 485q65 97 129.5 149t138.5 52q47 0 96.5 -26.5t84.5 -58.5t75.5 -58.5t71.5 -26.5q38 0 69.5 30t71.5 109l103 -129q-52 -103 -131 -168t-168 -65q-34 0 -71 18t-68.5 43.5t-61.5 51t-62 43.5t-59 18q-62 0 -131 -123zM174 922q65 97 129.5 148.5t138.5 51.5 q47 0 96.5 -26.5t84.5 -58.5t75.5 -58.5t71.5 -26.5q38 0 70.5 30.5t70.5 109.5l105 -129q-54 -104 -133.5 -169t-167.5 -65q-35 0 -71.5 18t-68 43.5t-61.5 51t-62 43.5t-59 18q-62 0 -131 -123z" />
<glyph unicode="&#x2260;" horiz-adv-x="954" d="M70 344l51 242h231l195 305h-361l52 242h458l127 194h203l-127 -194h135l-51 -242h-235l-195 -305h365l-52 -242h-463l-124 -197h-203l125 197h-131z" />
<glyph unicode="&#x2264;" horiz-adv-x="952" d="M4 39l51 242h797l-51 -242h-797zM219 838l23 106l696 510l70 -166l-512 -395l344 -399l-140 -168z" />
<glyph unicode="&#x2265;" horiz-adv-x="954" d="M6 39l51 242h797l-51 -242h-797zM160 494l510 399l-342 395l139 166l481 -510l-22 -106l-701 -512z" />
<glyph unicode="&#x25ca;" horiz-adv-x="980" d="M63 543q180 348 492 889h340q22 -367 90 -889q-292 -526 -467 -887h-340q-77 509 -115 887zM276 545q13 -143 78 -695h45q37 76 100 198.5t147 283t112 213.5q-5 57 -21.5 214t-27.5 280t-15 200h-45q-291 -533 -373 -694z" />
<glyph unicode="&#x25fc;" horiz-adv-x="1044" d="M0 0v1044h1044v-1044h-1044z" />
</font>
</defs>
</svg>
